<?xml version="1.0" standalone="no"?> <!DOCTYPE svg PUBLIC "-//W3C//DTD SVG 1.0//EN" "http://www.w3.org/TR/2001/REC-SVG-20010904/DTD/svg10.dtd" > <svg xmlns="http://www.w3.org/2000/svg" width="100%" height="100%">
<defs >
<font id="Journal" horiz-adv-x="247" ><font-face
    font-family="Journal"
    units-per-em="1000"
    panose-1="0 0 4 0 0 0 0 0 0 0"
    ascent="954"
    descent="-378"
    alphabetic="0" />
<missing-glyph horiz-adv-x="364" d="M33 0V666H298V0H33ZM66 33H265V633H66V33Z" />
<glyph unicode=" " glyph-name="space" horiz-adv-x="233" />
<glyph unicode="!" glyph-name="exclam" horiz-adv-x="200" d="M180 432Q176 429 174 417T167 399Q163 380 153 349Q152 347 147 316Q143 296 134 284Q133 269 124 246Q113 218 111 208Q106 200 98 180L95 178Q91 174 87 174Q85 174 82 175Q76 186 84 210Q85 213
84 224H87Q99 266 116 353Q126 378 126 403Q129 407 134 424Q150 480 159 543Q161 545 167 572Q171 581 171 591Q171 603 164 617Q185 624 194 624Q211 624 215 607Q212 578 198 520T180 432ZM59 -14Q49 -34 35 -32Q10 -24 10 -7Q10 9 21 19T48 27L54 21L58 18Q72
8 62 -6Q61 -8 59 -14Z" />
<glyph unicode="&quot;" glyph-name="quotedbl" horiz-adv-x="117" d="M125 503Q125 484 119 472L101 468Q103 490 103 486Q104 490 101 493Q102 509 98 539T93 582V599Q93 609 105 612Q117 612 122 603Q119 579 119 562Q119 542 123 531Q123 526 124 517T125
503ZM79 462L61 464Q64 476 61 484Q57 494 58 500Q57 511 50 531Q50 535 44 572Q41 579 41 584Q41 588 43 590T47 593L49 594Q54 598 64 596Q70 585 74 568Q79 540 80 538Q81 516 84 495Q84 485 79 462Z" />
<glyph unicode="#" glyph-name="numbersign" horiz-adv-x="480" d="M279 305Q306 309 348 305Q407 299 418 299Q439 296 443 293Q453 288 453 271Q431 267 360 265Q305 263 278 257Q274 247 274 235Q274 222 282 193T289 148Q283 139 276 139Q268 139 255 152Q246
159 242 178T235 203T231 219Q231 223 232 230T233 242Q233 250 228 253Q221 248 192 246Q170 245 167 230Q168 227 162 190Q161 186 161 182Q161 170 172 163Q175 147 155 127Q150 126 145 126Q120 126 116 152L128 237Q108 233 74 226Q55 221 45 221Q30 221 16
231Q14 237 14 242Q14 258 35 269Q70 273 137 286Q145 306 145 308Q145 310 144 312L99 303Q92 300 83 300Q68 300 50 311Q47 315 47 321Q47 328 53 338L57 346Q67 344 76 344Q89 344 115 351T154 358Q160 367 162 391T167 424Q163 431 163 439Q163 451 171 467Q177
475 186 475Q190 475 210 466Q219 455 219 437Q219 440 212 390Q209 384 203 371Q202 369 202 368Q202 366 204 366Q240 373 251 387Q269 467 320 481L332 463Q319 439 302 389Q311 390 327 390Q340 397 375 398Q414 399 426 402Q433 402 447 403T469 404Q498 404
514 388V370Q471 371 430 365Q409 362 353 354Q303 346 284 333Q283 323 279 305ZM200 322Q189 313 189 295L230 299Q234 301 234 309V325Q210 325 200 322Z" />
<glyph unicode="$" glyph-name="dollar" horiz-adv-x="418" d="M434 572Q413 558 413 545Q393 529 383 501Q353 447 296 330L289 325Q341 264 335 206Q327 204 327 198V192L322 189Q297 127 210 99Q184 46 177 -66H174Q175 -98 156 -126Q156 -91 161 75Q155 76
148 76Q132 76 109 71Q99 62 90 36T72 0Q71 -8 65 -27T58 -58Q58 -66 61 -74Q53 -92 49 -98Q40 -108 25 -111Q11 -97 11 -79Q11 -65 18 -46L30 -14Q42 17 60 78Q50 82 32 108V130Q43 125 53 120Q67 114 75 117Q98 148 115 194Q124 221 144 276Q157 308 167 342Q127
365 123 368Q100 385 96 409Q99 462 149 505Q195 538 242 570Q283 579 300 625Q309 652 328 704Q327 709 327 713Q327 723 347 749Q364 748 377 736Q381 726 381 715Q381 699 368 670T353 629Q358 625 364 625Q368 625 378 628T393 631Q412 659 422 659Q427 659
433 657Q444 651 444 643Q444 639 441 632T437 620Q437 613 446 607Q449 600 449 594Q449 582 434 572ZM340 564L331 561H329Q307 530 260 430Q260 423 252 411L247 406Q240 396 240 386Q240 382 241 378L238 375Q235 372 231 373V358Q251 345 256 346Q260 362
274 389T292 430Q293 434 299 443T304 459Q320 493 351 561Q347 566 340 564ZM203 490Q192 480 165 461Q141 430 141 415Q141 408 144 400Q175 378 185 379Q220 448 241 514Q222 506 203 490ZM278 273Q261 242 252 221Q238 190 232 165Q235 164 254 169Q299 206
297 239Q294 248 290 258T278 273ZM215 315Q203 297 181 238Q152 190 133 129Q139 124 144 124Q148 124 158 129T176 133Q183 156 214 238Q214 251 225 274T237 309Q227 316 215 315Z" />
<glyph unicode="%" glyph-name="percent" horiz-adv-x="598" d="M555 480Q506 440 423 344T290 207Q278 185 237 150T184 91Q159 72 119 -1L130 -12Q116 -15 112 -18L107 -20Q101 -23 96 -23Q86 -23 79 -11Q77 -4 77 2Q77 15 86 32L101 60Q126 104 185 166Q258
241 278 265Q296 282 332 316Q363 346 379 374V389Q385 387 389 387Q399 387 412 403Q418 415 418 412Q439 439 439 446Q439 450 437 453T434 464V468Q433 473 427 495Q439 481 456 463Q458 462 460 462Q463 462 464 463Q472 479 491 499Q516 525 521 532Q528 535
534 535Q545 535 565 515Q569 509 569 503Q569 491 555 480ZM274 411Q271 401 257 368Q251 348 217 311Q150 256 87 256Q68 256 50 261Q12 280 1 331Q-1 362 23 392Q56 433 60 445L92 460Q106 465 108 486Q117 484 121 488L123 491Q128 498 135 499Q205 523 228
520Q230 517 247 504Q259 495 258 482Q265 478 270 463L272 457Q281 438 274 411ZM217 469Q208 447 193 445Q178 449 155 436Q138 425 121 414Q120 404 105 395Q95 391 95 376Q81 377 76 371T63 353Q61 350 53 342Q44 320 64 305Q72 299 88 301Q96 303 112 306Q142
312 157 326Q226 390 226 443Q226 453 224 463Q219 474 217 469ZM551 104Q551 88 544 65Q533 44 503 26L453 -4Q449 -2 445 -2Q440 -2 431 -8Q418 -17 417 -17Q397 -22 380 -22Q346 -22 328 0Q327 6 321 22T315 47Q315 59 322 70Q356 126 368 140Q398 176 436 184Q446
195 458 186Q464 181 480 177Q485 175 487 174Q493 171 500 177Q525 167 530 164Q546 155 550 141Q552 110 551 104ZM490 135Q478 141 465 127Q439 129 420 112Q413 105 390 75L372 51Q368 44 368 39Q368 35 370 32Q376 30 383 30Q396 30 417 38T447 48Q451 57
464 61T477 65Q513 100 509 125Q506 126 490 135Z" />
<glyph unicode="&amp;" glyph-name="ampersand" horiz-adv-x="548" d="M495 245Q486 232 481 220Q472 217 440 177Q420 151 400 126Q395 117 379 92Q376 86 367 77Q378 71 389 63Q422 39 447 41Q453 37 457 21Q458 18 462 9Q456 5 430 3Q372 27 332 50Q263 -19
187 -79Q139 -117 84 -117Q50 -117 15 -100Q-6 -90 4 -40Q16 -22 32 17Q56 53 103 125Q139 181 164 239Q190 272 190 321Q190 340 185 378T180 436Q180 457 193 517Q199 544 215 565Q230 565 242 554Q251 542 261 531Q269 510 269 487Q269 461 253 411T236 334Q236
303 253 275Q263 259 284 194Q301 144 332 119Q354 130 379 157Q391 170 403 177Q439 217 457 234Q490 265 539 298L495 245ZM249 173T235 192Q233 210 232 213Q228 223 215 222Q198 213 183 172Q172 167 165 147T143 123Q134 91 95 31Q62 -20 61 -71Q76 -77 89
-77Q101 -77 118 -69Q144 -57 150 -55Q240 19 301 86Q280 110 265 141Z" />
<glyph unicode="&apos;" glyph-name="quotesingle" horiz-adv-x="46" d="M49 505Q48 496 45 487L26 488Q28 494 28 499Q28 504 26 508Q23 519 23 524Q22 535 16 555Q14 567 9 596Q6 612 10 616L11 617Q12 617 13 618L14 619Q18 621 23 621Q26 621 30 620Q36 609
39 592Q42 579 44 564T49 519Q49 517 49 505Z" />
<glyph unicode="(" glyph-name="parenleft" horiz-adv-x="298" d="M220 457Q206 438 183 394L173 378Q161 360 149 343Q58 214 58 62Q75 13 79 6Q94 -21 124 -29H144Q154 -30 168 -44Q156 -47 130 -53Q112 -57 97 -52Q70 -46 28 14Q9 50 9 99Q9 143 24 189Q29
195 34 215T47 245Q55 268 75 310Q78 321 89 327L94 331Q101 334 101 340Q101 343 100 347Q145 430 187 492Q194 491 195 496L197 505Q198 510 202 515Q232 555 245 569Q271 597 300 609Q313 606 316 589Q317 587 320 581Q293 561 267 523T220 457Z" />
<glyph unicode=")" glyph-name="parenright" horiz-adv-x="236" d="M85 89Q84 78 73 68T61 49Q20 6 -55 -89Q-66 -92 -75 -104T-93 -126T-121 -142Q-124 -125 -115 -118Q-100 -106 -99 -103Q-86 -83 -54 -47Q-53 -37 -41 -28T-30 -10Q-25 -1 -8 10Q3 19 3 29Q16
37 30 60T52 91Q112 171 147 279Q159 316 159 367Q159 382 159 412Q158 442 158 457Q156 466 146 494Q138 517 138 531Q131 540 120 578Q109 582 107 592L103 611Q101 616 95 619Q95 645 112 649Q143 637 153 591Q164 583 169 560T183 529Q197 451 197 391Q197
218 85 89Z" />
<glyph unicode="*" glyph-name="asterisk" horiz-adv-x="349" d="M175 251Q198 238 238 206Q266 184 272 175Q285 159 285 131Q260 152 219 177Q161 212 150 220Q130 173 130 138Q130 132 129 122Q128 115 134 105Q126 101 121 101Q111 101 107 114L106 117Q105
118 104 120V158Q104 177 109 191Q113 210 116 243Q89 233 58 233Q35 233 10 239Q8 246 8 252Q8 267 20 271Q46 268 95 274Q92 280 79 304Q69 323 69 335Q69 350 83 364Q105 367 114 350Q113 344 113 339Q113 321 136 290Q144 309 163 345V348Q162 350 158 358Q173
358 180 372Q192 394 202 394Q211 394 223 382Q223 376 219 366T214 351Q209 347 202 334T188 315Q182 306 174 288Q176 287 184 287L189 298L200 290Q242 297 271 297Q282 297 291 296Q297 293 299 289Q299 286 298 280T296 271Q285 265 278 265Q274 265 271 267Q255
269 229 263Q199 256 187 256Q182 251 175 251Z" />
<glyph unicode="+" glyph-name="plus" horiz-adv-x="347" d="M220 296Q271 303 281 303Q303 303 321 296L320 271Q309 272 298 274Q286 275 278 268Q248 268 219 262Q218 239 214 194Q216 175 213 171T193 154Q189 153 184 153Q179 153 174 154Q168 170 168 189Q168
200 170 220T173 252Q134 243 107 242Q102 242 91 240T73 238Q56 238 55 256Q58 264 61 272T74 284Q100 282 123 282Q154 282 177 286Q178 295 185 342Q187 356 206 398L232 397Q221 377 223 362Q225 354 225 348Q225 340 222 331Q223 326 220 296Z" />
<glyph unicode="," glyph-name="comma" horiz-adv-x="180" d="M112 45Q113 37 106 13Q85 -61 21 -106Q18 -103 10 -101T2 -92Q2 -89 3 -84T11 -75L13 -73Q19 -69 20 -64Q51 -17 58 -4Q76 31 79 64Q85 70 94 70Q110 70 116 54Q112 49 112 45Z" />
<glyph unicode="-" glyph-name="hyphen" horiz-adv-x="331" d="M210 244Q225 244 252 238T291 232Q305 226 313 202Q305 177 271 179Q262 187 249 189H224Q216 192 196 190T163 195Q151 194 138 194Q93 194 59 204Q18 216 18 240Q27 249 58 249Q69 249 123 246Q176
243 210 244Z" />
<glyph unicode="." glyph-name="period" horiz-adv-x="140" d="M67 20Q64 -9 36 -12Q21 -3 21 3Q19 14 19 22Q19 50 42 50Q50 48 57 46T67 34V20Z" />
<glyph unicode="/" glyph-name="slash" horiz-adv-x="204" d="M198 440T199 425Q172 405 174 371Q163 365 154 341Q142 313 137 307Q137 293 128 287Q126 268 109 232T91 174Q82 161 74 135Q63 102 60 95Q47 42 30 -60Q31 -71 21 -83Q19 -87 12 -99Q-7 -58 0 0Q5
42 18 92Q24 113 77 270Q84 290 178 523Q184 532 194 532Q203 532 213 525Q220 519 220 498Q220 487 218 472Q213 465 206 453Z" />
<glyph unicode="0" glyph-name="zero" horiz-adv-x="414" d="M373 276Q354 206 338 180Q313 112 257 48T133 -47Q110 -53 90 -53Q4 -53 4 55Q4 76 9 117Q14 122 17 135Q18 145 20 155Q28 173 64 272Q80 295 85 304Q96 323 100 339Q112 362 139 401T178 461Q188
469 203 486Q198 487 176 471Q173 465 164 461T152 453Q146 449 135 432Q127 419 114 419Q107 419 98 422Q123 479 145 494Q200 548 298 553Q317 551 326 508Q352 467 356 458Q370 429 369 401Q374 397 374 387T375 374L373 276ZM289 495Q282 495 271 487T254 478Q181
406 115 283Q43 147 43 59Q43 36 47 15Q58 8 58 -3Q70 -12 80 -15Q142 -12 194 38Q208 48 250 101Q336 212 338 361Q339 448 289 495Z" />
<glyph unicode="1" glyph-name="one" horiz-adv-x="181" d="M139 479Q118 362 96 245Q72 107 70 10Q80 2 80 -21Q75 -31 55 -31Q31 -18 31 8Q31 16 33 32T36 56Q36 65 34 72Q39 107 52 199Q56 223 87 399Q109 520 116 600Q118 623 130 641Q135 639 146 636Q151
635 162 626Q159 602 139 479Z" />
<glyph unicode="2" glyph-name="two" horiz-adv-x="421" d="M389 569L390 566Q392 556 387 550Q383 535 366 504Q366 490 351 475T335 451Q315 425 281 368Q267 366 259 349T242 328Q240 323 208 280Q195 262 113 146Q108 135 73 85Q47 48 45 18Q70 4 108 4Q143
4 186 15Q211 21 290 49Q353 72 396 78Q386 72 349 48Q333 38 318 37Q290 20 268 8Q237 -8 215 -13Q163 -31 92 -31Q66 -31 38 -29Q-9 -15 -9 11Q-9 40 27 100Q37 106 45 127Q79 167 129 240Q163 289 210 356Q223 373 256 417Q264 421 272 435T285 454Q292 464
303 483Q307 492 325 523Q340 548 340 564Q340 571 338 578Q329 585 318 585Q307 585 290 577Q267 566 262 565Q255 557 228 543Q206 531 198 514Q167 514 151 532Q153 548 171 557L177 560Q187 565 189 572Q203 581 237 595T286 622Q334 623 348 619Q377 611 394
577Q387 573 389 569Z" />
<glyph unicode="3" glyph-name="three" horiz-adv-x="445" d="M395 491Q387 479 367 446Q352 433 323 403Q294 384 264 365Q230 342 210 321Q248 318 318 307Q377 290 393 237Q393 144 254 72Q241 71 220 60T189 47Q169 41 145 41Q104 41 59 57Q17 80 5 121Q10
123 15 123Q26 123 38 112Q53 97 58 95Q88 82 126 82Q186 82 250 115Q307 154 318 165Q353 199 354 239Q346 254 325 261Q322 262 288 267Q266 276 251 273L245 265Q230 274 206 274Q178 273 170 276Q158 280 134 305Q149 329 188 358Q220 380 253 403Q274 417
315 449Q349 477 364 509Q366 516 366 520Q366 530 357 531Q336 540 307 540Q273 540 231 528Q198 527 168 510Q161 512 141 504Q120 496 110 514Q109 519 109 523Q109 530 124 544Q138 547 210 569Q261 585 297 585Q364 585 402 547Q411 517 395 491Z" />
<glyph unicode="4" glyph-name="four" horiz-adv-x="339" d="M319 395Q317 389 310 373Q319 369 319 361Q319 356 316 347T312 333Q269 286 240 166Q234 164 232 149Q232 143 228 139Q217 121 211 86Q207 61 200 29Q200 8 196 -31Q184 -29 160 -9Q160 0 180 106Q190
139 209 206Q219 231 219 240Q203 228 167 212Q145 195 115 195Q92 195 71 206Q16 245 16 338Q16 386 28 433Q34 456 60 507Q68 533 95 552Q118 550 122 536Q125 517 95 487Q91 482 91 470Q80 462 74 441Q67 417 62 410L53 343Q47 339 51 332Q56 323 56 317Q58
303 62 276Q69 240 115 240Q144 240 182 263Q188 267 242 304Q261 349 294 445Q302 467 320 524Q324 527 329 539Q333 547 343 550Q354 550 364 524Q340 453 319 395Z" />
<glyph unicode="5" glyph-name="five" horiz-adv-x="377" d="M68 74H63Q66 85 70 94Q77 108 87 94Q93 74 120 66Q159 70 193 97T242 162Q244 173 244 183Q244 212 225 230Q188 265 127 265Q89 265 55 251Q47 252 32 250T11 248Q-15 248 -28 271Q-11 306 26 364Q68
428 82 455Q80 460 80 467Q80 496 104 496Q108 496 112 495Q148 503 211 510Q283 517 311 522Q335 521 359 519Q388 516 404 506V483Q398 483 346 479Q317 477 293 478L288 474Q251 472 204 461Q139 446 123 444Q114 426 91 392T59 340L31 299Q34 298 39 298Q48
298 68 303T99 309T128 311Q179 311 219 287Q228 272 247 267Q263 235 277 220Q283 201 283 183Q283 155 261 119Q255 110 220 63Q215 63 211 59L208 56Q198 46 191 43Q173 24 141 24Q129 24 96 29Q93 35 78 52Q69 62 68 74Z" />
<glyph unicode="6" glyph-name="six" horiz-adv-x="405" d="M308 36Q226 -22 153 -22Q116 -22 87 -6Q71 3 60 0Q60 12 46 37Q33 59 37 76Q32 95 32 114Q32 139 40 173L54 232Q66 266 99 329Q97 342 108 345Q166 439 185 464Q230 525 286 563Q290 564 293 564Q317
564 317 545V535Q295 516 252 476Q217 443 201 406Q195 405 187 388Q184 382 180 378Q166 366 151 337Q136 304 127 294Q127 289 121 278T116 260Q106 251 97 228T82 194Q81 176 76 139Q78 140 83 145L86 148Q89 152 131 185Q153 202 174 207Q215 228 263 228Q310
228 340 207Q379 171 379 134Q379 121 374 108Q364 66 308 36ZM300 184Q282 189 263 189Q215 189 166 162Q150 150 119 126Q92 104 83 82Q79 57 100 34Q126 20 165 20Q193 20 211 27Q236 36 294 72Q344 113 340 140Q326 172 300 184Z" />
<glyph unicode="7" glyph-name="seven" horiz-adv-x="276" d="M274 392Q274 386 269 374Q223 288 192 208Q184 196 174 173Q162 146 158 137T128 68Q111 26 113 -3Q123 -10 127 -21Q122 -34 109 -34Q104 -34 94 -32Q71 -19 71 13Q71 19 76 55Q87 86 117 147T159
238Q179 286 191 309Q214 350 228 391Q246 427 246 443H248Q252 453 258 476Q263 494 252 504Q225 529 167 529Q165 529 155 529Q144 528 135 528Q135 528 104 528Q89 530 63 523Q34 516 22 516Q-1 516 -17 533Q-21 563 10 563H23Q33 562 37 562Q49 562 55 566L164
578Q168 573 179 573T194 571Q239 561 253 554Q296 533 296 479Q296 439 274 392Z" />
<glyph unicode="8" glyph-name="eight" horiz-adv-x="337" d="M311 333Q285 314 233 274Q231 264 240 247Q254 227 276 185Q279 171 279 155Q279 89 246 47Q216 10 151 -18Q71 -18 42 18Q6 63 6 87Q6 98 10 109Q14 133 35 161Q55 184 74 206Q91 218 134 256Q144
264 166 285Q99 357 104 413Q129 498 213 555Q266 591 298 591Q320 591 338 577Q351 567 342 543Q326 522 301 527Q297 538 290 538Q287 537 275 532Q271 529 264 529Q257 524 225 505Q202 492 191 474H187Q177 462 159 436Q144 414 144 393Q144 381 150 369Q172
325 197 307Q284 364 315 412Q310 427 286 447Q276 456 270 463Q282 480 300 480Q305 480 310 478Q345 471 354 423Q357 375 311 333ZM210 223Q206 231 195 244Q103 173 55 107Q55 98 47 80V72Q63 44 100 25Q154 21 173 41Q202 56 220 82Q240 121 240 155Q240 179
229 196Q219 204 210 223Z" />
<glyph unicode="9" glyph-name="nine" horiz-adv-x="378" d="M344 434Q316 381 265 346Q258 325 223 312Q184 269 115 269Q103 269 92 270Q32 291 10 346Q1 438 98 541Q125 563 147 575L215 611Q267 620 284 620Q317 620 340 604L358 586Q368 575 369 565Q388
539 388 495Q388 485 387 467T386 438Q382 429 377 391Q373 382 354 331Q336 295 302 221Q297 210 284 192Q261 151 190 41Q179 25 156 -20Q150 -32 140 -32Q133 -32 125 -26Q122 -18 122 -11Q122 3 137 24T155 55Q169 69 189 102T218 149Q217 156 221 160L230
166Q231 169 230 171Q273 247 312 324Q333 366 344 434ZM335 539T326 562Q310 575 284 575Q281 575 228 568Q222 566 195 553Q176 544 165 532Q155 529 140 516T118 500Q85 460 71 436Q48 397 48 363Q48 351 51 338Q61 332 79 318Q93 315 107 315Q144 315 184 340Q217
365 251 390Q255 392 253 399Q266 405 275 417Q286 434 291 438Q300 446 304 463Q305 476 307 491Q308 499 314 516Q341 516 348 511Q348 519 342 529Z" />
<glyph unicode=":" glyph-name="colon" horiz-adv-x="121" d="M64 358Q64 337 53 332Q48 330 39 332L36 334Q32 335 13 324Q22 343 22 347Q20 356 17 364Q16 373 26 379Q33 381 55 373Q57 372 68 374Q64 363 64 358ZM18 122Q8 130 8 167Q28 163 29 163Q42 159
46 152Q58 137 48 123Q37 107 18 122Z" />
<glyph unicode=";" glyph-name="semicolon" horiz-adv-x="221" d="M127 279Q108 283 101 300Q100 305 105 332Q126 335 144 312Q146 307 146 303Q146 287 127 279ZM127 70Q114 58 87 34Q80 23 58 3Q57 -3 53 -5L45 -9V-18Q37 -16 30 -21Q18 -29 6 -16Q56 37 93
104Q101 111 110 111Q132 111 132 91Q132 88 130 82T127 70Z" />
<glyph unicode="&lt;" glyph-name="less" horiz-adv-x="424" d="M372 65Q364 68 335 81Q303 95 189 155L169 160Q168 169 156 172L148 176Q128 195 70 232Q18 265 -4 295Q-4 328 17 342Q31 351 65 358T114 374Q181 386 285 393Q306 394 324 394Q389 394 392 374Q394
364 394 357Q394 348 390 347Q377 354 364 354Q355 354 338 349T311 344Q304 344 297 346Q290 343 273 343T249 340Q134 343 54 302Q129 230 267 164Q299 150 381 111Q407 98 407 87Q407 74 372 65Z" />
<glyph unicode="=" glyph-name="equal" horiz-adv-x="361" d="M266 277Q257 278 249 272Q219 275 165 266Q107 256 81 257Q91 255 51 255Q33 255 27 273Q28 277 29 288Q29 296 41 302Q92 295 120 295Q154 295 180 303Q207 305 234 308Q264 308 287 298L293 272Q285
274 266 277ZM303 196Q294 198 287 198Q280 198 265 193T238 189Q217 187 177 175Q151 170 99 162Q86 158 77 158Q70 158 68 160T63 167L61 169Q57 175 57 182Q57 187 59 192Q80 204 112 210Q157 218 166 221Q197 224 248 228Q264 229 306 221L303 196Z" />
<glyph unicode="&gt;" glyph-name="greater" horiz-adv-x="500" d="M101 65Q70 74 70 87Q70 98 93 111Q132 132 194 165Q317 232 384 305Q312 346 210 343Q205 347 190 347T168 349Q162 347 155 347Q147 347 132 352T108 357T82 368Q80 364 78 363Q76 363 72 374Q77
371 82 368Q83 371 83 378Q86 399 145 398Q160 398 179 397Q271 390 330 377Q342 369 373 362T416 345Q435 330 435 297Q417 269 369 234T300 177Q295 174 293 173Q282 170 281 161L264 156Q178 104 134 81Q130 78 101 65Z" />
<glyph unicode="?" glyph-name="question" horiz-adv-x="365" d="M334 439L310 415Q295 402 280 398Q267 384 213 349Q205 342 188 330Q183 327 124 287Q85 260 69 233Q71 228 76 219Q83 215 142 207Q153 205 179 190L114 185Q57 185 37 216Q30 227 34 250Q52
279 100 309Q154 342 171 361Q178 366 224 396Q237 402 263 420Q280 432 300 446T336 481Q347 492 359 512Q348 557 277 567Q221 575 210 575Q193 575 166 572L121 567Q111 561 97 559Q71 549 64 546Q45 537 34 526Q26 527 5 544Q6 561 22 568Q36 572 51 576Q68
591 90 591Q154 608 211 608Q329 608 386 533L392 516Q386 477 334 439ZM68 -7H67Q56 -7 56 4Q56 11 62 16Q64 17 69 24Q95 23 124 29Q128 24 128 19Q128 12 119 3L116 -5Q111 -3 109 -3Q106 -3 99 -8Q87 -19 80 -19Q73 -19 68 -7Z" />
<glyph unicode="@" glyph-name="at" horiz-adv-x="531" d="M680 -103Q661 -109 653 -116Q534 -159 401 -159Q245 -159 128 -100L47 -18Q7 32 9 88Q13 199 82 314Q127 389 250 478Q267 483 285 483Q307 483 342 474Q384 464 398 462Q518 406 539 314Q543 224 495
132Q449 44 374 -11Q346 -32 321 -32Q301 -32 288 -16Q267 9 257 9Q250 9 243 6Q224 -13 197 -13Q178 -13 161 -3Q144 22 144 58Q144 80 151 98Q194 172 292 253Q306 273 339 276H394Q421 262 421 232Q421 202 372 120Q355 91 329 71Q330 64 327 52T323 35Q323
27 329 20Q369 32 415 92Q498 201 498 276Q498 315 479 350Q412 427 292 438Q237 421 189 368Q182 361 113 268Q77 220 60 112Q55 26 122 -22Q129 -45 141 -49Q147 -51 161 -65T187 -78Q225 -104 282 -113Q316 -118 383 -127L554 -115Q569 -108 608 -101Q643 -94
661 -84H707Q690 -100 680 -103ZM362 226Q353 227 333 222Q281 184 236 140Q196 101 196 53Q196 43 198 33Q215 32 235 43Q251 53 268 63Q267 68 267 72Q267 79 275 91T284 112Q303 131 308 131Q315 145 337 167T366 203Q371 211 371 217Q371 224 362 226Z" />
<glyph unicode="A" glyph-name="A" horiz-adv-x="416" d="M393 276H380Q377 275 374 269Q355 272 343 260Q342 250 342 239Q342 208 353 169Q362 138 372 100Q380 87 412 18Q416 14 416 9Q416 -1 394 -14Q372 -5 350 46Q342 66 319 118Q312 151 304 166Q302 193
293 245Q250 237 167 209Q152 208 119 200Q106 197 102 182Q62 139 35 57Q46 69 74 93L51 31Q44 30 41 19Q34 -9 -4 -9Q-12 -9 -18 -7Q-17 -4 -17 -2Q-17 3 -20 5Q-19 58 21 121Q47 163 67 203Q44 211 44 211Q32 218 33 231Q32 241 56 258Q62 260 68 260Q73 260
84 255T102 252Q116 274 146 317Q164 336 185 367L220 419Q225 431 240 452T260 486Q265 489 269 500T275 514Q273 517 278 533Q279 535 280 543Q289 545 292 555Q297 572 310 573Q330 575 345 566Q347 550 347 526Q347 503 345 471Q347 458 347 445Q347 412 335
384Q335 370 332 343Q334 331 339 307Q347 307 363 310T387 313Q407 313 419 300Q406 282 393 276ZM288 378Q290 427 289 448Q243 387 159 259Q193 270 261 284Q274 285 290 296Q286 325 288 378Z" />
<glyph unicode="B" glyph-name="B" horiz-adv-x="410" d="M161 288Q275 290 332 227Q348 203 348 176Q348 160 341 143Q335 140 330 130T319 116L313 101Q304 89 283 71T252 42Q165 -19 83 -19Q50 -19 21 -8Q9 2 -3 14T-15 41Q-5 47 4 43Q11 40 13 41Q28 109 62
230Q64 236 54 248T43 264Q43 271 53 276Q76 288 83 324Q93 372 99 384Q99 386 100 388V391L102 395Q103 400 99 406Q110 419 115 443T125 483Q137 498 153 498Q157 498 161 496Q173 487 173 475Q173 466 164 448T155 421Q148 394 133 341Q134 336 130 329T126
319Q246 379 308 447Q320 456 323 475Q297 497 244 499Q216 499 159 500Q150 501 130 498Q107 494 99 494Q73 494 61 513Q59 515 55 522Q54 525 54 527Q54 533 59 538T82 545L93 548Q95 540 103 540Q106 540 114 543T127 546Q137 546 147 540H250Q312 536 347 514Q370
487 371 465Q361 450 337 420Q336 413 322 404Q310 390 221 322Q209 319 192 308Q170 294 165 291Q164 291 162 289L161 288ZM115 235L119 230Q113 225 110 224T106 223Q102 198 86 150Q84 133 73 93T61 35Q61 26 63 19Q76 16 97 20Q129 26 131 26Q206 63 235 85Q292
127 304 179Q277 239 216 233Q205 241 185 241H148Q137 240 115 235Z" />
<glyph unicode="C" glyph-name="C" horiz-adv-x="425" d="M392 59Q386 50 380 49Q360 35 341 20Q315 4 297 3Q268 -17 227 -22Q203 -24 154 -29Q102 -23 64 5Q23 36 13 84Q8 98 8 115Q8 143 21 186L41 252L97 354Q130 414 167 449Q254 567 331 604Q345 606 357
606Q385 606 400 593V575Q399 566 391 559Q388 558 359 557Q338 556 329 545Q315 536 289 519T252 483Q107 338 59 132Q57 76 84 42Q112 5 166 5Q181 5 210 9T252 15Q281 23 336 48Q342 49 358 58T384 66Q388 71 396 71H416L415 60Q395 63 392 59Z" />
<glyph unicode="D" glyph-name="D" horiz-adv-x="501" d="M376 131Q368 128 355 113T329 96Q293 64 208 31Q202 18 186 17T165 10L91 -8Q44 -19 11 -19Q-14 -19 -33 -13Q-39 -9 -36 4Q-10 0 36 14Q38 21 34 33Q29 49 29 52Q43 170 74 302Q83 319 90 350Q98 387
103 399Q102 404 115 445Q122 468 100 469Q70 502 70 512Q70 516 71 520Q78 528 92 528Q101 528 113 525Q115 524 118 524H119L125 530Q134 539 136 540Q143 545 152 546Q172 543 185 510Q184 507 184 504Q184 500 188 499H197Q199 499 206 501Q218 492 252 489Q378
464 444 389Q478 351 478 301Q478 263 456 229Q443 203 376 131ZM431 327Q430 334 425 348Q400 386 305 426L237 440Q197 448 167 446Q160 408 140 340Q118 267 111 234Q103 218 103 208Q103 204 104 201Q98 178 91 122Q84 72 73 45Q79 31 78 24H80Q116 24 173
50Q173 50 263 92Q274 103 296 117Q322 133 330 140Q427 219 438 305Q433 312 431 327Z" />
<glyph unicode="E" glyph-name="E" horiz-adv-x="395" d="M334 514Q285 509 249 495Q227 495 222 489Q217 470 197 452Q185 441 169 420Q159 396 138 360Q131 343 118 310Q124 308 129 308Q134 308 150 314T175 321Q197 324 207 331Q221 335 373 392L414 388Q381
355 366 355Q347 337 309 322Q256 301 248 296Q227 291 184 270Q157 270 98 247Q59 165 59 97Q59 83 61 71Q74 23 106 20Q156 16 211 56Q238 77 313 133Q314 113 300 94Q296 89 271 64Q193 -29 103 -23Q26 5 13 58Q3 135 20 178Q30 203 42 247Q22 256 23 281Q29
287 43 291T61 299Q62 314 77 341T93 383Q101 386 103 395T108 408Q123 434 156 483Q154 485 125 491Q121 497 114 508Q113 512 113 515Q113 538 166 537Q201 536 209 538Q302 557 379 557Q430 557 476 549L482 535Q453 526 334 514Z" />
<glyph unicode="F" glyph-name="F" horiz-adv-x="392" d="M498 579H492Q483 577 476 583Q467 582 435 574Q409 567 393 569Q376 568 343 556Q327 557 297 551T253 544Q247 539 236 539H230Q220 541 214 532L147 319Q139 310 135 290Q129 266 126 259Q129 256 143
258Q160 261 162 260Q182 267 222 271T280 280Q307 288 333 288Q361 288 387 279Q385 266 381 265T364 262Q359 262 356 258Q305 246 202 221Q181 222 161 209Q156 210 149 210Q137 210 118 206L108 194Q80 91 80 58Q80 47 82 37H83Q91 37 93 39Q99 44 107 44Q106
10 76 -8Q58 -12 44 4Q33 13 37 36Q38 43 38 49Q38 61 33 66L60 193Q45 195 28 198T10 216Q9 238 32 243Q65 243 77 251Q82 259 84 283Q86 303 97 315Q125 399 136 436Q157 506 165 556L152 580Q175 594 208 591Q246 588 262 592Q274 593 363 608Q423 618 465 618Q480
618 494 617Q495 615 506 606Q514 600 514 594Q514 586 506 578Q502 579 498 579Z" />
<glyph unicode="G" glyph-name="G" horiz-adv-x="357" d="M285 -30L287 -32Q291 -35 291 -38Q291 -40 289 -43Q282 -50 272 -50Q265 -50 257 -47Q243 -37 243 -15Q243 -4 248 18T253 51Q254 54 258 64T263 79Q154 -20 56 -20Q46 -20 36 -19Q-56 25 -55 83Q-54
145 -17 220Q-15 224 54 344Q75 373 112 433Q125 443 144 469T177 505Q180 515 193 525T210 540Q277 604 341 611Q344 608 363 602Q377 598 379 587Q379 575 373 564Q363 559 351 559Q346 559 333 560Q320 561 315 560Q306 558 298 550Q281 545 253 517Q236 508
214 480Q190 449 176 440Q156 414 108 345Q99 330 45 236Q-6 146 -6 95Q-6 43 35 21Q48 18 63 18Q112 18 201 70Q229 87 285 139Q286 145 296 178Q304 206 304 222Q304 236 298 245Q233 234 194 195Q170 191 158 212Q166 236 193 250Q215 262 239 275Q287 289 291
290T301 292Q307 292 316 287Q322 286 323 286Q325 282 340 269Q352 258 352 231Q352 190 335 143Q324 116 303 60Q302 50 292 14Q283 -17 285 -30Z" />
<glyph unicode="H" glyph-name="H" horiz-adv-x="401" d="M116 231Q103 230 80 221Q77 208 68 196L50 129Q39 86 26 64Q20 41 20 29Q20 15 27 8T34 -4Q34 -7 32 -11Q21 -18 12 -17Q2 -14 -8 -12Q-17 11 -17 36Q-17 68 1 127Q23 199 27 220Q34 223 32 226Q27 233
27 235Q-6 248 -1 271Q8 280 19 280Q22 280 29 279T39 278Q47 278 51 291Q59 318 91 399L124 555Q128 564 157 569L186 547Q177 540 176 534Q174 525 172 522Q165 480 145 434Q147 418 137 394Q126 366 125 355Q113 329 99 277Q154 284 316 317Q320 320 325 333T335
350Q358 417 409 547Q413 550 418 562T431 579Q436 605 453 601Q468 601 477 581Q480 578 484 572Q465 552 451 515Q436 474 424 457Q418 431 381 345Q376 339 376 320T366 296Q313 162 313 81Q313 43 323 11Q325 10 330 10H332Q348 10 344 -4Q342 -12 320 -17Q316
-17 311 -19Q264 21 264 94Q264 140 281 201L302 276Q272 272 229 260L157 240Q152 240 146 234T132 228Q126 228 116 231Z" />
<glyph unicode="I" glyph-name="I" horiz-adv-x="216" d="M209 465Q206 458 200 442Q195 435 190 415T174 386Q160 337 133 239Q111 157 110 88Q98 68 98 41Q98 20 105 0Q113 -6 110 -26Q86 -27 73 -6Q69 1 57 37Q59 68 69 147Q92 294 144 447Q149 461 163 484T183
519Q193 530 218 530Q231 520 231 505Q231 495 225 482Q215 476 209 465Z" />
<glyph unicode="J" glyph-name="J" horiz-adv-x="219" d="M185 347Q167 225 121 120Q112 86 73 11Q64 -8 5 -73Q-1 -85 -17 -100Q-36 -118 -41 -125Q-115 -162 -133 -162Q-146 -162 -158 -156L-156 -146Q-95 -134 -49 -82Q-25 -55 -11 -37Q11 -9 19 13Q103 123
142 420Q144 471 155 574Q157 591 173 595Q179 598 184 598Q192 598 207 585L215 572Q205 491 192 394L185 347Z" />
<glyph unicode="K" glyph-name="K" horiz-adv-x="427" d="M88 173Q69 108 42 -29Q45 -35 45 -42Q45 -47 44 -51Q37 -63 26 -63Q15 -63 4 -51Q14 28 44 156Q81 314 89 361Q88 368 94 380T100 399Q100 403 98 406L130 554Q144 574 142 585L136 593Q152 607 170 607Q178
607 187 604Q188 602 192 593T197 579Q197 573 192 567Q180 546 170 498T147 429Q149 424 149 419Q149 410 141 393T133 369Q133 364 136 360Q207 401 213 405Q257 433 285 458Q332 487 420 542Q426 544 431 544Q439 544 458 525Q457 506 435 489Q406 483 356 451Q319
425 282 401T231 370Q203 351 185 334Q157 321 151 308Q141 285 141 264Q141 223 182 183Q208 162 258 120Q291 91 326 89Q330 83 346 79Q350 77 362 72Q337 58 313 65Q287 73 280 72Q170 118 102 217Q98 213 97 198T88 173Z" />
<glyph unicode="L" glyph-name="L" horiz-adv-x="302" d="M261 20Q257 14 252 13H241Q236 12 233 6Q228 4 184 -9Q174 -16 149 -20T114 -33Q95 -34 77 -34Q54 -34 47 -18Q11 -10 16 51Q24 155 60 271Q83 343 129 486Q124 490 124 496Q124 505 133 515Q134 519
141 541Q145 555 161 560Q169 560 187 541Q188 539 196 534Q192 514 177 473T158 408Q160 403 155 400V399L153 398Q139 387 131 353Q127 326 123 300L117 295Q107 269 96 213T73 130Q70 111 65 62Q61 27 79 10Q113 14 174 32Q261 58 309 63L330 47Q287 21 261
20Z" />
<glyph unicode="M" glyph-name="M" horiz-adv-x="592" d="M156 470L60 161Q62 146 52 117Q38 76 37 71Q18 27 9 -26Q-6 -35 -27 -23Q-29 -22 -40 -20Q-37 8 -19 53Q1 102 5 124Q11 155 31 211T59 299Q71 346 104 442Q136 535 148 585Q172 595 174 596Q193 596
202 572Q209 555 208 533Q212 530 213 521T218 508Q212 472 210 379Q208 301 227 273Q251 286 280 312L330 356Q339 368 356 382L384 405Q467 487 478 496Q532 547 578 580Q600 596 618 580Q622 573 622 564Q622 559 620 546T618 524Q549 324 502 143Q501 137 495
108Q490 87 490 73Q490 59 495 49Q488 30 464 -6L459 -1Q447 11 435 6L427 24Q452 175 560 511Q560 517 557 514Q538 502 515 478L477 437Q472 433 448 411Q373 344 330 304Q324 291 303 276T277 253Q262 245 234 226Q180 227 167 282Q163 330 158 378Q162 394
162 397Q162 403 157 409Q159 418 159 431Q159 447 156 470Z" />
<glyph unicode="N" glyph-name="N" horiz-adv-x="482" d="M552 535Q550 532 551 523Q540 520 533 500Q529 488 521 483Q519 475 501 430Q488 397 487 376Q481 355 460 317Q456 294 453 289Q449 274 440 263Q424 206 382 86Q372 43 340 -7Q328 -3 305 6Q246 85
214 250Q205 274 202 345Q197 363 195 398T188 451H187Q170 396 138 287Q130 267 118 212Q107 164 93 139Q95 134 95 128Q95 115 82 87T68 46T58 3T49 -45Q40 -64 24 -64Q-2 -64 -2 -44Q-2 -40 2 -24Q5 -11 3 -5Q36 90 91 273Q148 463 178 551Q187 557 197 557Q223
557 215 556Q224 544 237 536Q233 475 248 437Q246 422 246 405Q246 383 250 345Q255 301 256 286Q281 145 326 70Q324 77 335 90Q338 109 353 145T372 200L437 386Q476 488 524 562Q542 572 546 572Q562 572 562 557L552 535Z" />
<glyph unicode="O" glyph-name="O" horiz-adv-x="463" d="M443 356Q443 353 444 347T445 338Q443 334 438 329Q426 270 370 196Q364 191 351 163Q263 74 234 51Q158 -9 90 -9Q81 -9 72 -8Q57 -4 32 13Q-35 44 -35 121Q-35 210 55 344Q57 348 102 414Q158 495 245
545Q308 563 332 563Q355 563 371 552H385Q449 482 449 401Q449 381 445 360Q443 358 443 356ZM330 512L332 508L320 496Q317 508 311 509Q289 509 259 487Q237 470 220 466Q44 286 19 124Q19 34 94 34Q151 34 220 97Q271 135 277 151Q320 194 345 233Q398 316
398 402Q398 432 391 458Q394 466 385 474T375 489L357 505Q348 513 338 513Q334 513 330 512Z" />
<glyph unicode="P" glyph-name="P" horiz-adv-x="393" d="M442 459Q429 447 409 421Q392 410 368 381Q360 378 348 366T329 351Q314 344 260 307Q216 278 187 268Q183 266 107 226Q89 171 66 60Q75 52 75 40Q75 32 64 3Q62 -3 57 -18Q55 -19 45 -27Q40 -32 31
-29Q28 -22 19 -19Q5 -17 6 -3Q4 9 11 35T18 73Q18 79 17 84Q28 120 43 193Q40 195 36 195Q38 195 2 184Q0 192 0 198Q0 216 15 221T61 248Q61 264 73 292T87 336Q88 344 101 375Q110 398 110 414Q110 421 109 428Q117 431 119 444T129 462Q129 466 135 486Q140
500 140 510Q115 504 70 483Q46 488 42 490Q27 496 27 510Q25 527 49 535Q66 535 97 546T143 558Q219 579 264 586Q425 592 461 506Q461 482 442 459ZM288 538Q242 541 204 521Q178 461 180 443Q163 417 167 400Q148 360 121 276L141 282Q146 288 165 297T190 314Q206
321 249 350Q285 374 310 381Q319 394 352 428Q363 439 385 461Q403 481 407 503Q392 530 353 534Q331 535 288 538Z" />
<glyph unicode="Q" glyph-name="Q" horiz-adv-x="508" d="M508 -34Q486 -19 438 29Q396 71 365 86Q340 60 307 33Q266 -22 184 -22Q169 -22 155 -20L157 -9Q67 0 43 100Q20 92 -4 62Q-4 49 -7 47Q-21 33 -35 44L-40 48Q-46 53 -58 52Q-60 73 -44 90Q-19 116 -16
122Q14 140 42 159Q44 178 55 210Q67 246 70 260Q90 312 122 357L185 446Q220 474 255 502Q301 535 332 542Q359 548 385 548Q417 548 432 535Q467 519 476 500Q476 488 459 473Q453 474 450 473Q451 467 459 447Q466 432 465 421Q476 382 476 345Q476 294 455
255Q455 251 456 242Q457 233 450 228Q437 167 401 134Q399 131 396 123Q423 103 468 56T540 -11Q582 -21 618 -33Q578 -47 550 -47Q522 -47 508 -34ZM308 466T291 447Q268 421 263 417Q261 404 235 369Q220 371 214 393Q205 385 188 371Q143 298 142 294Q117 253
111 211Q105 206 103 193Q141 200 178 200Q262 200 331 163Q332 162 344 161T358 151H359Q361 154 365 159Q424 253 424 350Q424 423 387 471Q363 479 350 479Q336 479 322 473ZM271 132Q227 151 179 151Q92 151 93 111Q94 76 121 47T184 18Q241 18 325 110Q290
132 271 132Z" />
<glyph unicode="R" glyph-name="R" horiz-adv-x="408" d="M439 391Q436 381 407 349Q366 315 303 271Q290 263 257 243Q233 231 173 212Q168 211 147 201Q136 198 136 189Q166 170 218 118T301 48Q318 38 366 25Q380 21 404 20Q425 19 453 15Q438 0 407 -10Q334
-15 271 23Q228 49 170 110Q163 113 129 137Q105 154 85 159L83 156Q83 146 74 115Q66 88 69 76Q71 79 81 98Q88 111 106 111Q109 90 94 62T78 20Q70 5 44 -19Q10 -12 10 23Q10 38 20 75Q29 109 28 125Q39 149 36 165H-36Q-37 174 -47 180T-58 192Q-58 197 -55
204Q-21 225 48 223L52 226Q53 236 61 263Q68 286 67 300L79 321Q102 391 138 533Q123 538 123 558Q121 568 132 575Q141 579 150 584Q159 575 181 570Q193 567 212 555Q245 551 310 535Q391 503 405 494Q453 463 454 405L439 391ZM261 494Q255 492 249 492Q240
492 224 497T201 503Q194 503 188 500Q185 489 176 467T168 428H163Q158 407 139 354Q122 306 120 278Q119 273 110 257T101 232Q139 238 213 274Q278 306 319 334Q332 343 391 402Q399 418 399 430Q399 439 394 445Q345 472 261 494Z" />
<glyph unicode="S" glyph-name="S" horiz-adv-x="342" d="M346 556Q340 545 317 528L314 539Q309 531 304 531Q300 531 292 542L290 543Q286 544 281 544Q271 544 255 536T230 527Q191 498 178 485Q152 460 141 430Q131 428 119 403Q116 389 116 377Q116 335 160
305Q181 291 239 256Q282 213 285 210Q311 179 311 154Q311 135 299 115Q269 76 215 45Q185 27 115 -3Q104 -2 94 -10Q65 -13 41 -13Q-12 -13 -40 2L-44 20Q-35 24 -28 24Q-23 24 -13 21T5 18Q118 13 243 116Q271 139 266 168Q260 188 211 229Q146 269 114 300Q70
323 70 379Q70 392 73 406Q93 465 138 513T242 585Q264 594 293 594Q349 594 349 572Q349 570 348 565T346 556Z" />
<glyph unicode="T" glyph-name="T" horiz-adv-x="562" d="M682 616Q668 624 647 624Q630 624 581 613Q551 612 441 581Q358 558 255 533Q243 530 238 516Q230 494 228 492Q174 236 112 -4Q99 -20 85 -8Q80 -4 70 12L116 206Q143 322 155 403Q163 413 166 436T173
469Q180 504 180 498Q181 504 175 514L180 519L178 521Q145 517 116 517Q61 517 24 531Q23 533 19 542Q17 544 12 544Q11 551 2 561T-7 582Q9 596 18 596Q37 596 69 566Q101 565 126 565Q169 565 191 569Q200 578 200 595Q200 599 199 606V618Q199 647 234 649Q247
643 252 624T263 602Q268 582 295 589Q336 599 373 612Q413 616 479 632Q502 638 581 653Q589 654 616 659T656 665Q698 665 708 629Q708 618 698 614Q695 613 691 613Q686 613 682 616Z" />
<glyph unicode="U" glyph-name="U" horiz-adv-x="417" d="M284 203Q268 177 235 124Q226 116 211 93T184 60Q128 -33 58 -43Q0 -21 -6 26Q-3 135 42 281Q55 323 130 527Q135 533 143 559Q149 579 164 587Q184 589 197 579Q200 566 205 540Q190 528 177 497Q163
463 153 452Q148 429 122 367Q100 316 97 280L90 276Q46 114 46 54Q46 28 51 7Q53 2 62 2Q70 1 78 7Q130 46 212 175Q229 196 252 240T289 303Q341 401 394 583Q421 602 435 594Q448 587 448 573Q448 564 439 542T429 511Q424 490 367 313Q329 195 319 112Q333
107 333 90Q333 83 317 38Q316 35 298 20Q289 17 285 21L276 27Q274 27 265 25Q263 96 284 203Z" />
<glyph unicode="V" glyph-name="V" horiz-adv-x="422" d="M442 494L435 473Q421 444 397 381Q387 369 378 347Q375 339 362 310Q348 278 288 164L283 144Q274 143 271 131L267 123Q248 103 211 45Q178 -7 148 -29Q115 -29 101 -8Q92 6 85 40T69 89Q57 157 50 294T31
500Q33 520 50 520Q67 518 71 516Q82 512 85 501Q97 459 88 424Q93 414 94 395Q95 368 96 365Q89 352 89 339Q89 330 94 313T99 286Q99 279 97 272Q100 265 100 248T103 224Q100 109 141 29Q213 104 279 242Q293 272 332 356Q352 389 375 453Q399 524 414 552Q420
559 430 559Q437 559 446 556Q455 546 455 534Q455 521 442 494Z" />
<glyph unicode="W" glyph-name="W" horiz-adv-x="601" d="M590 468Q581 441 578 433Q569 412 559 400Q557 395 521 276Q492 182 460 106L430 35Q423 35 414 27T396 21Q377 38 341 111Q336 130 327 158Q310 213 303 285Q299 332 295 359Q289 356 284 344Q278 329
275 326Q251 260 201 149Q178 98 165 73Q143 28 123 1Q120 0 107 -5Q98 -9 92 -9Q88 -9 83 -8Q44 55 44 103Q44 113 45 122Q41 146 39 274Q37 368 18 422Q16 424 16 431Q16 437 17 446Q23 447 35 454Q47 461 56 454Q61 448 63 428T71 401T76 386Q76 382 75 375T74
363Q74 355 78 350Q76 335 78 313Q81 282 81 276Q81 264 79 254Q82 235 80 206Q77 167 78 157Q80 149 88 99Q94 63 104 43Q173 164 237 298Q244 320 263 361T290 423Q300 426 309 426Q334 426 336 403T344 331Q349 287 348 257Q349 255 370 168Q383 114 405 83Q409
90 456 212Q533 410 615 566Q620 567 631 564H644Q628 527 621 513Q607 485 590 468Z" />
<glyph unicode="X" glyph-name="X" horiz-adv-x="416" d="M366 -10Q362 -6 358 -4Q338 20 294 61T231 123Q216 129 198 155Q177 184 167 191Q164 199 148 211Q125 196 86 142Q61 120 -14 20Q-20 15 -35 -16Q-47 -41 -64 -41Q-86 -41 -86 -26Q-86 -21 -79 -11T-71
4Q-44 41 8 106Q24 132 43 151Q43 163 54 167Q76 195 124 250Q127 263 110 275Q34 398 43 505Q50 520 74 522Q93 519 93 500Q93 495 92 486T90 471Q90 462 95 456Q100 372 155 294L158 291Q198 328 247 387L331 488L342 494Q351 498 356 498Q371 498 371 483Q371
478 353 452Q325 419 269 346Q241 318 187 260L183 244Q230 193 317 83Q352 50 381 -5Q373 -13 366 -10Z" />
<glyph unicode="Y" glyph-name="Y" horiz-adv-x="354" d="M-49 -38V-41H-63Q-59 -22 -41 -12Q-27 -4 -26 6Q10 34 42 70Q62 94 102 141Q114 154 131 184Q140 193 152 212Q137 236 139 247Q129 259 109 316L120 320Q103 368 94 440Q87 502 81 563Q84 573 98 591Q102
592 106 592Q119 592 127 577L129 574Q130 572 132 569Q131 550 136 451Q142 323 180 256Q225 308 276 413Q284 430 320 492Q329 514 342 559Q358 567 366 567Q382 567 382 544Q382 536 364 499Q358 488 358 477Q349 473 349 466Q347 456 342 451H341Q331 429 272
320Q258 299 229 258Q228 255 206 226Q194 210 206 198L203 186Q188 178 161 157Q133 128 80 64Q65 54 21 7Q-13 -29 -49 -38Z" />
<glyph unicode="Z" glyph-name="Z" horiz-adv-x="539" d="M462 315Q340 225 128 97Q112 88 79 69Q53 54 37 32Q43 29 58 30Q97 33 186 50Q241 61 350 82Q438 98 517 95Q529 95 529 82Q529 72 523 62L458 54Q374 44 297 30Q290 24 274 24T252 19Q246 18 146 -5Q81
-20 40 -20Q-2 -20 -32 7Q-34 33 -13 52Q7 67 27 83Q111 132 278 234Q312 255 331 268Q405 319 424 334Q475 373 506 412Q477 424 407 423Q308 422 227 406Q218 400 188 398Q162 397 152 386Q124 386 -5 375Q-13 379 -13 390Q-13 399 -7 412L10 428Q85 428 202
446Q353 469 391 471Q526 478 556 428Q549 392 518 364Q500 348 462 315Z" />
<glyph unicode="[" glyph-name="bracketleft" horiz-adv-x="285" d="M403 700Q404 698 415 689Q423 683 423 677Q423 669 415 661Q412 662 407 662H401Q396 662 381 660L340 654Q288 647 278 647H272Q262 648 256 640Q242 598 176 382Q168 373 164 354Q158 324
149 302Q146 294 145 292L87 67Q80 43 67 -7Q63 -25 53 -62Q49 -75 49 -89Q49 -92 43 -118T36 -147Q42 -147 46 -150L63 -151Q85 -152 131 -155Q147 -156 150 -156Q156 -150 165 -150L171 -149Q176 -149 179 -147Q187 -154 189 -162Q190 -168 184 -174T172 -187Q163
-189 144 -193Q122 -194 77 -196Q67 -196 62 -196Q51 -200 23 -201Q9 -201 -1 -188Q-12 -179 -9 -157Q-4 -136 3 -93Q4 -83 2 -81Q24 16 43 92L53 132Q62 170 66 174Q72 185 73 206Q73 203 86 242Q94 266 109 315Q113 331 116 341Q116 346 115 348Q127 388 150
469Q165 511 191 596Q193 608 198 629L211 683Q233 697 257 694Q266 693 283 694Q290 695 328 698Q356 701 374 701H389Q396 701 403 700Z" />
<glyph unicode="\" glyph-name="backslash" horiz-adv-x="694" d="M192 -54Q200 -51 207 -51Q220 -51 242 -62H186Q182 -64 175 -64Q175 -64 146 -57Q129 -53 117 -54Q66 -32 50 8Q34 36 34 77Q34 98 39 119Q42 133 53 157Q61 168 71 189Q103 231 148 261Q154
265 170 276Q192 290 255 315Q263 315 279 323T306 331Q309 333 339 341Q345 347 359 349H363Q369 349 373 354Q379 354 393 357T414 360Q432 364 469 368Q479 372 499 372T528 376Q669 376 672 300Q673 271 652 240Q623 198 620 187Q589 148 550 127Q548 126 531
112Q526 113 524 111L521 107Q488 85 429 59Q357 27 335 14Q328 14 315 8T296 0Q288 -1 266 -11Q248 -19 236 -19Q221 -26 197 -26H157Q110 -9 106 43Q103 79 116 145Q120 147 124 161Q124 164 128 170Q145 196 185 242Q193 249 214 268Q204 262 177 248Q161 235
127 210V209Q127 206 125 204L105 183Q87 165 86 163V153Q86 145 77 139Q74 140 72 135L71 133Q72 127 64 116Q62 88 62 78Q62 85 63 60Q63 60 63 41Q77 7 91 -5Q95 -10 138 -34Q144 -35 156 -37T174 -41L179 -46Q181 -44 185 -44Q188 -44 192 -45Q193 -50 192
-54ZM640 279Q643 290 643 298Q643 331 587 338Q563 346 533 344H527Q529 343 532 342Q618 333 640 279ZM453 318Q476 306 472 275Q470 273 469 273L467 272Q464 269 457 269Q449 283 415 293Q388 292 290 266Q287 262 278 257L275 256Q273 255 269 250Q224 232
190 191T144 102Q144 98 143 89T142 76Q142 63 149 56Q164 45 193 49Q225 53 305 75L307 77Q316 82 320 81Q344 89 389 109Q394 108 417 119Q423 124 441 130T465 142Q542 175 605 234Q617 245 614 254Q614 310 453 318ZM332 50L321 46Q300 41 259 24Q251 22 210
15Q182 10 149 18Q154 15 157 10Q170 6 185 6Q213 6 255 21L322 45L332 50Z" />
<glyph unicode="]" glyph-name="bracketright" horiz-adv-x="320" d="M-92 -191Q-92 -191 -103 -181Q-111 -174 -110 -168Q-110 -160 -102 -152Q-100 -153 -95 -153H-90Q-93 -153 -33 -147T24 -141L30 -142Q39 -144 45 -135Q57 -98 80 -25L126 121Q134 131 138
148T153 201Q156 208 157 210L217 433Q219 440 238 507Q242 525 252 562Q256 574 256 588Q256 587 264 617Q270 643 270 646Q264 646 261 649Q257 649 182 657Q167 658 164 658Q160 652 151 652H145Q140 652 138 650Q130 657 128 665Q128 667 145 690Q154 691 171
695Q180 696 192 696H247Q257 700 283 700Q294 700 305 686Q315 676 311 655Q306 634 299 591Q298 581 299 579Q277 481 257 408Q251 384 239 339Q235 327 233 326Q227 315 226 294Q226 296 223 286L202 223Q195 202 191 187L184 161Q183 156 183 153Q172 113 146
33T107 -93Q101 -113 99 -126L85 -179Q65 -192 43 -189Q35 -188 19 -189Q4 -189 -11 -190L-42 -192Q-57 -193 -66 -193H-79Q-86 -193 -92 -191Z" />
<glyph unicode="^" glyph-name="asciicircum" horiz-adv-x="500" d="M434 335Q417 314 406 314Q393 314 389 345Q385 390 378 459Q364 600 323 689Q257 638 220 543Q214 540 209 526T198 507Q198 493 182 474Q174 462 147 435Q150 432 150 431Q150 427 138 428Q143
432 147 435Q142 439 137 443T131 458Q131 482 159 536Q201 618 236 667Q248 675 267 700T299 734Q319 746 350 733Q370 704 383 646T408 562Q409 555 409 554Q408 542 416 538L414 520Q428 421 432 371Q433 367 434 335Z" />
<glyph unicode="_" glyph-name="underscore" horiz-adv-x="365" d="M363 3Q314 4 220 -4Q109 -13 48 -28Q28 -25 12 -9Q19 10 36 12Q63 15 67 16Q147 37 303 37Q334 37 360 31L370 20Q370 12 363 3Z" />
<glyph unicode="`" glyph-name="grave" horiz-adv-x="55" d="M45 487L26 488Q28 494 28 499Q28 504 26 508Q23 519 23 524Q22 535 16 555Q14 567 9 596Q6 612 10 616Q12 617 13 618L14 619Q18 621 23 621Q26 621 30 620Q36 609 39 592Q42 579 44 564T49 519Q50
502 45 487Z" />
<glyph unicode="a" glyph-name="a" horiz-adv-x="219" d="M200 4T175 -10Q162 -11 133 6Q132 14 125 33T118 63Q110 54 107 47Q70 1 64 -5Q35 -30 2 -25Q-25 -4 -25 37Q-25 108 -11 145Q24 241 128 314H144Q167 314 167 287Q167 278 161 251Q156 238 139 217Q136
210 115 203Q120 229 131 243Q132 246 136 259Q137 261 137 265Q137 268 136 272Q141 276 141 279Q135 280 120 262Q117 260 110 253Q7 135 5 39Q9 10 23 7Q57 16 82 59Q110 84 132 149Q143 174 173 276Q177 285 195 291Q204 281 204 269Q204 262 200 250Q196 235
195 230Q155 120 155 84Q155 37 174 20Q178 21 199 33Q217 43 221 43Q222 38 222 33Q222 14 211 9Z" />
<glyph unicode="b" glyph-name="b" horiz-adv-x="264" d="M194 258Q194 268 202 268Q209 268 209 258H194ZM78 196L81 201Q82 204 82 205Q87 211 106 242Q120 265 135 276Q164 332 228 325Q266 309 268 254Q271 170 215 91Q184 33 93 -5Q69 -15 43 -15Q-12 -15
-20 42Q-4 38 12 24Q22 15 33 16Q92 20 140 59T211 155Q235 216 235 242Q235 259 229 273Q224 276 222 286Q224 287 222 287Q216 290 210 290Q200 290 188 282Q163 265 145 233Q114 192 94 156L95 155L91 144Q87 145 86 143L85 140Q82 132 78 130Q72 118 54 95Q53
92 36 77Q21 75 16 83T12 106Q12 109 13 112V117Q95 337 124 465Q132 471 141 471Q152 471 158 460Q160 448 153 424T145 390Q140 374 128 346Q123 329 110 286Q99 257 78 196Z" />
<glyph unicode="c" glyph-name="c" horiz-adv-x="216" d="M211 41Q205 35 188 21Q150 -11 100 -11Q74 -11 50 0Q11 25 11 97Q44 258 130 306Q164 300 173 271Q175 265 171 259T160 253Q157 253 153 256T144 260Q142 260 139 259Q135 255 114 236Q99 222 95 209Q84
195 70 158Q56 139 53 110V59Q63 25 95 25Q121 25 206 69L207 70Q213 76 226 72Q226 53 211 41Z" />
<glyph unicode="d" glyph-name="d" horiz-adv-x="303" d="M168 67Q143 34 119 1Q87 -35 52 -35Q37 -35 21 -29Q-3 -8 -3 27Q-3 50 4 78Q8 108 33 193Q38 211 59 245L84 286Q103 316 130 316Q146 316 173 282Q174 274 180 266Q188 314 215 406Q215 413 233 462Q239
473 250 473Q268 473 275 455Q278 368 248 254Q240 225 216 178Q202 151 202 116Q202 80 216 51Q226 39 238 39Q244 39 250 43Q264 48 279 64Q290 77 302 91Q309 99 330 110Q332 101 332 94Q330 87 318 58Q288 27 282 22Q259 3 237 3Q227 3 216 7Q185 25 168 67ZM167
188Q165 196 172 226Q157 231 146 248L141 256Q136 265 129 269Q99 236 71 176L70 166Q58 152 46 96Q39 40 39 31Q39 18 42 6Q43 1 55 1Q110 27 160 124Q159 133 166 169Q167 174 167 188Z" />
<glyph unicode="e" glyph-name="e" horiz-adv-x="234" d="M224 50L221 47Q216 44 217 37Q137 -23 89 -27Q62 -28 36 -17Q14 -5 6 15Q-1 31 -4 68Q27 226 146 315Q150 316 169 319Q185 322 195 313T206 288Q204 275 203 263Q186 205 87 129Q81 124 54 119Q38 116
39 101Q26 79 28 60Q28 52 36 30Q53 6 91 6L95 9Q111 9 139 20Q167 37 228 68Q229 64 229 61Q229 55 224 50ZM166 268Q163 271 159 274Q106 241 67 164Q72 164 78 168Q103 191 128 214Q157 245 166 268Z" />
<glyph unicode="f" glyph-name="f" horiz-adv-x="173" d="M217 532Q220 525 225 519Q227 514 223 502Q220 502 219 501V492Q213 489 211 483V478Q209 463 198 458Q186 454 177 466L175 469Q174 471 169 474Q178 502 191 556L189 566Q187 565 176 549Q177 531 165
530Q120 432 91 352L89 340Q99 339 117 344T142 349Q158 350 174 340V335Q175 333 175 332L176 328Q177 326 177 320Q141 315 73 292Q55 220 31 127Q19 85 7 44Q-12 -24 -12 -36Q-18 -45 -17 -62Q-7 -68 -6 -79Q-6 -83 -10 -102Q-12 -103 -16 -112T-29 -125Q-47
-121 -59 -90Q-60 -75 -55 -44Q-53 -35 -34 33Q-17 98 -16 102T-1 161T15 223Q16 234 21 238Q27 269 30 284Q26 285 16 283T3 280Q-12 279 -16 297L-17 318Q-10 322 0 322T31 324T50 347Q54 356 93 463Q119 535 142 577Q161 596 178 611Q187 620 198 620Q213 621
225 602Q229 586 229 572Q229 548 217 532Z" />
<glyph unicode="g" glyph-name="g" horiz-adv-x="213" d="M143 308Q182 313 194 290Q201 275 201 233V185Q194 179 192 170Q187 159 180 139L177 131Q177 129 175 123Q154 78 144 31Q134 13 131 -13Q125 -16 125 -26T122 -39Q87 -166 76 -195Q19 -348 -56 -348Q-64
-348 -72 -345L-95 -322Q-42 -326 -25 -291Q-4 -272 9 -245Q65 -129 87 -9Q65 -21 30 -10Q-15 18 -23 53Q-30 83 -30 105Q-30 128 -23 146Q15 241 59 278Q82 292 111 300Q127 304 143 308ZM163 262L161 264Q161 270 157 270Q154 269 109 252Q76 240 74 231Q52 217
25 157Q11 127 11 102Q11 86 17 64Q22 46 51 21Q72 15 95 47Q115 75 123 112Q125 134 142 166Q148 177 156 191Q156 196 143 202Q163 211 163 228V262Z" />
<glyph unicode="h" glyph-name="h" horiz-adv-x="273" d="M15 88L111 210Q168 281 225 315Q239 323 261 315Q270 308 274 294Q278 277 281 273Q275 258 272 233Q268 201 266 192Q243 96 240 83Q227 21 223 -27Q192 -5 192 28Q192 40 195 59Q199 83 200 90Q202
111 222 181Q238 237 235 272Q228 275 204 253Q162 215 115 152L34 43Q25 36 14 20Q1 1 -5 -5Q-20 -12 -28 -9Q-37 8 -37 27Q-37 44 -27 75T-16 121Q20 228 92 448Q90 461 102 474Q101 485 108 494T127 504Q137 504 146 492Q149 460 133 429Q108 380 101 346Q97
346 98 340Q74 275 52 208Q42 175 15 88Z" />
<glyph unicode="i" glyph-name="i" horiz-adv-x="152" d="M129 395L126 393Q124 391 122 383Q74 379 71 406Q71 422 82 426Q86 427 106 426Q111 426 119 429Q127 426 136 411Q137 403 129 395ZM113 41Q104 26 83 -2Q44 -26 26 -25Q8 -24 -14 5Q-16 23 -16 41Q-16
146 15 248Q20 264 42 314Q48 321 58 321Q68 321 77 314T86 298Q86 293 83 289Q65 260 49 213L27 109Q20 76 24 26Q26 20 34 10Q38 9 46 16T57 25Q69 33 90 56T127 86L150 113Q132 53 113 41Z" />
<glyph unicode="j" glyph-name="j" horiz-adv-x="165" d="M164 503Q150 488 146 465Q143 471 129 482Q118 486 118 498Q119 500 119 519Q119 532 130 538Q144 545 159 530L163 526Q166 522 173 517Q170 509 164 503ZM86 324L88 327Q105 328 119 314Q122 304 119
282Q117 268 132 249Q121 250 118 250Q114 249 115 244Q99 137 66 11Q42 -79 18 -168Q20 -177 15 -187Q10 -201 9 -205Q9 -212 4 -227T0 -250Q-8 -267 -17 -285T-39 -315Q-59 -311 -57 -294L-38 -240Q-11 -143 33 48Q47 124 61 199T76 315Q72 325 85 325H86V324Z"
/>
<glyph unicode="k" glyph-name="k" horiz-adv-x="255" d="M99 155Q101 155 103 155Q105 141 98 137L96 136Q95 101 129 64Q146 51 183 32Q190 16 225 -1Q232 -1 234 -2L237 -3H243Q244 -15 227 -24Q113 3 65 91Q64 98 60 112Q52 82 35 23Q31 18 31 9Q31 5 32 -3T33
-17Q33 -41 3 -42Q-6 -28 -6 -11Q-6 0 1 32Q22 109 74 299Q119 463 136 549Q143 554 153 554Q170 554 172 539Q172 526 157 485Q158 476 151 460T144 436T139 410T133 384Q133 379 134 373Q128 366 124 350Q118 328 116 324Q114 308 104 277T91 228Q112 241 146
274Q155 272 158 278Q164 292 177 286Q227 297 224 297Q232 297 240 295Q248 287 248 278Q248 274 246 269Q156 252 110 187L99 155Z" />
<glyph unicode="l" glyph-name="l" horiz-adv-x="145" d="M177 544Q166 532 169 521Q155 504 146 467Q136 426 127 411Q120 389 105 339Q108 332 102 326Q101 322 81 251Q68 208 65 176Q59 168 58 149T50 122Q40 60 44 43Q41 32 49 11Q59 12 71 22Q87 35 91 37Q102
43 121 41Q103 8 76 -16Q70 -16 61 -20T47 -24Q41 -24 33 -19Q13 -1 11 2Q3 16 3 46Q3 60 4 79Q6 83 11 112Q23 182 34 230Q55 328 86 436Q94 465 110 500Q129 544 130 546Q134 558 149 578Q158 589 169 589Q179 589 189 577Q192 561 177 544Z" />
<glyph unicode="m" glyph-name="m" horiz-adv-x="526" d="M73 295Q85 277 85 247Q85 213 67 174Q67 161 61 133T56 89Q87 127 152 202Q205 264 259 300Q288 289 288 251Q288 244 286 220Q284 201 285 190Q273 150 253 66Q254 65 256 66Q284 92 323 151T386 231Q431
272 439 279Q451 288 484 307Q500 307 506 290Q509 253 493 205Q468 135 466 123Q445 13 447 -26H448Q452 -26 461 -30Q459 -43 450 -49Q449 -49 429 -57Q405 -36 405 5Q405 17 407 39T409 74Q416 109 434 165Q456 232 462 255H460Q457 253 453 246T447 239Q429
226 416 209Q389 175 375 160Q346 123 292 57Q266 25 257 18Q225 -10 209 -7Q207 0 209 12Q212 29 212 33Q212 47 219 98Q222 114 236 160Q240 171 241 184Q241 192 240 205T239 222Q239 231 238 239Q218 227 190 189Q159 148 143 135Q123 106 80 65Q42 30 27 0Q26
2 20 -4T12 -10Q10 -9 7 -9Q0 -10 -3 -10Q-11 -10 -18 -5Q-13 42 12 119Q39 203 42 243Q40 268 31 291Q48 306 73 295Z" />
<glyph unicode="n" glyph-name="n" horiz-adv-x="293" d="M260 190Q253 157 247 125Q239 84 239 60Q239 16 262 -17Q252 -20 244 -20Q230 -20 219 -11Q200 22 200 68Q200 97 209 141L223 211L222 213Q184 184 136 112Q85 36 55 8Q41 2 30 2Q24 2 18 4Q1 17 9 48Q20
91 40 162Q58 228 64 278Q71 287 81 287Q91 287 99 276T106 255L63 78Q67 89 83 106Q134 177 149 195Q189 242 232 269Q265 269 265 234Q265 227 263 212T260 190Z" />
<glyph unicode="o" glyph-name="o" horiz-adv-x="246" d="M214 98Q206 94 201 82Q194 65 192 63Q180 47 148 18Q118 -25 60 -31Q44 -32 28 -29Q-11 -10 -22 45Q-19 77 -5 114Q4 136 21 179Q29 188 42 211Q55 231 69 239Q82 261 110 267Q120 265 143 287Q142 291
148 299Q159 300 168 300Q183 300 192 297Q233 268 233 200Q233 183 231 165T214 98ZM194 263T177 271L133 255L143 243Q144 232 145 211Q145 193 134 182Q129 179 124 178Q110 177 106 211Q97 207 83 190Q66 170 59 165Q31 105 29 95Q20 69 20 45Q20 33 22 21Q29
11 52 9Q166 42 203 191Q200 219 197 241Z" />
<glyph unicode="p" glyph-name="p" horiz-adv-x="326" d="M82 25Q197 68 264 167Q265 172 273 188T281 214Q281 248 236 261Q207 266 179 270Q174 267 130 252Q100 241 88 225Q86 220 69 203Q68 201 56 183Q48 233 49 242Q86 297 170 316Q241 319 298 280Q328
238 328 209Q328 192 319 176Q311 176 310 169T307 156T297 147Q262 101 210 58Q151 11 103 -3Q83 -9 77 -13Q65 -21 67 -39Q58 -82 35 -168Q29 -174 26 -200Q13 -249 -22 -354Q-24 -353 -42 -353Q-52 -354 -56 -342Q-57 -324 -45 -293T-33 -245Q-33 -239 -34 -233Q-25
-220 -18 -190Q-10 -156 -4 -145Q4 -118 20 -64Q32 -20 29 21Q39 25 43 39Q45 50 48 62Q47 79 54 101Q62 128 63 137Q63 139 66 172Q68 194 80 201Q90 207 111 195Q115 193 123 191Q120 183 112 147Q107 117 98 107Q98 86 85 48Q86 42 82 25Z" />
<glyph unicode="q" glyph-name="q" horiz-adv-x="282" d="M215 58Q189 30 181 19Q164 -4 158 -26Q139 -62 117 -134Q147 -137 172 -140L190 -142Q199 -143 197 -158Q166 -173 105 -173Q82 -224 61 -341Q60 -345 57 -361T34 -374Q31 -358 31 -342Q31 -314 40 -277L56
-211Q61 -202 65 -173Q45 -175 15 -175Q-15 -175 -55 -173Q-67 -160 -67 -150Q-67 -145 -63 -140Q-51 -126 -32 -129Q-13 -135 20 -135Q59 -134 72 -136L80 -133Q95 -90 124 -3Q106 -9 71 -20Q60 -22 50 -22Q13 -22 -15 6Q-28 29 -28 56Q-28 81 -17 101Q65 252
177 278L206 276Q247 273 250 210Q269 204 269 182Q254 100 215 58ZM193 233Q153 227 103 195Q64 169 23 92Q11 69 11 51Q11 34 22 23Q35 18 50 18Q85 18 153 55Q158 65 189 111Q212 144 212 201Q212 209 210 217Q212 229 193 233Z" />
<glyph unicode="r" glyph-name="r" horiz-adv-x="241" d="M83 216Q115 258 150 294T227 335Q246 337 262 329Q273 314 275 297Q275 288 267 242L253 240Q250 246 247 280Q245 299 238 305Q189 290 148 243Q129 223 111 203Q90 179 83 157Q76 156 70 131Q65 113
61 108Q52 92 34 41Q35 33 34 8Q30 -13 14 -18Q10 -11 6 -14Q1 -19 -3 -19Q-11 -19 -17 -6Q-1 52 53 263Q49 272 49 278Q49 289 63 292Q96 298 98 279Q98 277 95 268T93 243Q87 242 86 240Q86 238 87 230L84 221Q84 218 83 216Z" />
<glyph unicode="s" glyph-name="s" horiz-adv-x="223" d="M43 170Q48 169 47 169Q46 168 45 168L56 165Q55 160 61 158Q62 158 65 156Q67 157 70 157H77Q82 148 103 141T131 127Q175 105 182 74Q182 53 162 29Q158 29 155 24T150 17Q91 -23 43 -20Q13 -18 -10
-1Q-18 31 -18 25Q-18 35 -5 44Q-2 38 13 16Q20 5 33 8Q82 20 95 26Q131 41 143 67Q140 91 77 117Q57 125 27 140Q2 157 3 186Q13 200 36 218Q66 240 73 247Q87 257 117 270Q131 278 186 299Q204 295 205 295Q216 291 217 281Q217 273 204 266Q197 264 184 258T163
249Q160 249 118 229Q69 205 47 180Q47 178 42 170H43Z" />
<glyph unicode="t" glyph-name="t" horiz-adv-x="252" d="M174 302Q195 299 216 297Q240 292 255 278L256 259Q240 258 199 261Q174 263 156 257Q91 132 94 48Q94 36 97 26T118 15Q128 15 142 19Q153 20 177 35T224 51Q206 -3 132 -22Q123 -24 116 -24Q89 -24
74 -7Q56 22 55 62Q53 117 83 193Q93 211 106 250Q71 249 46 217Q28 216 18 249Q20 260 42 273Q57 286 82 291Q104 294 126 298Q173 390 191 472Q198 482 206 482Q219 483 231 463Q228 394 177 304Q175 303 174 302Z" />
<glyph unicode="u" glyph-name="u" horiz-adv-x="312" d="M295 50Q282 39 264 21Q238 6 220 6Q193 6 183 41Q181 44 179 54Q175 70 171 70Q170 70 112 7Q75 -26 17 -34Q-11 -2 -11 41Q-11 60 -5 91Q1 127 2 141Q17 216 58 287Q69 289 82 280Q85 272 85 266Q85
258 77 244Q67 226 66 222Q50 175 28 92Q26 67 26 49Q26 20 31 8Q57 12 72 22Q73 23 105 48Q112 62 155 117Q187 158 192 191Q219 256 244 295Q261 306 267 289Q270 280 270 272Q270 257 259 234Q247 208 245 197Q217 161 211 92Q212 87 214 65Q216 48 225 45Q239
48 250 55Q267 67 271 69Q283 81 306 101L318 93Q312 64 295 50Z" />
<glyph unicode="v" glyph-name="v" horiz-adv-x="305" d="M324 296L343 292Q337 277 327 271Q308 257 288 243Q278 236 240 235L231 238Q225 240 222 240Q220 225 215 192Q161 43 84 -23Q66 -38 36 -31Q-2 -7 -2 54Q-2 69 0 89Q14 159 25 191Q26 213 37 241Q53
282 55 289Q64 294 72 294Q84 294 93 283Q92 259 80 231Q62 190 60 183Q59 171 46 121Q37 85 37 60Q37 19 52 5Q64 9 77 24Q96 46 99 49Q146 120 161 151Q189 211 189 265Q189 280 187 295Q195 301 202 301Q209 301 220 290T236 277Q250 273 263 273Q280 273 297
283Q320 295 324 296Z" />
<glyph unicode="w" glyph-name="w" horiz-adv-x="485" d="M534 327Q527 315 518 298Q495 271 432 165Q382 81 331 47Q319 43 308 43Q290 43 272 52Q261 68 241 96Q240 108 230 148Q222 180 223 201Q210 178 179 134Q174 118 157 92T135 54Q119 32 80 -8H51Q28
-8 28 15Q27 77 39 168Q47 234 57 314Q58 325 72 325Q88 325 94 317Q105 302 105 284Q105 273 100 250T94 216T86 182Q80 167 93 152Q81 150 81 148V145Q81 135 78 119Q74 97 73 92Q70 65 73 49Q89 59 106 87Q125 119 135 128Q159 178 237 300Q248 308 262 308Q267
308 273 307Q288 300 288 287Q288 283 286 272T284 254Q279 246 278 227T272 201Q275 139 276 134Q283 95 309 79Q318 78 329 99Q350 124 426 235Q483 318 530 365H549Q545 345 534 327Z" />
<glyph unicode="x" glyph-name="x" horiz-adv-x="309" d="M306 203Q292 192 267 167Q252 160 234 141Q234 141 204 111Q216 86 243 59T302 -3Q270 -5 249 14Q234 25 206 51L175 84Q162 71 121 43Q109 33 86 10Q81 8 68 -5T46 -19Q36 -19 26 -8Q26 7 36 17T68 44Q71
45 71 51Q104 71 158 123Q126 200 126 234Q131 254 147 292H169Q181 289 181 277Q181 270 176 249T172 220Q170 214 170 208Q170 200 186 151Q205 165 290 245L321 238Q324 211 306 203Z" />
<glyph unicode="y" glyph-name="y" horiz-adv-x="253" d="M120 -107Q78 -186 36 -247Q22 -261 -10 -292Q-24 -305 -28 -306T-59 -311Q-7 -261 43 -164Q87 -79 107 -5Q106 1 104 8Q100 19 90 26Q50 52 27 155Q25 189 12 277Q12 274 11 296Q11 303 16 303Q27 304
37 290T49 263Q56 203 69 142Q86 62 133 40Q161 100 215 270Q236 281 239 282Q245 282 250 276L261 266Q256 239 235 195Q216 157 171 31T120 -107Z" />
<glyph unicode="z" glyph-name="z" horiz-adv-x="270" d="M42 14H44Q47 14 51 11Q74 10 132 20Q184 29 229 20Q221 12 221 6Q118 -14 32 -20Q21 -15 9 -9T-10 5Q-12 20 10 36Q69 63 150 110Q172 123 225 167Q228 172 233 181Q206 198 167 198Q143 198 78 185Q64
182 40 198Q37 204 37 209Q37 218 50 221Q52 222 57 223Q61 222 65 222Q71 222 83 225T103 228Q143 232 166 232Q236 232 269 201Q274 195 274 186Q274 177 268 164L263 160L262 158Q259 154 251 147Q250 142 245 139L235 135Q234 133 233 129Q223 125 203 109T169
88Q149 74 105 51Q97 43 73 31Q59 28 42 14Z" />
<glyph unicode="{" glyph-name="braceleft" horiz-adv-x="1062" d="M661 692Q653 687 649 683Q653 686 661 692ZM694 706H695Q696 705 697 705Q696 706 694 706ZM686 707Q677 706 661 692Q665 695 672 700T686 707ZM687 707T687 707T688 707T692 707H693Q691 707
689 707ZM615 645L609 638L605 631L615 645ZM573 610Q573 608 575 602T578 593L575 590L578 593Q577 591 576 590Q579 590 578 594L588 608Q584 602 578 594Q575 600 573 610ZM605 631L588 608Q597 619 605 629Q603 627 601 625L605 631ZM614 640Q610 635 605 629Q608
633 614 640ZM616 643Q615 641 614 640L616 643ZM526 757Q525 757 524 757L526 754Q532 757 526 757ZM545 679Q540 677 546 676L545 679ZM696 695L697 694Q710 687 708 661Q709 673 707 680T697 695H696ZM581 585V584L582 585H581ZM687 699Q689 699 689 699T687
699ZM692 699H691H692ZM693 707H692Q691 705 688 700L690 699L696 695Q695 698 694 699Q696 701 695 706H694Q694 707 693 707ZM708 661Q707 655 706 644Q708 652 708 661ZM552 669L550 674H551Q554 674 554 672Q555 670 552 669ZM521 756Q521 755 523 753H522H523V752Q522
749 520 745Q497 702 489 683Q491 685 499 701Q501 707 514 728Q524 745 524 751Q532 736 542 702L549 675Q547 675 546 676L547 670Q550 649 562 608Q564 606 565 597T581 585Q578 588 575 590Q564 601 561 616Q557 638 553 645Q555 649 552 658Q548 671 548 673L549
674V673L551 667V666Q561 669 561 671Q561 673 550 675V676Q546 700 533 741Q532 743 526 754L523 753Q522 755 521 756ZM687 699Q657 691 598 604Q595 602 582 585L584 584L599 606L631 650Q660 690 687 699ZM829 600Q776 599 716 571L735 577Q753 582 754 585Q751
584 739 580Q784 596 813 597H814Q816 597 829 600ZM843 601Q842 601 842 600Q842 600 840 600Q844 599 845 595T847 586Q847 581 842 573Q834 562 834 561Q835 561 844 574Q850 578 848 590Q846 601 843 601ZM835 601Q833 601 829 600Q831 600 834 600T840 600Q838
601 835 601ZM834 561L833 560Q828 552 819 535L820 536Q821 540 834 561ZM319 784Q313 761 287 694Q299 718 313 761Q315 769 319 784ZM1052 364L1040 369Q1016 380 1002 385Q971 396 928 407L929 411Q934 429 939 443Q949 471 949 468Q960 486 960 505Q961 504
961 516Q961 525 943 535Q936 536 924 537Q911 537 896 534T857 525Q849 523 840 520Q836 519 831 507Q838 516 853 516Q870 515 872 516Q887 517 916 519Q925 518 934 517Q940 516 940 510Q940 500 926 464Q908 420 906 414L902 401Q901 398 907 388L914 386Q953
379 1002 359Q1014 354 1034 345Q1035 345 1037 344V340Q1037 340 1038 341Q1043 327 1043 327Q1040 329 1040 328Q1036 330 1036 335L1037 336L1030 330Q1018 320 989 302Q1000 308 1002 309Q1002 308 919 255Q921 239 928 231T937 220Q963 185 975 165T1007 104Q994
110 972 125Q936 146 904 150Q902 150 896 150L891 149Q885 139 879 128Q879 129 881 132V131Q889 96 908 26Q908 20 915 -9Q908 -6 890 2Q853 10 831 6Q829 8 809 -1L807 -3Q807 -4 803 -18L805 -27Q806 -36 810 -54T822 -110Q822 -112 822 -119Q820 -118 815
-117L804 -113Q806 -113 797 -110Q798 -111 790 -107Q778 -97 761 -96L744 -91Q743 -91 743 -91T743 -91Q742 -90 737 -90L735 -91L726 -93Q714 -96 709 -100Q701 -106 694 -121Q692 -141 691 -175H689L686 -171Q687 -172 685 -169L686 -170Q685 -168 681 -162Q673
-152 649 -118L633 -96L617 -76Q611 -75 599 -73L597 -74L595 -75Q570 -101 536 -157Q538 -160 538 -160Q536 -160 526 -146T518 -126Q514 -106 502 -63Q501 -58 499 -52T475 -38Q470 -38 450 -44Q445 -47 433 -51Q428 -55 413 -63T377 -85L369 -91Q368 -91 366
-93L363 -94Q357 -93 350 -101Q348 -103 347 -104Q350 -102 353 -102Q348 -104 341 -107Q325 -120 312 -128Q321 -102 340 -64L359 -27Q364 -17 368 -9L369 -6Q370 -4 371 3V4L350 18Q353 16 348 19L335 15Q284 -5 260 -10Q246 -14 222 -18Q221 -18 214 -19Q219
-13 226 -4Q229 -4 242 22Q242 24 247 27Q260 44 281 81L285 91Q285 91 285 91T286 91Q286 92 287 98V99Q278 109 269 118Q270 118 272 115L265 116Q229 120 182 121Q168 121 142 123L136 124Q148 131 185 160Q185 160 185 159Q185 163 186 183L185 184L181 187Q181
187 179 189Q172 194 166 197L147 207Q126 217 109 225Q71 243 30 253Q35 255 60 263Q106 278 143 288L160 293L168 312Q169 314 170 316Q170 315 169 315L167 320Q137 368 96 408Q83 417 62 435L102 441Q128 442 181 447Q193 470 193 492Q193 508 185 533T175
571Q170 590 160 624Q157 632 153 645Q170 632 204 611L231 591Q235 588 246 582L249 580H250H249L248 581L234 590L208 608Q189 622 153 646V648H152Q154 647 156 646L227 599Q231 596 240 590L248 585Q250 585 250 585T249 583Q250 583 251 583Q255 584 264 589L265
593Q269 605 274 625Q284 653 288 678Q288 677 287 676Q286 676 286 676Q287 678 289 683Q290 684 290 687H291H292Q292 687 313 738Q317 747 323 763Q329 791 333 791Q335 791 343 772T365 712Q370 685 383 633Q387 617 397 585L404 570Q410 568 414 568Q420 568
421 573T425 579Q446 615 487 688L517 747Q519 749 520 751T524 756Q527 758 529 754V755Q528 759 526 758L527 760Q520 767 517 755Q476 676 426 595Q419 577 413 577Q407 577 402 596Q397 612 393 627Q387 656 372 712Q369 719 363 737L356 763Q352 771 347 787Q342
796 337 795Q340 798 336 800Q332 802 328 800L326 799L328 798L326 799L324 798Q324 795 321 788Q313 764 297 717Q303 733 313 762L320 789Q320 786 321 788Q322 789 324 798L322 796L323 798L322 796Q321 794 321 792Q313 764 285 689Q281 689 279 681Q276 670
276 669Q269 642 255 600Q255 598 254 593L248 597L251 595L245 599Q220 615 174 650Q156 662 148 662Q139 662 137 651Q141 637 149 609L174 518Q172 524 158 587Q167 556 179 498Q177 503 174 515Q176 494 180 461Q157 461 110 458Q93 457 76 455Q55 453 40 445Q41
426 59 414Q82 398 85 393Q100 376 129 340Q135 331 148 313Q149 312 149 310H147L130 305Q75 291 64 287Q27 275 0 257Q-2 242 10 238Q19 236 30 234T60 224Q86 215 123 196L154 181Q158 179 167 172L163 169Q147 156 104 129Q102 125 102 121Q102 106 130 104Q166
102 237 97Q248 95 264 95Q257 81 249 68Q248 65 241 57T234 45Q234 42 237 39Q224 41 223 35T221 22Q221 21 211 12L186 -18Q185 -22 185 -26Q185 -37 199 -42Q212 -46 220 -41Q237 -40 297 -23Q318 -17 334 -11L343 -7Q324 -41 292 -111L284 -135Q284 -137 285
-141L287 -144L295 -154Q318 -155 337 -141Q368 -118 369 -118T399 -99L407 -94Q408 -94 408 -93Q415 -91 418 -86Q423 -84 432 -80Q436 -77 445 -73T462 -65L475 -63Q480 -71 479 -72Q484 -95 497 -143Q503 -155 520 -178Q527 -184 534 -183Q548 -181 547 -181Q550
-178 556 -167Q560 -164 561 -160Q576 -142 604 -101Q604 -102 605 -101L610 -107L631 -136Q646 -155 675 -196Q682 -200 690 -200Q699 -200 698 -200H704Q711 -194 717 -187Q717 -188 715 -189L716 -178L719 -125Q723 -123 725 -120Q741 -115 751 -119Q770 -124
780 -129T818 -145Q821 -144 824 -145T830 -147Q835 -147 848 -134L849 -115Q848 -105 842 -77L834 -43Q833 -37 832 -25L831 -21Q863 -17 888 -26L903 -32Q912 -41 920 -41Q921 -41 930 -36H933L944 -25Q942 -27 945 -24V-16Q943 -9 940 5Q930 39 913 110L910
123Q933 120 962 102Q975 98 988 94T1005 81H1007H1010Q1023 80 1029 91Q1032 111 1029 115Q1026 121 1025 122Q995 186 947 245L978 264Q1001 279 1048 312Q1049 312 1056 321Q1057 319 1056 322Q1058 324 1060 328L1061 335Q1061 336 1062 340V349Q1061 350 1062
350T1052 364Z" />
<glyph unicode="|" glyph-name="bar" horiz-adv-x="166" d="M152 643Q143 623 149 605Q135 574 133 515Q131 446 125 423Q121 386 115 304Q118 298 118 293Q118 288 115 283Q115 274 107 160Q102 87 106 36Q101 27 101 10Q101 3 102 -10T104 -30Q104 -44 101 -52Q101
-78 104 -115Q105 -139 112 -179Q111 -197 126 -228Q130 -246 130 -258Q130 -282 114 -279Q69 -238 57 -130Q58 -127 57 -74Q55 47 81 457Q89 581 96 638Q98 657 112 693Q119 711 133 713Q145 715 159 699Q166 674 152 643Z" />
<glyph unicode="}" glyph-name="braceright" horiz-adv-x="509" d="M231 58L228 60Q226 62 225 64Q219 69 207 78L205 79Q202 80 200 82Q189 87 150 107Q125 120 91 154Q75 170 63 197Q61 205 57 216Q45 249 47 263Q51 289 67 315Q77 325 90 335Q122 360 162 361Q169
362 181 361Q193 358 215 353Q238 345 252 317Q252 317 253 318Q257 330 264 337Q266 340 269 342Q291 362 324 362Q356 362 385 350Q401 343 409 332Q451 295 451 231Q451 214 449 202Q439 141 347 107Q323 98 296 84Q294 83 279 72Q279 72 270 66V55Q266 52 262
52Q260 52 258 53L255 49Q254 47 251 42L247 39H248L249 40V39H248Q246 36 242 36Q237 36 235 40L234 32Q229 55 231 58ZM324 342Q300 343 285 331Q292 334 324 342ZM402 158Q433 184 433 230V234Q430 186 403 161L402 158ZM246 94Q249 90 255 84Q266 93 291 108Q318
119 350 140Q356 144 370 154Q373 157 382 167Q418 207 415 255Q415 261 409 277Q399 296 387 305H386Q364 322 338 322Q323 322 303 316Q290 307 276 296Q265 274 268 262Q270 260 270 258Q270 253 260 251L259 250Q255 249 252 250Q247 254 247 257L246 259Q244
263 244 266V268Q236 275 239 285Q237 289 222 302Q219 304 212 309Q202 311 191 315Q157 315 149 312Q126 306 110 288Q101 272 97 253Q98 249 96 240Q99 209 113 192L146 159H148Q163 151 191 133Q218 124 216 124Q227 122 249 109Q253 105 253 102Q253 98 247
94H246ZM237 309L238 308Q238 309 237 309Z" />
<glyph unicode="~" glyph-name="asciitilde" horiz-adv-x="288" d="M207 723Q216 727 218 727Q242 744 268 793Q283 820 293 820Q303 820 307 789Q298 774 283 747Q271 737 253 714T220 683Q194 685 179 710Q173 720 158 759Q153 772 142 796T114 823Q89 814 72
780Q67 770 52 721Q49 710 37 707Q25 704 25 732Q25 780 67 835Q69 835 73 837T78 844Q103 863 124 861Q151 853 171 810Q178 803 183 783T198 757V749Q198 747 196 746L198 742Q199 734 203 736L205 725L207 727V723Z" />
<glyph unicode="&#xa0;" glyph-name="nbspace" horiz-adv-x="182" />
<glyph unicode="&#xa1;" glyph-name="exclamdown" horiz-adv-x="611" d="M522 727H525Q527 729 531 726Q540 720 544 718Q550 713 551 705Q554 702 562 672Q563 627 498 576Q487 569 464 560Q457 558 445 558H438Q434 558 428 557Q425 561 416 559Q416 582 425
583Q458 580 487 599T531 651Q536 662 536 673Q536 689 523 702Q521 703 519 701L516 699Q510 696 505 697Q491 689 458 674Q452 676 441 684V691Q441 698 455 704L464 708Q474 714 482 715Q502 733 502 757Q502 807 420 857Q384 879 348 884Q346 884 344 886Q332
888 308 892Q297 894 275 890Q262 891 244 887L212 880Q203 877 179 864Q172 861 154 851Q143 847 129 834Q107 814 105 813Q103 808 98 807Q92 800 64 764Q61 758 56 748L44 721Q35 705 32 669Q27 602 85 564L117 552Q133 546 145 530Q143 525 137 525Q130 525
126 527Q119 533 103 536T79 544Q27 564 11 633Q0 679 19 726V731Q69 851 194 895Q245 913 294 913Q338 913 383 898Q386 896 389 897Q431 877 446 867Q479 846 493 826Q528 789 528 744Q527 742 524 733L522 727ZM209 298V296Q213 292 211 287V286Q219 270 221
270L218 285Q216 293 215 298H209ZM156 154Q155 150 151 146Q160 144 170 143Q181 139 185 121Q145 118 142 119L130 118Q130 121 125 143Q124 146 124 149Q124 155 127 159Q137 188 162 196Q171 199 180 186Q181 185 183 184V187Q182 191 182 197Q182 213 190
245L196 251Q190 264 182 293Q180 295 180 306Q174 326 172 353Q169 384 167 401Q161 451 151 507Q152 515 148 530T144 552Q145 554 146 555L141 554Q136 557 126 566Q111 575 106 613Q124 609 133 596L137 590Q144 579 154 579Q166 583 188 594Q200 585 209 585Q213
585 216 587Q229 587 254 579Q266 578 283 565H290Q285 544 274 546Q244 560 220 560Q213 560 198 558Q193 560 189 564L187 566Q180 562 164 559Q167 549 167 537Q172 515 178 471Q178 467 181 460T184 448Q184 444 183 441Q183 429 189 414Q190 410 190 399Q189
394 193 392Q193 380 207 304L214 309V312Q214 317 212 327Q210 350 211 354Q209 380 210 401Q210 421 212 473Q213 489 213 500Q212 513 210 547Q210 554 223 554Q231 465 230 451Q228 444 231 432L230 410Q233 406 231 398Q233 394 231 391Q231 385 233 369T234
343Q235 340 236 334Q236 325 240 309Q240 306 242 299T245 288V287L248 284Q250 283 253 278Q258 278 260 279L268 281Q265 289 266 292Q260 322 260 408V465L261 461Q261 462 262 465V478L274 477Q274 475 277 471Q279 466 277 461Q278 459 278 449Q280 444 278
429Q279 406 282 359Q286 340 290 302Q292 299 292 293V290Q292 285 302 285H308Q326 290 379 298Q385 298 399 302H402Q402 333 402 333Q399 373 390 479L383 568Q386 570 389 575T397 581Q401 581 407 575Q408 541 415 477Q417 463 421 426V418L420 417Q422 409
424 397Q424 389 426 383Q426 356 433 308Q432 299 432 292Q433 300 438 306Q439 309 454 327Q455 329 459 333L464 339Q471 348 476 350Q478 356 531 403Q542 398 542 390Q542 384 534 378Q531 376 526 370Q526 370 473 312Q473 312 463 293Q457 281 459 272Q455
263 444 266Q441 267 439 268Q439 257 428 257Q420 257 414 267L411 271Q410 273 408 273Q406 273 404 272Q398 272 387 270T369 268Q350 264 286 257Q267 255 224 240Q222 240 220 231T212 217Q210 208 210 201Q210 190 214 185Q213 182 214 178T214 170Q220 178
221 179Q227 184 236 185Q238 183 240 179Q238 179 248 172Q246 174 246 175H247Q249 173 250 171L247 163Q245 155 241 152V149H231L227 153V152L225 153Q219 153 215 162Q215 163 213 166L212 165Q212 165 215 158Q216 151 214 146L206 144H207V143L206 142Q203
140 200 140Q197 140 194 142Q188 148 187 150L185 154Q184 156 181 160L182 168L181 167Q174 156 156 154ZM514 63L512 61Q506 55 493 48Q485 44 474 36Q469 34 452 27T424 19Q381 1 306 3Q302 7 296 6H286Q237 15 213 51Q208 57 210 67Q217 72 223 72Q227 72
244 54Q251 49 264 39Q311 27 323 29Q329 26 344 28Q356 29 364 28Q414 39 458 56Q472 64 489 76T516 101Q544 142 544 172Q544 185 539 197Q539 201 536 208T532 219Q532 226 541 232Q555 232 564 248Q564 268 557 271H552Q548 271 546 270Q541 270 540 267Q536
263 528 260Q525 259 524 253Q519 252 516 248Q518 244 515 228Q495 230 489 247Q489 251 490 255Q483 243 471 255Q469 264 473 273Q480 287 480 289Q502 322 534 318L538 306Q527 303 514 286Q512 285 507 279Q510 281 513 283Q540 299 554 299Q561 299 568 296Q591
271 591 244Q588 217 561 206V203Q567 189 567 173Q567 151 554 118Q546 98 508 52L514 63ZM359 162L357 160Q348 151 343 153L339 154Q335 155 331 155V161Q330 165 330 167Q330 173 334 178Q336 179 337 179L338 180L339 182Q344 188 352 187L362 178Q363 175
363 172Q363 166 359 162ZM397 67V66Q395 63 391 56Q383 50 376 44Q372 42 367 42Q361 42 353 45Q353 49 351 53Q349 62 354 67Q360 69 370 72Q376 76 387 84Q401 78 397 67ZM188 246Q190 232 177 232Q167 232 163 241L162 243V244Q161 244 161 245Q156 254 140
269Q140 273 135 275L140 290Q155 279 181 254H188V246ZM296 100Q274 92 260 92Q254 92 250 93Q233 118 236 128Q239 139 252 135Q256 129 262 118Q270 119 284 123Q289 127 296 125Q305 124 308 124Q313 116 313 110Q313 105 311 102Q304 102 296 100Z" />
<glyph unicode="&#xa2;" glyph-name="cent" horiz-adv-x="662" d="M423 466Q515 553 636 588Q640 587 653 589Q675 592 683 576Q687 560 687 547Q687 525 676 509Q673 495 641 457Q637 451 628 441Q614 431 589 407Q568 393 522 367Q581 363 598 337Q630 308 624
267Q610 214 522 196Q481 194 449 213Q453 186 454 130L448 53Q437 7 401 -3Q391 -7 380 -7Q356 -7 336 7Q286 41 264 118Q262 133 262 150Q262 162 263 175H262Q212 157 184 157Q146 157 84 181Q72 187 44 193Q41 200 41 207Q41 216 65 245Q81 258 116 278Q122
284 145 295Q150 301 170 314Q162 317 146 329Q140 332 119 350T64 400Q58 407 58 415Q58 417 67 445Q90 470 92 473Q107 488 123 495Q136 511 156 511Q234 511 297 420L299 422Q301 423 303 425Q299 446 299 468Q299 567 409 657Q450 691 501 705Q516 701 513
685V679Q508 644 497 619Q485 572 462 541Q460 532 455 528Q445 507 423 466ZM482 374H477Q517 386 548 407Q557 413 608 454Q623 471 650 507Q651 512 657 526T663 549Q663 555 661 560Q660 562 638 566L637 565Q605 559 512 511Q470 481 448 454Q439 443 415
413Q410 412 409 409L407 405Q439 389 448 367Q472 367 481 373Q481 374 482 374ZM381 429Q388 452 412 493Q416 504 449 562Q480 632 487 675H482Q476 675 472 669Q444 662 414 635Q410 636 408 633T404 628T401 625L399 624L397 622Q393 618 389 616Q389 614
387 611Q365 591 357 579V577Q356 576 356 575L364 581Q332 551 326 520Q325 515 322 464Q323 462 327 457Q328 456 328 448T333 441Q346 444 353 444Q358 444 361 443T381 429ZM591 304Q578 334 536 339Q515 341 467 337V336Q468 331 472 320T476 300Q476 269
447 245Q471 220 509 220Q538 220 562 232Q591 246 597 271Q600 283 591 304ZM320 402Q318 401 311 394L309 390Q305 384 298 381Q290 366 273 335Q260 310 260 286Q260 245 291 239Q304 229 323 229Q333 229 399 250Q402 249 403 254Q409 268 423 267Q425 265
427 265Q431 265 435 268L438 271Q439 272 440 272Q453 283 453 300Q453 306 451 313T443 333Q440 335 431 332H427Q424 331 421 331Q412 332 399 350Q407 360 423 363Q413 376 399 381Q397 360 399 349Q375 354 375 373Q375 375 376 378V388Q375 391 374 392T360
396T341 405L340 404Q332 399 327 399Q324 399 322 400L320 402ZM280 400Q270 396 266 407Q256 435 227 458T170 482Q160 482 118 464Q92 446 84 417Q89 405 104 393L132 369Q138 367 140 362L141 359Q175 336 225 326Q232 321 236 321Q249 354 280 400ZM418 206L412
227Q352 203 316 203Q306 203 297 204Q283 148 283 143Q283 87 326 48Q334 36 359 21Q377 16 394 21Q408 25 418 60Q418 68 425 85Q431 161 418 206ZM230 290Q218 299 206 299Q194 299 180 290Q176 285 165 281T152 274Q147 266 138 266Q125 256 99 235Q91 229
83 223Q72 213 73 209Q101 197 158 181Q217 183 250 200Q256 205 266 216Q230 238 230 290Z" />
<glyph unicode="&#xa3;" glyph-name="sterling" horiz-adv-x="500" d="M407 63Q418 70 435 70Q442 70 445 66Q448 62 441 51Q397 -16 298 -16Q237 -16 167 9Q145 16 134 20Q131 20 124 23T102 27Q86 27 80 19Q67 3 49 3Q43 3 35 6Q24 15 24 31Q24 39 27 55T41
108Q44 120 64 151Q73 164 85 164Q93 164 105 149Q105 146 108 141L113 166Q136 277 152 342Q145 341 137 341Q131 341 119 343T101 345Q90 345 79 342Q59 345 43 361Q51 381 67 382Q95 384 98 386Q113 393 167 399Q167 401 180 453L192 502Q205 557 217 598Q222
619 225 625Q236 652 280 652Q333 652 362 624Q378 609 363 593Q356 586 343 592Q342 592 311 610Q288 624 280 624Q266 624 257 594Q244 548 206 386Q212 387 221 385T234 383Q266 383 291 377L301 366Q301 357 294 349Q274 350 250 349Q225 348 197 344Q186 292
177 247L162 168Q148 98 148 92Q148 78 155 62Q157 60 165 57Q194 45 223 33Q256 20 284 20Q341 20 407 63ZM102 100T104 109Q100 110 96 116L94 119Q93 122 90 123Q82 114 71 93V90Q70 89 63 67V63Q63 61 63 58T61 50Q58 41 65 41Q74 41 100 63L101 75Q101 85
102 91Q103 93 103 96Z" />
<glyph unicode="&#xa5;" glyph-name="yen" horiz-adv-x="740" d="M672 240H673Q676 233 675 231Q680 194 675 157Q667 103 648 82Q645 74 636 62Q613 43 565 5Q563 1 557 -3L555 -4L554 -5Q553 -9 553 -8Q540 -18 527 -68Q523 -79 515 -115Q509 -141 502 -164Q500
-181 474 -248Q473 -255 467 -271Q467 -276 455 -286Q443 -282 443 -274Q443 -269 447 -261T451 -250Q497 -143 497 -38Q497 -1 488 15Q480 42 466 123Q460 152 447 227Q446 230 429 273Q430 266 430 259Q430 247 427 234Q429 230 424 225L421 222Q419 220 418
220L416 218Q412 214 408 212Q368 210 353 237Q352 240 346 245Q342 255 330 273Q330 263 331 257Q331 250 329 236Q328 229 329 215Q320 187 309 177Q306 171 292 162Q288 160 284 160Q276 160 266 167L260 172Q250 183 238 233Q227 211 207 166Q204 164 200 157L197
152L194 146Q181 132 164 132Q160 132 155 133Q146 139 136 159Q135 168 136 186Q134 194 136 209L137 211L131 205Q129 203 124 196Q120 194 119 193L118 192L117 190Q113 184 108 182L78 156Q60 143 40 147Q25 160 29 199Q38 216 53 251Q68 271 92 302Q102 313
130 338Q133 343 136 344L138 345L139 346L153 357Q157 360 161 360Q168 360 174 352Q173 344 167 341L158 335Q152 330 138 320Q133 314 120 302Q119 301 113 295T106 283Q96 275 85 258Q67 231 67 231Q64 225 55 202Q54 199 49 186V168Q63 169 78 181Q95 198
112 214Q131 234 140 251T178 298Q185 299 189 292L190 291H189L191 281Q185 278 179 265Q172 248 170 246Q157 215 157 190Q157 170 165 154Q168 153 173 156Q197 187 243 304Q247 307 250 307Q256 307 260 297L263 294Q262 278 258 244Q261 227 264 209Q270 187
284 183Q298 191 307 214Q310 238 310 263Q308 272 310 289Q307 302 302 328Q308 334 313 334H317Q330 312 356 269Q362 263 371 249L381 239Q389 234 396 234Q401 234 405 237Q412 254 412 271Q412 294 400 315L391 336Q384 343 375 364Q376 365 379 368T387 371Q390
371 394 368Q420 333 426 328Q447 308 471 309Q491 307 498 315Q500 322 498 326Q492 338 471 354Q447 372 441 380L411 412Q410 415 410 418Q410 426 418 428Q443 420 475 410Q494 404 507 405Q544 409 561 429Q565 434 561 442Q554 448 547 450Q537 451 535 453Q507
453 511 454Q502 454 484 456T456 458Q459 458 462 459H466Q456 461 451 461L446 462H447H446Q434 460 432 467L428 481Q449 490 492 509Q519 522 544 556Q551 566 553 571Q551 572 544 569T535 566Q518 563 490 549Q483 546 466 536Q464 532 457 530Q447 518 433
518Q427 531 429 538Q441 546 477 578Q489 591 502 617Q475 617 430 577Q428 575 404 556Q398 551 383 537Q376 530 366 522V521Q367 521 370 520Q374 516 384 497Q384 470 363 442Q355 432 339 419H338L340 420L339 422L338 419V418Q337 417 337 416Q300 386 263
365Q254 361 234 351Q189 343 180 360Q179 361 175 371Q178 400 202 425Q208 432 247 466Q254 471 273 486Q278 490 298 500Q308 511 337 521Q339 523 339 527L377 562Q383 567 421 600Q447 623 468 633Q473 633 484 637T502 641Q507 641 512 640Q524 630 524 605Q522
600 513 588L510 584Q532 593 549 593Q563 593 573 587Q578 581 578 575Q578 577 570 553Q547 515 514 496Q510 492 484 479Q531 476 537 475Q572 469 580 451Q591 426 579 414Q541 383 506 383Q485 383 458 392L462 388Q466 385 474 376Q481 372 505 351Q520 326
520 318Q520 314 519 310Q516 303 505 292Q501 287 493 289H491Q487 288 480 288Q468 288 446 291Q446 293 442 293Q449 278 460 247Q463 223 477 171Q478 168 489 102V103Q498 135 517 170Q520 176 542 200Q553 213 588 248Q618 277 631 298Q644 313 643 318Q647
323 652 323Q656 323 660 318Q663 294 671 249H672V240ZM360 497Q358 497 356 498H352Q350 497 330 494Q317 484 305 479Q295 471 273 459Q266 453 248 438L245 435Q225 417 216 407Q201 389 198 371H203Q236 371 297 413Q351 451 360 486V497ZM640 285Q641 277
630 258Q619 246 559 186Q550 173 531 148Q530 143 523 130T515 109Q507 87 507 66V21Q511 10 518 -13L557 26Q559 28 604 67T654 167Q661 196 647 259Q646 266 641 284L640 285Z" />
<glyph unicode="&#xa7;" glyph-name="section" horiz-adv-x="441" d="M187 403Q180 405 183 411Q181 419 189 427Q192 430 191 432Q192 447 216 463Q232 443 226 419Q224 413 220 398Q264 425 348 482Q359 481 367 491Q378 482 378 473Q378 470 368 448Q336 430
286 393Q220 344 206 335Q207 325 200 316L197 310Q194 306 194 302Q194 299 196 297Q224 302 264 318L332 345Q346 350 378 358Q387 364 448 374Q441 368 432 350Q431 347 430 345Q430 329 414 321L413 322Q411 314 406 311Q397 310 389 298L385 292Q383 288 376
281H377Q390 277 390 263Q349 255 297 220Q280 212 252 190T209 159Q206 156 181 138Q168 129 176 119Q182 108 198 92Q212 90 253 112Q278 120 327 141Q341 147 377 155Q377 145 378 135Q379 130 397 117H379Q334 55 299 42Q297 34 272 18L271 17Q302 0 320 2V-15Q313
-16 306 -16Q280 -16 251 -2Q241 -9 222 -21Q211 -28 211 -36Q211 -38 212 -42T213 -48Q213 -53 205 -57L199 -63Q195 -56 177 -47Q166 -41 166 -32Q166 -27 170 -21Q171 -7 182 4L203 25Q199 29 194 35Q185 46 178 41Q167 31 142 19T106 -2V-14Q101 -21 93 -21Q88
-21 82 -19Q80 -18 72 -18Q72 -12 71 -12L70 -10Q35 -10 29 -9Q6 -5 -1 14Q3 41 27 60L70 94Q118 134 118 164Q118 172 116 181Q129 189 138 225Q120 216 84 209Q71 207 60 207Q37 207 17 222Q15 240 33 259Q50 273 66 287Q78 289 95 304Q109 317 122 326Q160 349
168 356Q192 377 187 403ZM347 312Q334 307 313 301Q308 293 295 293H290Q255 275 224 266Q218 263 186 243Q169 233 174 217Q227 243 274 272Q302 274 327 293Q337 303 347 312ZM99 254Q112 256 148 272Q158 302 158 297Q137 287 99 254ZM291 88L287 86Q278 81
267 81Q264 76 254 74L252 73Q247 65 232 57H231L233 55L234 53Q257 55 291 88ZM137 89Q126 80 124 59V55Q136 58 154 69Q144 89 137 89ZM85 46L86 47L85 46ZM59 28Q72 33 75 35T84 44Q75 40 59 28Z" />
<glyph unicode="&#xa8;" glyph-name="dieresis" horiz-adv-x="215" d="M67 600Q64 571 36 568Q21 577 21 583Q19 594 19 602Q19 630 42 630Q50 628 57 626T67 614V600ZM193 598Q191 576 169 574Q158 581 158 585Q156 594 156 600Q156 621 174 621Q180 620 186
618T193 609V598Z" />
<glyph unicode="&#xa9;" glyph-name="copyright" horiz-adv-x="685" d="M296 -64Q234 -64 186 -43Q170 -43 133 -20Q125 -16 112 -12Q112 -4 103 -1H100Q98 0 96 0Q46 32 3 96Q-3 101 -10 115T-22 133Q-42 161 -53 205L-72 281Q-79 351 -77 399L-72 406Q-79 478
-33 552L-11 559Q-8 541 -19 515T-27 476Q-40 430 -40 376Q-40 307 -18 221Q-7 207 7 169T37 115Q58 99 67 75Q177 -29 309 -29Q452 -29 601 107Q692 190 692 334Q692 452 620 544Q608 559 549 624Q409 708 274 708Q130 708 63 598Q12 535 11 453Q13 428 10 378Q14
374 14 368Q14 363 10 355L15 350Q18 320 31 243Q15 259 4 282Q-21 364 -21 439Q-21 544 32 621T184 733Q242 743 289 743Q351 743 394 729Q429 724 515 690Q530 684 591 645Q731 529 731 334Q731 272 719 231Q694 148 611 71Q464 -64 296 -64ZM434 193Q425 185
401 164Q346 118 275 118Q238 118 203 134Q147 170 147 273Q195 504 318 573Q367 565 380 523Q383 514 377 506T361 497Q356 497 350 502T338 508Q335 508 331 506L295 473Q274 454 268 434Q252 414 232 361Q212 333 208 292V218Q220 175 248 171Q256 170 268 170Q305
170 350 193Q375 206 427 233L429 234Q435 239 444 239Q449 239 456 237Q456 211 434 193Z" />
<glyph unicode="&#xaa;" glyph-name="ordfeminine" horiz-adv-x="269" d="M202 19V20L203 19L205 18Q209 14 209 11Q209 6 200 1Q198 2 156 6Q129 9 113 18Q81 27 51 53Q48 47 47 19Q46 -5 34 -18Q15 -21 7 5Q7 12 12 65Q15 100 15 123Q13 132 13 141Q13 162 31
197Q54 325 55 333Q72 416 93 464Q99 477 110 477Q126 477 140 459Q144 447 131 439Q128 436 128 434Q101 367 79 243Q91 250 114 262Q151 280 183 280Q198 280 212 276Q223 256 220 246Q211 238 190 237T163 231Q74 211 59 136Q57 107 84 79T142 43Q163 40 200
25L202 19Z" />
<glyph unicode="&#xab;" glyph-name="guillemotleft" horiz-adv-x="1543" d="M993 2H1158Q1172 2 1261 -1Q1282 -2 1337 -5Q1347 -4 1357 -7Q1371 -5 1397 -8Q1427 -12 1438 -12Q1466 -11 1476 -14Q1481 -18 1481 -25Q1481 -28 1480 -32Q1476 -34 1450 -37Q1409
-42 1414 -42Q1410 -43 1403 -44Q1402 -44 1336 -52Q1313 -55 1243 -64Q1212 -70 1131 -82Q1101 -86 1034 -94Q1027 -94 1009 -92T980 -91L979 -90Q974 -90 965 -89T950 -87Q918 -79 875 -64Q872 -63 865 -58Q851 -54 846 -42V-39L845 -38L844 -36Q842 -33 842
-30Q842 -25 847 -19Q853 -21 858 -26Q859 -22 862 -21L864 -18Q892 -6 909 -6Q915 -5 924 -3Q979 2 993 2ZM877 -34L878 -35Q878 -37 879 -39V-42Q884 -44 894 -49Q911 -54 946 -65Q959 -66 987 -70Q1029 -76 1100 -67L1106 -65Q1110 -66 1116 -65Q1125 -63 1127
-63Q1138 -63 1158 -59Q1169 -58 1187 -55T1244 -44H1250Q1260 -44 1264 -42Q1292 -38 1322 -35Q1328 -34 1363 -28Q1367 -28 1371 -27Q1352 -25 1305 -22L1142 -19Q1139 -20 1137 -19Q1105 -18 1040 -18Q1030 -18 1009 -19Q1007 -18 997 -18H992Q974 -18 892 -29Q887
-31 877 -34ZM805 -59Q802 -63 794 -68Q793 -70 786 -74Q764 -82 753 -82Q743 -87 727 -82Q698 -73 691 -49Q687 -13 733 -2Q739 0 753 4Q799 6 809 -12Q822 -37 805 -59ZM724 -60L726 -58Q727 -56 729 -54Q738 -55 740 -60L741 -63Q771 -63 780 -53Q782 -53 791
-43Q791 -41 793 -39L794 -38Q794 -22 793 -21Q788 -19 775 -14L776 -13H773L775 -14Q740 -15 714 -34Q706 -40 709 -47L714 -53Q720 -59 724 -60ZM649 -38Q651 -39 654 -40Q657 -46 657 -50Q657 -53 656 -56Q648 -63 631 -71Q629 -73 597 -84Q588 -87 555 -92Q553
-92 544 -94Q538 -95 534 -94Q509 -96 491 -93Q488 -95 486 -95Q483 -95 481 -93Q457 -93 427 -89L412 -87Q406 -86 337 -79V-78L312 -75Q296 -73 250 -66V-65L210 -58V-57Q206 -57 204 -56Q198 -55 177 -53V-51Q148 -45 89 -34Q81 -34 64 -26Q54 -25 33 -21Q25
-19 25 -14Q25 -11 28 -8Q42 -2 54 -5Q58 -5 60 -6L184 -8Q234 -6 328 -4Q339 -4 411 7Q398 4 378 -1Q418 1 446 0Q463 0 484 0Q505 0 518 -1Q520 0 537 -1Q578 -2 586 -3Q611 -6 633 -15Q646 -26 649 -38ZM632 -47Q628 -35 612 -30Q602 -28 596 -26Q519 -18 419
-20L420 -21H389Q370 -22 332 -25Q329 -25 328 -24L173 -31Q177 -30 185 -32T197 -34T202 -36Q213 -36 221 -39Q225 -40 227 -40L333 -58Q343 -60 392 -64Q408 -65 437 -69T480 -73H494Q496 -75 497 -74H500Q503 -73 504 -74Q521 -72 564 -70Q583 -69 578 -69Q598
-64 632 -47Z" />
<glyph unicode="&#xac;" glyph-name="logicalnot" horiz-adv-x="882" d="M805 363L804 364L805 363ZM805 363H804H805ZM817 345Q820 342 821 340L817 344Q840 305 840 265Q840 232 825 202L824 200Q822 194 817 189L815 186Q815 185 813 184V182Q804 163 772 143L771
141Q769 137 763 136L759 132Q754 131 747 121Q741 121 731 115T719 107Q710 104 695 95H689V94L688 93Q683 92 684 92Q680 91 672 84L667 83Q667 77 661 79Q658 76 649 72Q647 70 627 57Q625 55 616 48Q611 48 602 39Q606 38 612 35Q601 37 599 37L592 30Q594
35 596 37Q591 37 589 36L587 34Q577 29 575 29L573 28V29L570 25Q568 26 563 23T555 19Q546 13 536 13Q520 6 501 1Q487 -6 462 -8Q451 -13 434 -13Q429 -16 408 -18Q405 -19 390 -22Q394 -20 395 -20H359Q351 -21 331 -21H302Q284 -21 218 -8Q215 -9 209 -8Q201
-6 199 -6T174 3Q110 27 86 52Q61 70 40 116Q28 152 28 181Q28 204 36 220Q48 251 64 279Q65 282 69 286Q93 322 123 350Q130 359 139 365T164 384L168 385H167Q171 389 172 389Q192 400 211 412Q213 412 239 424Q245 428 250 429Q261 434 281 444Q294 448 327
460Q350 468 381 475Q390 477 406 481Q464 487 468 487Q497 487 518 475Q520 471 532 469Q537 469 539 468Q550 466 571 465Q601 459 612 459H617Q625 459 629 455Q636 455 649 450L651 451Q654 453 658 449Q669 449 679 442Q682 440 682 441Q688 441 691 439L695
437Q694 437 694 436H700Q707 435 720 426L729 423Q744 411 765 403Q767 402 775 393L776 391Q779 388 780 388L784 381Q785 382 785 384Q792 378 804 364L803 366L805 363Q809 361 811 356T819 347L817 345ZM750 146Q756 151 764 157L776 166L791 181Q801 194
818 222Q819 226 822 232Q827 248 827 266Q827 289 819 310Q820 313 818 313L817 315Q815 320 809 331Q806 334 804 341Q796 349 795 354L794 356L791 358Q790 361 785 362L783 366Q780 370 771 376Q768 381 765 382L761 385L758 388Q741 399 719 412Q700 422 683
427L684 426Q693 421 697 418H699L713 405L714 407Q717 403 722 398L727 394Q763 358 774 320Q775 318 778 310Q780 297 783 271Q783 265 778 233Q777 228 774 222T771 212Q753 171 741 159Q737 155 737 151Q728 141 709 122Q727 132 750 146ZM621 435L618 436L619
435H621ZM598 77L600 79Q603 79 609 81T619 83L657 98Q667 105 685 124Q688 125 693 128L695 130Q698 135 702 136Q733 170 749 203L748 202Q738 188 718 165Q715 165 715 163L714 161Q712 156 707 156Q703 153 693 145Q690 138 682 135L679 133L675 129L662 124Q650
114 638 109Q631 107 621 96Q617 96 613 94L611 93Q608 88 603 90Q597 88 586 80Q583 79 579 79Q575 73 569 73Q567 72 560 69H557Q546 65 528 58Q535 60 546 62L558 65Q571 69 598 77ZM481 63H478Q504 68 511 72L519 75Q523 76 525 76Q531 78 541 83Q545 82 551
86T560 90T566 92L571 95Q589 106 604 109Q607 110 634 126Q727 180 750 246Q755 260 755 277Q755 306 742 329Q735 342 717 360Q682 396 624 416Q622 417 607 422Q602 424 543 435Q539 434 534 435Q527 437 525 437H524L521 436Q516 435 513 436T502 438Q478 438
422 430Q447 435 471 439H469Q446 439 421 437Q416 437 399 432Q403 432 355 425Q343 423 308 411Q288 404 275 396H274Q261 387 234 371Q228 364 220 359Q209 350 185 324Q181 320 175 313Q156 291 132 255Q132 255 116 221Q116 217 114 212T111 203Q106 193 107
176Q105 164 110 139Q108 147 107 149V148Q114 113 146 86Q173 57 253 45L254 44Q287 39 309 40L310 39Q330 39 370 41Q379 42 397 46Q406 44 410 48Q435 51 459 57Q463 56 481 63ZM310 436H311Q319 438 359 452Q346 449 332 444Q326 444 320 439Q316 440 311 437L310
436ZM47 163Q49 175 51 189Q51 200 54 205Q54 208 57 214T60 225Q60 220 74 259Q81 270 94 292Q96 294 98 297T102 302L103 305Q68 261 57 221Q46 205 46 172V171L47 168V163ZM506 45L511 42Q511 41 510 40Q518 41 543 46H512Q511 46 506 45ZM60 141V140Q61 138
61 137V136Q67 98 83 80Q126 30 196 15Q202 14 242 6Q258 5 286 1Q291 1 313 -2Q328 -4 340 -2L341 -3H357Q363 -1 367 -1H394Q417 1 459 7Q467 11 520 24L522 25Q522 25 536 31Q542 33 546 33Q556 36 573 47Q577 46 579 47L580 49Q591 53 591 53Q596 56 602 60Q600
60 571 52Q562 50 538 43Q526 43 518 38Q509 35 505 41V40L504 42Q503 43 503 45Q498 44 498 43Q498 41 502 37Q492 35 476 31H457Q448 28 428 28Q425 25 418 27Q418 28 419 29L410 28L411 26H399Q394 26 392 24Q377 22 354 20Q287 15 221 28L203 34Q191 38 183
40Q181 41 153 56Q64 104 70 200Q70 202 71 205L66 195Q66 204 62 170Q62 160 60 141ZM186 354Q161 337 130 301Q115 283 103 251T89 194Q90 197 91 201T97 223Q109 263 147 310Q160 326 182 348Q185 350 191 356L186 354Z" />
<glyph unicode="&#xae;" glyph-name="registered" horiz-adv-x="520" d="M120 545L111 548Q102 560 100 585T93 619Q78 736 81 785Q83 809 98 895Q103 924 86 939L92 954Q105 954 120 933Q123 919 123 905Q123 888 116 853T109 798Q102 737 118 623Q123 612 125
588T131 554Q127 545 120 545ZM336 177L337 179Q353 179 364 163T382 145Q407 141 427 154Q440 167 445 191Q447 205 452 232Q449 236 451 253Q450 257 450 279Q450 294 442 305L443 307Q434 347 417 360Q405 359 382 352Q381 343 370 338Q369 336 370 333Q367
329 360 321Q374 328 385 328Q392 328 397 325Q415 326 421 306Q423 303 429 289Q433 280 431 271Q434 262 434 251Q434 218 410 191Q404 189 396 189Q378 189 348 197L347 198Q345 197 339 197L340 191Q339 186 336 177ZM321 369Q310 374 298 383Q279 396 263
395Q241 394 183 388Q182 389 181 389Q185 382 185 377Q185 372 182 369T175 365Q169 365 163 373L157 385L156 386Q142 387 118 379Q113 380 109 380Q104 380 95 377T79 373Q75 367 59 365Q54 365 53 363H55Q63 363 76 356Q122 347 155 352Q201 359 264 367Q270
371 274 370H277Q280 370 282 374Q299 376 312 363Q316 367 321 369ZM250 37L248 33Q231 16 202 15Q160 14 152 11Q141 9 135 15L133 12Q129 5 121 3Q103 9 91 26Q91 27 73 59Q44 113 37 156Q37 156 32 185Q24 231 3 352Q1 354 1 370Q6 375 13 375Q18 375 24 373L26
375Q33 390 45 391Q78 408 146 417Q150 453 162 473Q163 481 168 495Q181 517 181 546Q181 588 157 633Q157 661 171 668Q181 670 188 654Q185 646 185 638Q185 633 199 592Q205 580 205 566V564Q207 563 207 560Q208 547 200 510Q198 501 198 489Q194 489 194
484T193 476Q173 445 173 425V423Q175 423 175 419Q190 419 219 422Q223 440 222 463Q220 495 219 505Q224 552 226 559Q229 586 241 610Q256 670 247 702Q243 717 221 745Q215 749 215 757Q215 765 224 767Q242 762 254 740Q262 724 264 722Q276 679 276 649Q276
614 261 590Q246 557 246 509Q246 495 247 467Q247 439 247 425Q256 425 283 419Q302 415 334 394L335 390V391L338 389Q340 388 343 385V362Q340 362 337 363Q340 357 340 348V345L344 349Q350 355 351 364Q359 367 363 371L366 374Q382 390 410 390Q435 390 450
371Q452 362 461 345L473 286Q473 285 475 269Q476 260 475 252Q477 239 474 218Q470 192 470 184Q468 142 433 120Q416 112 398 112Q374 112 359 126Q357 130 344 144Q334 155 334 165Q334 169 335 173Q332 164 328 151Q329 144 323 130T319 106Q311 99 306 84Q300
66 296 61Q297 47 283 36L278 32Q275 28 271 28Q260 28 260 39Q268 68 294 122Q296 136 304 163L300 168Q307 172 308 182Q308 184 310 188Q325 233 322 297Q316 315 312 352Q309 346 299 343Q297 345 294 345Q290 345 285 341Q275 343 257 339T231 336Q176 321
98 324Q76 329 32 338Q31 336 32 328Q34 319 34 317Q41 293 40 287Q45 273 48 241T58 194Q66 97 119 38Q123 33 129 29Q131 36 139 41Q141 41 190 44Q221 46 235 59Q239 60 243 60Q254 60 254 47Q254 42 250 37ZM348 254L349 250V226Q385 217 385 217Q390 217 394
219Q406 223 406 260L404 262Q404 266 403 274T401 286Q398 294 390 296Q383 297 378 291Q364 291 364 284Q364 281 365 276T367 267Q367 257 359 249Q352 251 348 254Z" />
<glyph unicode="&#xaf;" glyph-name="overscore" horiz-adv-x="582" d="M135 342H73Q62 344 62 356Q68 357 94 358Q132 359 229 361Q233 362 241 362H335L337 363H345Q350 363 368 364H401H413L657 370Q661 370 673 371L773 374Q776 374 834 372T920 370H928Q932
370 934 369Q945 366 945 362Q945 360 937 356T926 351Q919 351 908 350Q893 348 889 348Q872 347 864 348Q844 348 810 347Q769 345 755 345H731H637H610Q603 345 592 344H582H367L320 343H239H204H168Q145 342 135 342ZM1045 333V318Q1044 308 1040 290Q1038
287 1035 271Q1033 260 1021 252Q1007 264 997 286Q973 341 969 377Q966 407 985 442Q988 450 998 456Q1006 451 1006 444Q1006 441 1004 437L1030 390Q1045 360 1045 339Q1046 336 1045 333ZM1891 368Q1895 368 1922 367H1952Q1964 365 1962 353Q1954 351 1944
351H1930H1874Q1829 350 1795 350H1783H1738H1718Q1702 351 1691 351H1689L1686 350H1548H1536Q1526 349 1519 349H1489Q1479 349 1438 348T1366 347H1350H1332Q1313 346 1300 346H1249Q1220 346 1103 351Q1079 352 1079 360Q1079 363 1088 366T1099 371Q1107 371
1111 372H1136L1161 373H1198Q1210 373 1234 374H1270H1295Q1331 374 1363 373L1389 372H1416Q1422 372 1432 373H1443Q1479 373 1550 371T1658 369Q1683 369 1705 370Q1720 371 1745 369Q1776 368 1786 368Q1801 370 1821 368Q1835 367 1892 369L1891 368Z" />
<glyph unicode="&#xb0;" glyph-name="degree" horiz-adv-x="146" d="M151 630Q152 629 153 626Q152 624 151 623Q150 592 138 573Q136 571 135 568L133 563Q109 533 100 524Q75 500 49 497Q44 497 33 499T12 515T3 542Q5 583 19 609Q28 644 72 676Q82 681 100
687Q108 689 114 687L119 688Q144 674 151 643Q152 637 152 632Q151 631 151 630ZM104 664L105 663L102 659Q100 662 98 662L93 660Q86 654 70 644Q29 593 29 550Q34 531 51 531Q55 531 61 532T75 534T90 544T107 564Q141 605 134 639Q132 647 128 654Q128 656
125 657T121 661L114 664Q110 665 107 665Q106 664 104 664Z" />
<glyph unicode="&#xb1;" glyph-name="plusminus" horiz-adv-x="847" d="M798 227Q798 217 783 214Q687 192 632 188Q689 86 751 23Q759 15 759 9Q759 -2 749 -4Q687 26 517 107Q514 108 508 110Q507 79 501 1Q496 -68 496 -108L495 -113L488 -123Q460 -109 434
-58Q416 -17 398 23Q390 42 371 75Q350 65 317 38Q281 9 264 0Q226 -21 156 -54Q149 -49 142 -32Q161 13 201 103Q211 121 230 157Q178 172 125 186Q65 201 18 200L11 208Q12 210 12 212Q12 207 9 226Q37 243 128 262Q165 270 240 296Q219 334 155 402Q62 504 60
506L57 507L56 518H55Q53 522 53 525Q53 532 62 535Q177 494 298 395V400Q299 412 293 440L301 444L291 452Q289 462 254 643Q255 647 258 648V649Q258 658 270 658Q281 658 340 558Q375 498 409 438Q426 466 458 512Q482 534 521 585L522 587Q521 592 532 609L533
608Q535 614 541 614Q553 614 553 605Q553 603 552 604L555 599Q553 565 529 427Q609 439 657 439Q676 439 712 435T767 430Q779 430 782 417Q780 405 769 399Q721 374 626 325Q658 302 691 279Q730 253 763 247L766 244V245L767 244H774Q798 244 798 227ZM728
233Q720 236 705 244Q682 261 634 290Q615 299 578 318L584 323Q577 329 577 335Q577 339 581 343Q622 354 720 408Q689 413 666 413Q574 413 513 393Q510 397 503 405Q496 407 496 417Q522 475 522 546Q464 489 437 434Q431 422 419 399Q416 398 414 398Q410 398
397 409Q384 453 293 586Q304 520 328 388Q331 372 331 358Q331 349 330 341Q327 342 321 344Q319 344 320 343H311L306 349V348Q305 349 303 353Q282 385 215 430Q157 468 110 488Q217 371 276 294V287Q276 278 269 276Q238 267 176 247Q170 247 157 243T137 240Q115
236 71 224Q131 212 250 185Q260 182 260 160Q238 118 215 76Q190 27 178 -11L182 -10Q183 -9 197 -4T244 21T288 53Q292 57 302 63Q312 77 339 93T381 109H385Q398 87 427 16Q453 -45 474 -74Q482 -29 478 -2Q481 5 481 69Q481 139 498 144Q555 121 697 52Q670
90 643 128Q600 190 600 197Q600 200 602 206L603 207V206Q604 213 613 213T623 219Q692 222 728 233Z" />
<glyph unicode="&#xb4;" glyph-name="acute" horiz-adv-x="169" d="M46 604Q80 648 127 654Q128 651 131 646T132 635Q130 629 123 628H122Q116 627 115 623Q85 605 76 597Q55 578 44 557Q36 554 32 563T28 580Q35 589 46 604Z" />
<glyph unicode="&#xb5;" glyph-name="mu" horiz-adv-x="778" d="M243 182Q243 183 245 186L247 191Q243 170 245 157V151Q245 147 247 139T250 127Q263 93 299 82Q312 78 343 74Q358 75 389 81L391 83H392H394Q395 83 397 85Q434 95 469 134Q500 170 515 209Q519
217 519 221Q517 256 503 283Q486 315 470 330Q470 328 467 325L463 321H461V322L457 317Q454 316 451 316Q445 316 439 322L446 329L449 331L452 334V335L451 337Q448 339 436 344L407 347H400L361 338Q350 335 322 320Q299 307 274 279Q271 276 269 272L266 269L258
253L259 258L258 257V255Q255 248 249 230Q249 229 247 223L246 220Q246 219 245 215Q241 197 243 182ZM545 262Q544 251 541 230Q541 223 539 208Q540 207 540 204Q540 203 539 200Q540 190 534 172L533 178L531 164L528 162L523 156L526 158Q509 125 485 105Q475
100 456 88Q451 83 437 76Q431 74 409 64L410 65L374 56Q368 58 363 56Q337 54 323 58Q293 67 288 67T279 72Q259 79 237 112Q236 118 231 129Q224 156 224 187Q224 225 234 247Q240 261 244 271Q259 295 290 322Q303 331 326 343Q332 346 338 350Q354 356 387
364Q392 364 420 369Q428 370 443 366T465 362Q538 336 546 260L545 262ZM183 231V233V231ZM127 311L129 312L132 315Q136 316 137 319Q144 327 151 343Q152 362 153 375Q149 366 132 341Q127 336 116 328Q109 325 105 332H107L101 336Q99 346 99 352T98 374Q98
371 97 369L96 368V365Q96 360 94 358V355Q93 353 93 352H92L93 348Q90 342 86 330V329Q83 322 78 322Q76 322 72 324L67 326Q65 328 62 338Q62 329 64 318Q72 309 85 309L93 305L95 303Q96 303 99 301Q99 272 98 267L106 149Q105 141 106 128Q108 113 108 108V96Q113
153 122 266Q120 272 120 274V276H121L120 280L119 281Q114 283 113 286T112 292Q112 296 115 300Q117 300 117 301V303L119 309Q123 311 127 311ZM175 407L177 415Q176 384 169 328Q167 320 146 297Q147 292 148 284Q146 266 140 226Q139 220 138 202L135 200L136
198Q137 193 134 189Q135 186 135 176Q134 171 134 162T133 149T131 142Q133 138 131 133Q131 127 130 117T128 100V94Q128 85 126 66Q127 69 129 73Q124 42 124 33V19Q123 12 123 10Q123 1 128 -4Q129 -10 126 -13H125L126 -12L119 -16Q96 -13 89 9Q87 20 87 53V105Q82
175 76 288Q54 297 47 307Q43 313 40 342Q41 346 41 384Q41 410 50 424L49 425Q49 441 61 440Q67 438 69 430V427Q69 395 75 368V366Q88 417 90 452Q92 458 96 458Q98 458 101 456H102Q111 451 113 439T116 416Q115 412 117 405T119 395Q119 384 121 362Q135 380
139 395Q144 403 147 423T155 449T166 452L168 451Q170 445 173 435L172 429Q172 430 173 430V429Q175 422 175 407ZM258 521Q260 517 258 512L253 509H254L253 508H252Q248 508 242 511L241 512H239Q223 509 210 483Q210 476 212 469L209 464Q223 455 228 457Q252
465 268 476L269 477L265 476Q277 483 302 492Q322 490 360 489H372L371 490Q354 491 323 495Q308 500 278 509Q274 510 258 521ZM393 510Q409 507 440 502Q442 501 446 501Q469 496 515 490Q516 490 531 491Q551 492 559 479Q560 474 551 458Q545 452 540 454H537L532
453Q529 454 521 457Q511 457 446 462Q441 462 420 464Q392 466 370 464Q368 465 364 465H358Q354 466 345 464Q341 465 323 467Q301 469 291 464L267 448Q262 446 251 439Q232 431 220 436Q180 451 180 482Q179 491 190 524Q213 554 243 554Q253 551 267 540T288
527Q351 510 387 510H393ZM692 118V133Q691 172 693 215Q696 280 696 296L697 376Q699 388 697 412Q695 437 695 447Q692 444 674 410L671 399Q670 396 667 388Q667 386 665 380T663 371V365Q663 362 661 359Q657 340 661 302Q662 289 668 251V250Q673 247 677
244L678 243L680 242Q681 232 684 216Q686 183 692 118ZM714 457Q715 457 716 454Q716 439 718 410Q717 407 720 394Q721 370 719 323Q717 312 715 261Q713 259 714 257L715 254L712 194Q713 191 713 179Q713 165 712 133Q713 131 713 127V84Q714 81 712 76V75Q712
32 714 13Q716 11 715 5L713 3Q709 -4 704 -4Q701 -4 698 -2L695 -3H690L682 5L679 31L678 35V42Q678 136 659 231Q654 235 646 246L644 258Q635 314 638 355L639 358Q639 360 641 367Q642 372 641 375Q645 391 652 411Q654 424 675 457Q677 461 684 468Q707 468
714 457ZM627 385Q630 398 631 401T640 412Q644 404 644 397Q644 393 642 389L627 385ZM622 609Q624 604 624 599Q624 595 623 591H607Q607 600 601 604Q599 603 582 597Q581 595 577 592L573 589L569 585L566 581Q562 579 561 573L556 563Q554 557 554 544Q553
521 576 507Q579 506 593 503Q602 501 610 503Q677 521 677 570Q677 593 640 618Q642 614 642 608Q637 607 633 607Q628 607 624 609H622ZM616 629Q611 631 605 635Q613 640 618 645Q630 646 640 640L660 628Q699 604 694 555Q694 553 692 548T691 540Q686 530
671 513Q670 511 668 509Q625 477 586 482Q565 481 544 509Q535 521 532 539Q529 559 533 573Q534 579 540 591Q542 595 563 614L571 618Q573 619 581 621Q606 628 616 629Z" />
<glyph unicode="&#xb6;" glyph-name="paragraph" horiz-adv-x="936" d="M446 -214Q384 -214 336 -193Q320 -193 283 -170Q275 -166 262 -162Q262 -154 253 -151H250Q248 -150 246 -150Q196 -118 153 -54Q147 -49 140 -35T128 -17Q108 11 97 55L78 131Q71 201 73
249L78 256Q71 328 117 402L139 409Q142 391 131 365T123 326Q110 280 110 226Q110 157 132 71Q143 57 157 19T187 -35Q208 -51 217 -75Q327 -179 459 -179Q602 -179 751 -43Q842 40 842 184Q842 302 770 394Q758 409 699 474Q559 558 424 558Q280 558 213 448Q162
385 161 303Q163 278 160 228Q164 224 164 218Q164 213 160 205L165 200Q168 170 181 93Q165 109 154 132Q129 214 129 289Q129 394 182 471T334 583Q392 593 439 593Q501 593 544 579Q579 574 665 540Q680 534 741 495Q881 379 881 184Q881 122 869 81Q844 -2
761 -79Q614 -214 446 -214Z" />
<glyph unicode="&#xb7;" glyph-name="middot" horiz-adv-x="265" d="M131 254H105Q90 257 87 270Q83 277 83 284Q83 295 100 321Q120 326 129 326Q147 326 156 314L150 281Q144 262 131 254Z" />
<glyph unicode="&#xb8;" glyph-name="cedilla" horiz-adv-x="308" d="M243 205Q230 164 216 123Q199 70 198 41Q193 37 193 33Q193 31 194 29Q190 1 169 -61Q152 -112 150 -156H147Q146 -170 135 -191T122 -225Q101 -282 95 -295Q76 -336 51 -355Q44 -358 38 -358Q25
-358 8 -345V-314Q20 -323 28 -323Q33 -323 35 -319Q83 -249 106 -149Q116 -106 145 31Q133 21 105 3Q92 -8 72 -8Q48 -8 21 7Q-7 31 -7 76Q-7 105 7 156Q84 319 179 354Q209 358 225 334T241 278Q241 264 237 253Q251 233 243 205ZM178 304Q109 263 66 178L64
180Q36 125 36 82Q36 55 43 46T78 34Q113 45 153 106L154 110Q156 116 150 118Q150 144 183 216Q185 228 191 246Q203 282 199 294Q195 306 178 304Z" />
<glyph unicode="&#xba;" glyph-name="ordmasculine" horiz-adv-x="802" d="M771 448H773Q774 445 774 443Q774 437 766 436H767L760 435Q757 436 751 436H745Q746 435 746 435Q760 433 779 427H744V423Q744 425 738 380Q737 369 733 342L732 340Q726 299 716 216Q716
210 713 196Q713 189 712 177T710 157L709 154Q704 73 706 52Q711 35 711 33Q713 27 716 13L712 7Q713 7 713 8H714Q713 7 709 4V-1Q709 -10 697 -16Q688 -2 688 36Q688 63 684 118Q682 142 681 161Q679 147 676 136Q668 91 667 67Q666 47 677 13Q676 15 674 17V11Q630
11 636 10Q550 4 509 6Q441 9 415 8L418 9H409Q399 9 395 10Q381 8 378 9Q373 9 368 11H367V8H354V10Q353 10 352 10Q337 7 327 9Q323 8 320 9H317L316 10Q279 5 262 6L261 7L242 4Q229 6 203 5Q200 6 198 6H191Q190 5 189 5Q180 7 160 5Q158 6 142 6Q136 1 135
0H134Q126 -2 125 -2L124 -1Q121 0 117 5H112Q109 6 108 5L109 3V-5L105 -8V-10Q103 -15 99 -15Q96 -15 92 -12Q85 0 70 10Q55 9 54 8Q55 8 55 8T54 8Q48 9 44 17Q48 28 58 29H82Q86 28 87 28L90 84Q90 87 91 110Q95 167 94 175L95 174Q95 191 98 206Q98 209 99
224Q103 273 103 277L105 280V290L106 295V299Q107 308 113 382L116 421Q110 423 105 423Q98 423 94 419L87 405L77 415L79 426Q54 428 34 440Q32 436 30 427Q26 425 23 425Q17 425 16 433Q16 442 25 456L30 466Q40 464 43 459L45 458L46 457Q64 439 116 443L118
442Q121 460 121 482Q129 486 135 484Q140 481 146 479Q149 470 145 451Q145 447 143 441H146Q151 441 153 440H162L163 439Q186 439 218 435Q224 438 233 437Q244 436 248 437Q256 436 271 437Q286 438 293 436Q301 439 318 439H344Q370 439 383 438Q408 440 457
438Q480 441 489 439Q497 441 554 441Q560 444 565 444H570Q571 444 575 445Q580 446 592 444Q603 445 625 449Q634 449 651 450T677 452Q706 452 718 454L719 457Q721 464 728 483Q745 477 745 459V456H747Q754 457 772 454Q772 450 771 448ZM763 447H767Q767
449 768 450H766Q765 447 763 447ZM108 94V28H116Q111 67 108 94ZM700 427H685Q672 425 666 425H652Q626 425 626 425Q590 424 597 424L607 418Q586 424 581 424H576Q573 423 570 423T505 421Q468 420 441 421Q441 421 366 419Q362 419 296 417Q272 416 273 416Q269
414 264 417H262Q254 417 240 414L204 416Q193 415 171 417T138 418V413Q137 403 133 383Q130 354 125 297Q125 291 119 203Q121 172 119 161L125 102L126 101Q127 90 130 70Q137 55 137 49V35Q136 32 137 31V29Q142 29 153 30T169 32L269 41Q282 44 296 44H297Q304
44 316 46Q334 46 470 41Q479 38 497 38Q498 38 500 37Q572 30 581 30L577 31Q605 29 647 35Q653 112 678 201V202Q676 204 680 208Q684 248 698 350H699Q699 356 704 386Q708 398 712 425L700 426V427ZM709 309H710V311L709 309Z" />
<glyph unicode="&#xbb;" glyph-name="guillemotright" horiz-adv-x="645" d="M464 82Q465 80 466 79Q468 72 466 67Q463 60 456 61Q449 60 441 74Q434 99 432 179Q431 184 426 190Q416 192 396 192Q377 192 350 190Q317 185 253 179Q240 178 211 172L212 173H210Q204
173 188 170T164 168Q152 169 129 165T95 162Q91 166 89 174L90 160Q91 158 91 154L84 147Q81 145 79 145Q75 145 73 149H68Q68 192 62 277Q62 276 61 273Q62 271 62 268V263Q61 261 61 260V259L62 258Q64 251 64 245L62 228L63 226L62 207V193Q64 181 61 170Q60
164 62 159Q60 151 55 151Q53 151 51 152L49 150Q46 151 42 157H43L38 159Q31 186 34 239Q39 321 27 358Q27 366 33 371Q37 372 40 371V373Q44 380 50 380Q53 380 57 379T71 376T86 374Q109 374 202 368Q207 368 240 362Q254 364 277 361Q305 357 314 357Q329 356
360 352L418 346Q421 415 403 477Q404 489 420 492Q443 467 484 412Q490 406 501 394T519 376Q562 333 614 276Q615 261 604 251L581 230Q575 222 560 211Q552 200 540 186L537 184Q532 181 532 175Q517 158 504 143T478 100Q474 91 469 82Q466 82 464 82ZM451
139H454V129Q454 125 457 122Q457 116 457 110Q467 130 488 160Q502 176 565 246Q572 253 588 272L586 274L583 280Q583 281 581 281L578 284Q573 289 571 293Q550 316 506 360Q503 362 480 388Q472 396 453 418Q446 426 433 438Q436 432 438 409Q439 397 438 391Q438
386 440 377Q444 324 442 305Q439 302 425 302Q421 306 418 321Q417 325 413 324Q396 325 362 330Q356 332 340 332L337 334Q316 335 273 341H265Q265 343 262 343V342Q254 346 239 344Q174 351 130 352L128 350Q105 350 70 351V347Q78 325 84 281Q83 262 87 204Q99
199 104 189L105 187V185L212 194Q219 196 241 198Q248 199 291 206Q319 211 341 210Q347 210 361 213Q366 213 394 216Q413 218 427 216Q430 222 436 222Q439 222 442 221Q449 211 450 197T454 167Q452 165 453 161V160H455L453 140L451 139Z" />
<glyph unicode="&#xbf;" glyph-name="questiondown" horiz-adv-x="365" d="M328 617H329Q340 617 340 606Q340 599 334 594Q332 593 327 586Q301 587 272 581Q268 586 268 591Q268 598 277 607L280 615Q285 613 287 613Q290 613 297 618Q309 629 316 629Q323 629
328 617ZM297 490Q323 492 325 494Q325 494 322 495Q341 495 341 467Q341 458 339 438T336 410Q336 402 340 390T342 360Q324 331 276 301Q222 268 205 249Q198 244 152 214Q139 208 113 190Q96 178 76 164T40 129Q29 118 17 98Q28 53 99 43Q155 35 166 35Q183
35 210 38L255 43Q265 49 279 51Q305 61 312 64Q331 73 342 84Q350 83 371 66Q370 49 355 44T325 34Q308 19 286 19Q222 2 165 2Q47 2 -10 77L-16 94Q-10 133 42 171L66 195Q81 208 96 212Q109 226 163 261Q171 268 188 280Q193 283 252 323Q291 350 307 377Q305
382 300 391L297 490Z" />
<glyph unicode="&#xc0;" glyph-name="Agrave" horiz-adv-x="466" d="M440 276H427Q424 275 421 269Q402 272 390 260Q389 250 389 239Q389 208 400 169Q409 138 419 100Q427 87 459 18Q463 14 463 9Q463 -1 441 -14Q419 -5 397 46Q389 66 366 118Q359 151 351
166Q349 193 340 245Q297 237 214 209Q199 208 166 200Q153 197 149 182Q109 139 82 57Q93 69 121 93L98 31Q91 30 88 19Q81 -9 43 -9Q35 -9 29 -7Q30 -4 30 -2Q30 3 27 5Q28 58 68 121Q94 163 114 203Q91 211 91 211Q79 218 80 231Q79 241 103 258Q109 260 115
260Q120 260 131 255T149 252Q163 274 193 317Q211 336 232 367L267 419Q272 431 287 452T307 486Q312 489 316 500T322 514Q320 517 325 533Q326 535 327 543Q336 545 339 555Q344 572 357 573Q377 575 392 566Q394 550 394 526Q394 503 392 471Q394 458 394 445Q394
412 382 384Q382 370 379 343Q381 331 386 307Q394 307 410 310T434 313Q454 313 466 300Q453 282 440 276ZM335 378Q337 427 336 448Q290 387 206 259Q240 270 308 284Q321 285 337 296Q333 325 335 378ZM394 625Q382 627 379 627Q375 635 348 661Q338 667 322
682Q314 683 313 691L311 693L313 692L304 701Q302 704 302 706Q299 710 299 714Q299 722 307 730Q356 687 413 660Q421 650 421 643Q421 634 412 628T394 625Z" />
<glyph unicode="&#xc1;" glyph-name="Aacute" horiz-adv-x="466" d="M440 276H427Q424 275 421 269Q402 272 390 260Q389 250 389 239Q389 208 400 169Q409 138 419 100Q427 87 459 18Q463 14 463 9Q463 -1 441 -14Q419 -5 397 46Q389 66 366 118Q359 151 351
166Q349 193 340 245Q297 237 214 209Q199 208 166 200Q153 197 149 182Q109 139 82 57Q93 69 121 93L98 31Q91 30 88 19Q81 -9 43 -9Q35 -9 29 -7Q30 -4 30 -2Q30 3 27 5Q28 58 68 121Q94 163 114 203Q91 211 91 211Q79 218 80 231Q79 241 103 258Q109 260 115
260Q120 260 131 255T149 252Q163 274 193 317Q211 336 232 367L267 419Q272 431 287 452T307 486Q312 489 316 500T322 514Q320 517 325 533Q326 535 327 543Q336 545 339 555Q344 572 357 573Q377 575 392 566Q394 550 394 526Q394 503 392 471Q394 458 394 445Q394
412 382 384Q382 370 379 343Q381 331 386 307Q394 307 410 310T434 313Q454 313 466 300Q453 282 440 276ZM335 378Q337 427 336 448Q290 387 206 259Q240 270 308 284Q321 285 337 296Q333 325 335 378ZM346 664Q380 708 427 714Q428 711 431 706T432 695Q430
689 423 688H422Q416 687 415 683Q385 665 376 657Q355 638 344 617Q336 614 332 623T328 640Q335 649 346 664Z" />
<glyph unicode="&#xc2;" glyph-name="Acircumflex" horiz-adv-x="466" d="M440 276H427Q424 275 421 269Q402 272 390 260Q389 250 389 239Q389 208 400 169Q409 138 419 100Q427 87 459 18Q463 14 463 9Q463 -1 441 -14Q419 -5 397 46Q389 66 366 118Q359 151
351 166Q349 193 340 245Q297 237 214 209Q199 208 166 200Q153 197 149 182Q109 139 82 57Q93 69 121 93L98 31Q91 30 88 19Q81 -9 43 -9Q35 -9 29 -7Q30 -4 30 -2Q30 3 27 5Q28 58 68 121Q94 163 114 203Q91 211 91 211Q79 218 80 231Q79 241 103 258Q109 260
115 260Q120 260 131 255T149 252Q163 274 193 317Q211 336 232 367L267 419Q272 431 287 452T307 486Q312 489 316 500T322 514Q320 517 325 533Q326 535 327 543Q336 545 339 555Q344 572 357 573Q377 575 392 566Q394 550 394 526Q394 503 392 471Q394 458 394
445Q394 412 382 384Q382 370 379 343Q381 331 386 307Q394 307 410 310T434 313Q454 313 466 300Q453 282 440 276ZM335 378Q337 427 336 448Q290 387 206 259Q240 270 308 284Q321 285 337 296Q333 325 335 378ZM423 596Q418 591 413 591Q401 591 400 606T395
643Q391 689 378 718Q356 701 344 670Q343 666 337 659Q337 655 333 649T327 641T321 635Q321 634 318 633L321 635Q316 638 310 642T304 653Q304 658 308 664Q324 692 337 709Q343 712 349 720T361 731Q373 737 391 731Q398 722 403 703Q409 680 413 673Q413 671
413 670Q413 666 416 665L415 659Q420 625 422 608Q422 605 423 596Z" />
<glyph unicode="&#xc3;" glyph-name="Atilde" horiz-adv-x="516" d="M440 276H427Q424 275 421 269Q402 272 390 260Q389 250 389 239Q389 208 400 169Q409 138 419 100Q427 87 459 18Q463 14 463 9Q463 -1 441 -14Q419 -5 397 46Q389 66 366 118Q359 151 351
166Q349 193 340 245Q297 237 214 209Q199 208 166 200Q153 197 149 182Q109 139 82 57Q93 69 121 93L98 31Q91 30 88 19Q81 -9 43 -9Q35 -9 29 -7Q30 -4 30 -2Q30 3 27 5Q28 58 68 121Q94 163 114 203Q91 211 91 211Q79 218 80 231Q79 241 103 258Q109 260 115
260Q120 260 131 255T149 252Q163 274 193 317Q211 336 232 367L267 419Q272 431 287 452T307 486Q312 489 316 500T322 514Q320 517 325 533Q326 535 327 543Q336 545 339 555Q344 572 357 573Q377 575 392 566Q394 550 394 526Q394 503 392 471Q394 458 394 445Q394
412 382 384Q382 370 379 343Q381 331 386 307Q394 307 410 310T434 313Q454 313 466 300Q453 282 440 276ZM335 378Q337 427 336 448Q290 387 206 259Q240 270 308 284Q321 285 337 296Q333 325 335 378ZM437 623Q446 627 448 627Q472 644 498 693Q513 720 523
720Q533 720 537 689Q528 674 513 647Q501 637 483 614T450 583Q424 585 409 610Q403 620 388 659Q383 672 372 696T344 723Q319 714 302 680Q297 670 282 621Q279 610 267 607Q255 604 255 632Q255 680 297 735Q299 735 303 737T308 744Q333 763 354 761Q381 753
401 710Q408 703 413 683T428 657V649Q428 647 426 646L428 642Q429 634 433 636L435 625L437 627V623Z" />
<glyph unicode="&#xc4;" glyph-name="Adieresis" horiz-adv-x="448" d="M440 276H427Q424 275 421 269Q402 272 390 260Q389 250 389 239Q389 208 400 169Q409 138 419 100Q427 87 459 18Q463 14 463 9Q463 -1 441 -14Q419 -5 397 46Q389 66 366 118Q359 151 351
166Q349 193 340 245Q297 237 214 209Q199 208 166 200Q153 197 149 182Q109 139 82 57Q93 69 121 93L98 31Q91 30 88 19Q81 -9 43 -9Q35 -9 29 -7Q30 -4 30 -2Q30 3 27 5Q28 58 68 121Q94 163 114 203Q91 211 91 211Q79 218 80 231Q79 241 103 258Q109 260 115
260Q120 260 131 255T149 252Q163 274 193 317Q211 336 232 367L267 419Q272 431 287 452T307 486Q312 489 316 500T322 514Q320 517 325 533Q326 535 327 543Q336 545 339 555Q344 572 357 573Q377 575 392 566Q394 550 394 526Q394 503 392 471Q394 458 394 445Q394
412 382 384Q382 370 379 343Q381 331 386 307Q394 307 410 310T434 313Q454 313 466 300Q453 282 440 276ZM335 378Q337 427 336 448Q290 387 206 259Q240 270 308 284Q321 285 337 296Q333 325 335 378ZM317 650Q314 621 286 618Q271 627 271 633Q269 644 269
652Q269 680 292 680Q300 678 307 676T317 664V650ZM443 648Q441 626 419 624Q408 631 408 635Q406 644 406 650Q406 671 424 671Q430 670 436 668T443 659V648Z" />
<glyph unicode="&#xc5;" glyph-name="Aring" horiz-adv-x="494" d="M478 533Q462 506 428 481Q413 480 381 467Q381 461 396 324Q396 296 405 284Q426 287 474 321Q476 322 497 336Q499 329 499 323Q499 307 485 295L459 272Q421 252 412 237Q435 145 473 82Q478
77 501 34Q496 25 483 14Q467 20 457 36Q455 40 442 67Q420 96 401 143Q385 183 370 224Q366 220 351 218T331 208Q319 201 287 197Q247 182 222 182Q217 182 207 183Q185 185 171 160Q151 123 144 118Q136 101 133 96Q126 84 117 77Q98 53 62 2Q32 -22 23 -22Q10
-22 10 -7Q10 7 20 23Q28 36 37 50Q104 134 108 139Q149 197 155 239Q174 243 177 243Q188 247 192 256T225 318Q246 356 253 381Q259 401 279 431Q289 455 313 502Q287 544 287 591Q287 624 301 656Q306 667 344 702Q357 700 376 713T407 726Q416 736 429 736Q432
736 453 733Q515 706 512 641Q508 567 478 533ZM411 705Q410 703 389 693Q376 687 376 672Q370 669 369 668L365 667Q363 667 361 664Q332 632 332 583Q332 560 339 542Q342 541 343 538L346 534Q354 523 362 523Q369 523 377 534Q387 537 395 527T409 517Q414
517 420 520Q430 530 452 557Q479 591 479 639Q479 662 471 677Q450 707 425 707Q418 707 411 705ZM352 335Q347 368 334 393Q324 384 310 361Q299 353 285 331T260 300Q259 297 214 232Q224 230 236 230Q256 230 279 235Q283 237 322 249Q348 257 362 271Q361
273 352 335Z" />
<glyph unicode="&#xc6;" glyph-name="AE" horiz-adv-x="747" d="M706 478Q695 486 642 492Q573 498 569 499Q524 508 490 508Q481 517 464 517Q432 517 411 525Q400 529 394 529Q388 529 383 527Q373 507 370 436Q375 429 373 416Q372 410 369 395Q369 390 374
385Q370 361 370 341Q370 313 378 294Q472 306 661 333Q672 316 673 314Q673 310 669 305Q644 281 556 274Q488 269 375 242Q372 235 372 229Q372 224 374 214T377 199Q377 192 375 185Q375 177 378 157T380 126Q385 117 389 71Q392 38 413 38Q419 38 427 40Q533
65 609 65Q669 65 715 51Q727 47 727 34Q727 21 714 18Q604 14 581 12Q508 6 450 -10Q435 -10 415 -23Q414 -26 422 -33L407 -45Q404 -50 404 -55Q393 -60 387 -60Q375 -60 373 -39Q372 -27 365 -27Q361 -27 353 -31Q342 -25 342 -14Q342 -10 344 -2T347 11Q356
15 355 20L354 33Q352 58 334 112Q335 160 326 235L194 230Q178 221 161 195Q143 166 133 159Q125 134 96 90Q76 51 74 49Q59 28 37 21Q16 22 16 41Q16 52 23 70Q41 102 85 161T148 252Q146 259 146 266Q146 278 153 287Q195 296 207 324Q221 342 322 505Q324 511
329 550Q332 577 354 591Q394 588 469 569T581 545Q660 537 712 525Q714 524 727 508Q726 491 706 478ZM313 406Q309 398 294 383Q294 375 286 365T277 348Q260 328 236 285Q246 286 264 284T289 281Q295 280 305 284T321 288Q325 366 313 406Z" />
<glyph unicode="&#xc7;" glyph-name="Ccedilla" horiz-adv-x="454" d="M273 -19Q304 -41 318 -74Q320 -83 320 -92Q320 -129 280 -172Q173 -248 90 -248Q69 -248 50 -244Q38 -227 38 -210Q38 -185 53 -181Q67 -178 68 -194Q69 -200 76 -203Q89 -203 110 -203Q130
-204 142 -196Q160 -194 195 -176Q218 -172 240 -153L275 -115Q289 -87 277 -72Q257 -46 192 -28L183 -29Q131 -23 93 5Q52 36 42 84Q37 98 37 115Q37 143 50 186L70 252L126 354Q159 414 196 449Q283 567 360 604Q374 606 386 606Q414 606 429 593V575Q428 566
420 559Q417 558 388 557Q367 556 358 545Q344 536 318 519T281 483Q136 338 88 132Q86 76 113 42Q141 5 195 5Q210 5 239 9T281 15Q310 23 365 48Q371 49 387 58T413 66Q417 71 425 71H445L444 60Q424 63 421 59Q415 50 409 49Q389 35 370 20Q344 4 326 3Q303
-13 273 -19Z" />
<glyph unicode="&#xc8;" glyph-name="Egrave" horiz-adv-x="486" d="M372 514Q323 509 287 495Q265 495 260 489Q255 470 235 452Q223 441 207 420Q197 396 176 360Q169 343 156 310Q162 308 167 308Q172 308 188 314T213 321Q235 324 245 331Q259 335 411 392L452
388Q419 355 404 355Q385 337 347 322Q294 301 286 296Q265 291 222 270Q195 270 136 247Q97 165 97 97Q97 83 99 71Q112 23 144 20Q194 16 249 56Q276 77 351 133Q352 113 338 94Q334 89 309 64Q231 -29 141 -23Q64 5 51 58Q41 135 58 178Q68 203 80 247Q60 256
61 281Q67 287 81 291T99 299Q100 314 115 341T131 383Q139 386 141 395T146 408Q161 434 194 483Q192 485 163 491Q159 497 152 508Q151 512 151 515Q151 538 204 537Q239 536 247 538Q340 557 417 557Q468 557 514 549L520 535Q491 526 372 514ZM344 605Q332
607 329 607Q325 615 298 641Q288 647 272 662Q264 663 263 671L261 673L263 672L254 681Q252 684 252 686Q249 690 249 694Q249 702 257 710Q306 667 363 640Q371 630 371 623Q371 614 362 608T344 605Z" />
<glyph unicode="&#xc9;" glyph-name="Eacute" horiz-adv-x="486" d="M372 514Q323 509 287 495Q265 495 260 489Q255 470 235 452Q223 441 207 420Q197 396 176 360Q169 343 156 310Q162 308 167 308Q172 308 188 314T213 321Q235 324 245 331Q259 335 411 392L452
388Q419 355 404 355Q385 337 347 322Q294 301 286 296Q265 291 222 270Q195 270 136 247Q97 165 97 97Q97 83 99 71Q112 23 144 20Q194 16 249 56Q276 77 351 133Q352 113 338 94Q334 89 309 64Q231 -29 141 -23Q64 5 51 58Q41 135 58 178Q68 203 80 247Q60 256
61 281Q67 287 81 291T99 299Q100 314 115 341T131 383Q139 386 141 395T146 408Q161 434 194 483Q192 485 163 491Q159 497 152 508Q151 512 151 515Q151 538 204 537Q239 536 247 538Q340 557 417 557Q468 557 514 549L520 535Q491 526 372 514ZM256 629T271
643Q315 683 376 688Q378 686 382 681T383 670Q379 665 372 665L370 664Q363 664 361 660Q322 643 311 636Q284 619 269 600Q260 598 253 604T248 620Q253 623 254 626Z" />
<glyph unicode="&#xca;" glyph-name="Ecircumflex" horiz-adv-x="486" d="M372 514Q323 509 287 495Q265 495 260 489Q255 470 235 452Q223 441 207 420Q197 396 176 360Q169 343 156 310Q162 308 167 308Q172 308 188 314T213 321Q235 324 245 331Q259 335 411
392L452 388Q419 355 404 355Q385 337 347 322Q294 301 286 296Q265 291 222 270Q195 270 136 247Q97 165 97 97Q97 83 99 71Q112 23 144 20Q194 16 249 56Q276 77 351 133Q352 113 338 94Q334 89 309 64Q231 -29 141 -23Q64 5 51 58Q41 135 58 178Q68 203 80 247Q60
256 61 281Q67 287 81 291T99 299Q100 314 115 341T131 383Q139 386 141 395T146 408Q161 434 194 483Q192 485 163 491Q159 497 152 508Q151 512 151 515Q151 538 204 537Q239 536 247 538Q340 557 417 557Q468 557 514 549L520 535Q491 526 372 514ZM423 596Q418
591 413 591Q401 591 400 606T395 643Q391 689 378 718Q356 701 344 670Q343 666 337 659Q337 655 333 649T327 641T321 635Q321 634 318 633L321 635Q316 638 310 642T304 653Q304 658 308 664Q324 692 337 709Q343 712 349 720T361 731Q373 737 391 731Q398 722
403 703Q409 680 413 673Q413 671 413 670Q413 666 416 665L415 659Q420 625 422 608Q422 605 423 596Z" />
<glyph unicode="&#xcb;" glyph-name="Edieresis" horiz-adv-x="486" d="M372 514Q323 509 287 495Q265 495 260 489Q255 470 235 452Q223 441 207 420Q197 396 176 360Q169 343 156 310Q162 308 167 308Q172 308 188 314T213 321Q235 324 245 331Q259 335 411
392L452 388Q419 355 404 355Q385 337 347 322Q294 301 286 296Q265 291 222 270Q195 270 136 247Q97 165 97 97Q97 83 99 71Q112 23 144 20Q194 16 249 56Q276 77 351 133Q352 113 338 94Q334 89 309 64Q231 -29 141 -23Q64 5 51 58Q41 135 58 178Q68 203 80 247Q60
256 61 281Q67 287 81 291T99 299Q100 314 115 341T131 383Q139 386 141 395T146 408Q161 434 194 483Q192 485 163 491Q159 497 152 508Q151 512 151 515Q151 538 204 537Q239 536 247 538Q340 557 417 557Q468 557 514 549L520 535Q491 526 372 514ZM317 650Q314
621 286 618Q271 627 271 633Q269 644 269 652Q269 680 292 680Q300 678 307 676T317 664V650ZM443 648Q441 626 419 624Q408 631 408 635Q406 644 406 650Q406 671 424 671Q430 670 436 668T443 659V648Z" />
<glyph unicode="&#xcc;" glyph-name="Igrave" horiz-adv-x="216" d="M209 465Q206 458 200 442Q195 435 190 415T174 386Q160 337 133 239Q111 157 110 88Q98 68 98 41Q98 20 105 0Q113 -6 110 -26Q86 -27 73 -6Q69 1 57 37Q59 68 69 147Q92 294 144 447Q149 461
163 484T183 519Q193 530 218 530Q231 520 231 505Q231 495 225 482Q215 476 209 465ZM244 605Q232 607 229 607Q225 615 198 641Q188 647 172 662Q164 663 163 671L161 673L163 672L154 681Q152 684 152 686Q149 690 149 694Q149 702 157 710Q206 667 263 640Q271
630 271 623Q271 614 262 608T244 605Z" />
<glyph unicode="&#xcd;" glyph-name="Iacute" horiz-adv-x="216" d="M209 465Q206 458 200 442Q195 435 190 415T174 386Q160 337 133 239Q111 157 110 88Q98 68 98 41Q98 20 105 0Q113 -6 110 -26Q86 -27 73 -6Q69 1 57 37Q59 68 69 147Q92 294 144 447Q149 461
163 484T183 519Q193 530 218 530Q231 520 231 505Q231 495 225 482Q215 476 209 465ZM216 629T231 643Q275 683 336 688Q338 686 342 681T343 670Q339 665 332 665L330 664Q323 664 321 660Q282 643 271 636Q244 619 229 600Q220 598 213 604T208 620Q213 623
214 626Z" />
<glyph unicode="&#xce;" glyph-name="Icircumflex" horiz-adv-x="216" d="M209 465Q206 458 200 442Q195 435 190 415T174 386Q160 337 133 239Q111 157 110 88Q98 68 98 41Q98 20 105 0Q113 -6 110 -26Q86 -27 73 -6Q69 1 57 37Q59 68 69 147Q92 294 144 447Q149
461 163 484T183 519Q193 530 218 530Q231 520 231 505Q231 495 225 482Q215 476 209 465ZM303 596Q298 591 293 591Q281 591 280 606T275 643Q271 689 258 718Q236 701 224 670Q223 666 217 659Q217 655 213 649T207 641T201 635Q201 634 198 633L201 635Q196
638 190 642T184 653Q184 658 188 664Q204 692 217 709Q223 712 229 720T241 731Q253 737 271 731Q278 722 283 703Q289 680 293 673Q293 671 293 670Q293 666 296 665L295 659Q300 625 302 608Q302 605 303 596Z" />
<glyph unicode="&#xcf;" glyph-name="Idieresis" horiz-adv-x="216" d="M209 465Q206 458 200 442Q195 435 190 415T174 386Q160 337 133 239Q111 157 110 88Q98 68 98 41Q98 20 105 0Q113 -6 110 -26Q86 -27 73 -6Q69 1 57 37Q59 68 69 147Q92 294 144 447Q149
461 163 484T183 519Q193 530 218 530Q231 520 231 505Q231 495 225 482Q215 476 209 465ZM217 650Q214 621 186 618Q171 627 171 633Q169 644 169 652Q169 680 192 680Q200 678 207 676T217 664V650ZM343 648Q341 626 319 624Q308 631 308 635Q306 644 306 650Q306
671 324 671Q330 670 336 668T343 659V648Z" />
<glyph unicode="&#xd1;" glyph-name="Ntilde" horiz-adv-x="500" d="M437 623Q446 627 448 627Q472 644 498 693Q513 720 523 720Q533 720 537 689Q528 674 513 647Q501 637 483 614T450 583Q424 585 409 610Q403 620 388 659Q383 672 372 696T344 723Q319 714
302 680Q297 670 282 621Q279 610 267 607Q255 604 255 632Q255 680 297 735Q299 735 303 737T308 744Q333 763 354 761Q381 753 401 710Q408 703 413 683T428 657V649Q428 647 426 646L428 642Q429 634 433 636L435 625L437 627V623ZM552 535Q550 532 551 523Q540
520 533 500Q529 488 521 483Q519 475 501 430Q488 397 487 376Q481 355 460 317Q456 294 453 289Q449 274 440 263Q424 206 382 86Q372 43 340 -7Q328 -3 305 6Q246 85 214 250Q205 274 202 345Q197 363 195 398T188 451H187Q170 396 138 287Q130 267 118 212Q107
164 93 139Q95 134 95 128Q95 115 82 87T68 46T58 3T49 -45Q40 -64 24 -64Q-2 -64 -2 -44Q-2 -40 2 -24Q5 -11 3 -5Q36 90 91 273Q148 463 178 551Q187 557 197 557Q223 557 215 556Q224 544 237 536Q233 475 248 437Q246 422 246 405Q246 383 250 345Q255 301
256 286Q281 145 326 70Q324 77 335 90Q338 109 353 145T372 200L437 386Q476 488 524 562Q542 572 546 572Q562 572 562 557L552 535Z" />
<glyph unicode="&#xd2;" glyph-name="Ograve" horiz-adv-x="531" d="M511 356Q511 353 512 347T513 338Q511 334 506 329Q494 270 438 196Q432 191 419 163Q331 74 302 51Q226 -9 158 -9Q149 -9 140 -8Q125 -4 100 13Q33 44 33 121Q33 210 123 344Q125 348 170
414Q226 495 313 545Q376 563 400 563Q423 563 439 552H453Q517 482 517 401Q517 381 513 360Q511 358 511 356ZM398 512L400 508L388 496Q385 508 379 509Q357 509 327 487Q305 470 288 466Q112 286 87 124Q87 34 162 34Q219 34 288 97Q339 135 345 151Q388 194
413 233Q466 316 466 402Q466 432 459 458Q462 466 453 474T443 489L425 505Q416 513 406 513Q402 513 398 512ZM444 605Q432 607 429 607Q425 615 398 641Q388 647 372 662Q364 663 363 671L361 673L363 672L354 681Q352 684 352 686Q349 690 349 694Q349 702
357 710Q406 667 463 640Q471 630 471 623Q471 614 462 608T444 605Z" />
<glyph unicode="&#xd3;" glyph-name="Oacute" horiz-adv-x="531" d="M511 356Q511 353 512 347T513 338Q511 334 506 329Q494 270 438 196Q432 191 419 163Q331 74 302 51Q226 -9 158 -9Q149 -9 140 -8Q125 -4 100 13Q33 44 33 121Q33 210 123 344Q125 348 170
414Q226 495 313 545Q376 563 400 563Q423 563 439 552H453Q517 482 517 401Q517 381 513 360Q511 358 511 356ZM398 512L400 508L388 496Q385 508 379 509Q357 509 327 487Q305 470 288 466Q112 286 87 124Q87 34 162 34Q219 34 288 97Q339 135 345 151Q388 194
413 233Q466 316 466 402Q466 432 459 458Q462 466 453 474T443 489L425 505Q416 513 406 513Q402 513 398 512ZM386 667Q418 698 462 702Q463 700 466 697T467 688Q464 685 459 684H457Q452 683 451 681Q423 668 415 662Q396 649 385 634Q378 633 373 638T370
650Q376 656 386 667Z" />
<glyph unicode="&#xd4;" glyph-name="Ocircumflex" horiz-adv-x="531" d="M511 356Q511 353 512 347T513 338Q511 334 506 329Q494 270 438 196Q432 191 419 163Q331 74 302 51Q226 -9 158 -9Q149 -9 140 -8Q125 -4 100 13Q33 44 33 121Q33 210 123 344Q125 348
170 414Q226 495 313 545Q376 563 400 563Q423 563 439 552H453Q517 482 517 401Q517 381 513 360Q511 358 511 356ZM398 512L400 508L388 496Q385 508 379 509Q357 509 327 487Q305 470 288 466Q112 286 87 124Q87 34 162 34Q219 34 288 97Q339 135 345 151Q388
194 413 233Q466 316 466 402Q466 432 459 458Q462 466 453 474T443 489L425 505Q416 513 406 513Q402 513 398 512ZM504 599Q500 597 496 597Q481 597 484 615Q487 630 491 652Q499 697 494 729Q469 719 449 692Q447 688 441 684T425 669Q423 667 417 665Q417
664 413 664L417 665Q417 665 410 673Q405 677 405 683Q405 689 413 696Q436 719 453 731Q460 733 468 739T482 746Q496 749 511 738Q515 727 515 707Q514 683 516 676Q516 674 515 673Q514 669 516 667L514 662Q510 628 507 611Q506 608 504 599Z" />
<glyph unicode="&#xd5;" glyph-name="Otilde" horiz-adv-x="531" d="M511 356Q511 353 512 347T513 338Q511 334 506 329Q494 270 438 196Q432 191 419 163Q331 74 302 51Q226 -9 158 -9Q149 -9 140 -8Q125 -4 100 13Q33 44 33 121Q33 210 123 344Q125 348 170
414Q226 495 313 545Q376 563 400 563Q423 563 439 552H453Q517 482 517 401Q517 381 513 360Q511 358 511 356ZM398 512L400 508L388 496Q385 508 379 509Q357 509 327 487Q305 470 288 466Q112 286 87 124Q87 34 162 34Q219 34 288 97Q339 135 345 151Q388 194
413 233Q466 316 466 402Q466 432 459 458Q462 466 453 474T443 489L425 505Q416 513 406 513Q402 513 398 512ZM437 623Q446 627 448 627Q472 644 498 693Q513 720 523 720Q533 720 537 689Q528 674 513 647Q501 637 483 614T450 583Q424 585 409 610Q403 620
388 659Q383 672 372 696T344 723Q319 714 302 680Q297 670 282 621Q279 610 267 607Q255 604 255 632Q255 680 297 735Q299 735 303 737T308 744Q333 763 354 761Q381 753 401 710Q408 703 413 683T428 657V649Q428 647 426 646L428 642Q429 634 433 636L435 625L437
627V623Z" />
<glyph unicode="&#xd6;" glyph-name="Odieresis" horiz-adv-x="531" d="M511 356Q511 353 512 347T513 338Q511 334 506 329Q494 270 438 196Q432 191 419 163Q331 74 302 51Q226 -9 158 -9Q149 -9 140 -8Q125 -4 100 13Q33 44 33 121Q33 210 123 344Q125 348
170 414Q226 495 313 545Q376 563 400 563Q423 563 439 552H453Q517 482 517 401Q517 381 513 360Q511 358 511 356ZM398 512L400 508L388 496Q385 508 379 509Q357 509 327 487Q305 470 288 466Q112 286 87 124Q87 34 162 34Q219 34 288 97Q339 135 345 151Q388
194 413 233Q466 316 466 402Q466 432 459 458Q462 466 453 474T443 489L425 505Q416 513 406 513Q402 513 398 512ZM367 650Q364 621 336 618Q321 627 321 633Q319 644 319 652Q319 680 342 680Q350 678 357 676T367 664V650ZM493 648Q491 626 469 624Q458 631
458 635Q456 644 456 650Q456 671 474 671Q480 670 486 668T493 659V648Z" />
<glyph unicode="&#xd8;" glyph-name="Oslash" horiz-adv-x="512" d="M602 550Q595 546 589 544L579 541Q565 537 557 524H551Q542 512 508 484Q479 460 471 439Q460 434 456 427L452 422Q446 414 431 405Q417 390 396 356Q343 297 296 234Q273 203 234 156Q223
136 190 90Q174 67 145 29Q165 15 193 15Q222 15 246 30Q365 85 432 187Q478 237 480 329Q477 335 477 351T471 373L475 388Q478 387 498 382Q498 374 495 357Q506 341 506 325Q506 317 504 310Q505 298 504 285Q502 262 502 259Q487 174 403 94Q304 -1 224 -21Q206
-26 181 -26Q155 -26 122 -18Q121 -20 101 -50Q90 -68 67 -66Q68 -48 76 -29Q89 0 90 5Q72 28 42 78Q44 83 44 85Q44 88 39 93Q35 197 89 309Q137 409 218 492Q220 492 237 508Q271 540 315 540Q332 540 346 534Q377 512 377 498Q377 493 376 488Q379 473 360 445Q355
437 338 429Q335 426 320 414Q323 437 325 444T330 465Q335 486 320 487Q295 488 263 462Q260 460 214 419Q197 400 186 379Q111 271 86 181Q78 177 78 173Q78 172 81 166T83 154Q81 141 81 130Q81 79 113 47Q134 74 188 144Q210 174 268 250Q272 255 346 362Q355
368 366 385T385 409L386 415Q400 429 462 499Q545 592 585 592Q590 592 595 591Q609 575 609 565Q609 558 602 550Z" />
<glyph unicode="&#xd9;" glyph-name="Ugrave" horiz-adv-x="445" d="M312 203Q296 177 263 124Q254 116 239 93T212 60Q156 -33 86 -43Q28 -21 22 26Q25 135 70 281Q83 323 158 527Q163 533 171 559Q177 579 192 587Q212 589 225 579Q228 566 233 540Q218 528
205 497Q191 463 181 452Q176 429 150 367Q128 316 125 280L118 276Q74 114 74 54Q74 28 79 7Q81 2 90 2Q98 1 106 7Q158 46 240 175Q257 196 280 240T317 303Q369 401 422 583Q449 602 463 594Q476 587 476 573Q476 564 467 542T457 511Q452 490 395 313Q357 195
347 112Q361 107 361 90Q361 83 345 38Q344 35 326 20Q317 17 313 21L304 27Q302 27 293 25Q291 96 312 203ZM344 655Q332 657 329 657Q325 665 298 691Q288 697 272 712Q264 713 263 721L261 723L263 722L254 731Q252 734 252 736Q249 740 249 744Q249 752 257
760Q306 717 363 690Q371 680 371 673Q371 664 362 658T344 655Z" />
<glyph unicode="&#xda;" glyph-name="Uacute" horiz-adv-x="445" d="M312 203Q296 177 263 124Q254 116 239 93T212 60Q156 -33 86 -43Q28 -21 22 26Q25 135 70 281Q83 323 158 527Q163 533 171 559Q177 579 192 587Q212 589 225 579Q228 566 233 540Q218 528
205 497Q191 463 181 452Q176 429 150 367Q128 316 125 280L118 276Q74 114 74 54Q74 28 79 7Q81 2 90 2Q98 1 106 7Q158 46 240 175Q257 196 280 240T317 303Q369 401 422 583Q449 602 463 594Q476 587 476 573Q476 564 467 542T457 511Q452 490 395 313Q357 195
347 112Q361 107 361 90Q361 83 345 38Q344 35 326 20Q317 17 313 21L304 27Q302 27 293 25Q291 96 312 203ZM319 667T333 681Q375 721 433 726Q435 723 439 720Q443 714 439 708Q435 703 429 703L427 702Q420 702 418 698Q381 682 371 675Q345 658 331 639Q323
637 316 643T311 659Q315 661 317 664Z" />
<glyph unicode="&#xdb;" glyph-name="Ucircumflex" horiz-adv-x="445" d="M312 203Q296 177 263 124Q254 116 239 93T212 60Q156 -33 86 -43Q28 -21 22 26Q25 135 70 281Q83 323 158 527Q163 533 171 559Q177 579 192 587Q212 589 225 579Q228 566 233 540Q218
528 205 497Q191 463 181 452Q176 429 150 367Q128 316 125 280L118 276Q74 114 74 54Q74 28 79 7Q81 2 90 2Q98 1 106 7Q158 46 240 175Q257 196 280 240T317 303Q369 401 422 583Q449 602 463 594Q476 587 476 573Q476 564 467 542T457 511Q452 490 395 313Q357
195 347 112Q361 107 361 90Q361 83 345 38Q344 35 326 20Q317 17 313 21L304 27Q302 27 293 25Q291 96 312 203ZM423 696Q418 691 413 691Q401 691 400 706T395 743Q391 789 378 818Q356 801 344 770Q343 766 337 759Q337 755 333 749T327 741T321 735Q321 734
318 733L321 735Q316 738 310 742T304 753Q304 758 308 764Q324 792 337 809Q343 812 349 820T361 831Q373 837 391 831Q398 822 403 803Q409 780 413 773Q413 771 413 770Q413 766 416 765L415 759Q420 725 422 708Q422 705 423 696Z" />
<glyph unicode="&#xdc;" glyph-name="Udieresis" horiz-adv-x="445" d="M312 203Q296 177 263 124Q254 116 239 93T212 60Q156 -33 86 -43Q28 -21 22 26Q25 135 70 281Q83 323 158 527Q163 533 171 559Q177 579 192 587Q212 589 225 579Q228 566 233 540Q218 528
205 497Q191 463 181 452Q176 429 150 367Q128 316 125 280L118 276Q74 114 74 54Q74 28 79 7Q81 2 90 2Q98 1 106 7Q158 46 240 175Q257 196 280 240T317 303Q369 401 422 583Q449 602 463 594Q476 587 476 573Q476 564 467 542T457 511Q452 490 395 313Q357 195
347 112Q361 107 361 90Q361 83 345 38Q344 35 326 20Q317 17 313 21L304 27Q302 27 293 25Q291 96 312 203ZM287 670Q284 641 256 638Q241 647 241 653Q239 664 239 672Q239 700 262 700Q270 698 277 696T287 684V670ZM413 668Q411 646 389 644Q378 651 378 655Q376
664 376 670Q376 691 394 691Q400 690 406 688T413 679V668Z" />
<glyph unicode="&#xdf;" glyph-name="germandbls" horiz-adv-x="310" d="M77 293Q72 269 68 245T47 172Q46 158 33 114Q31 107 25 89Q17 58 5 16T-8 -33Q-8 -41 -6 -49L-14 -72Q-21 -72 -28 -75T-38 -79Q-41 -79 -48 -76Q-58 -68 -58 -47Q-58 -39 -57 -33L-56
-27Q-55 -20 -47 11Q-36 50 -20 113L1 187Q13 230 37 316Q42 336 44 346Q55 396 60 406Q60 409 61 410V413L63 417Q65 422 60 428Q78 450 83 507Q87 546 124 561Q135 565 146 566Q156 567 165 566Q174 565 178 562H211Q267 562 308 536Q331 509 332 487Q325 476
298 442Q297 435 283 426Q270 412 182 344Q176 342 163 329L153 319Q148 314 147 314T143 311Q247 300 293 249Q309 226 309 198Q309 180 302 165Q296 162 291 152T280 138L274 123Q253 104 213 64Q172 36 111 14Q74 1 53 1Q46 1 43 4T42 15Q44 26 58 42Q90 48
92 48Q128 66 196 107Q253 150 265 201Q238 261 177 255Q166 263 146 263Q130 263 122 270T106 286T98 303Q96 318 107 331Q193 386 269 469Q281 478 284 497Q259 518 205 521H203H197Q197 521 205 521Q207 521 209 522Q203 520 189 524Q181 526 173 527Q126 533
117 455Q116 446 116 443Q109 416 94 363Q95 358 91 351T87 341L77 293Z" />
<glyph unicode="&#xe0;" glyph-name="agrave" horiz-adv-x="228" d="M197 2Q191 0 179 -7Q165 -8 135 10Q134 19 127 39T119 71Q111 61 108 54Q69 5 62 -1Q32 -28 -3 -23Q-31 0 -31 43Q-31 79 -6 148Q40 274 130 338H146Q171 338 171 309Q171 300 164 271Q159
257 141 235Q138 227 116 220Q121 248 133 262Q134 266 138 279Q140 282 140 285Q140 289 138 293Q143 298 143 301Q137 302 121 283Q118 281 111 273Q3 147 1 45Q5 15 19 11Q49 19 81 67Q125 107 144 162Q147 171 177 297Q181 307 200 313Q210 303 210 290Q210
283 206 270Q201 254 200 249Q158 132 158 93Q158 43 178 25Q195 30 206 28Q207 24 207 20Q207 9 197 2ZM146 388L136 384Q134 393 130 398T125 405Q122 412 113 423Q108 431 99 446Q93 454 95 459V461L96 462Q99 467 105 467Q110 462 117 451T127 435T141 409Q144
403 146 388Z" />
<glyph unicode="&#xe1;" glyph-name="aacute" horiz-adv-x="228" d="M197 2Q191 0 179 -7Q165 -8 135 10Q134 19 127 39T119 71Q111 61 108 54Q69 5 62 -1Q32 -28 -3 -23Q-31 0 -31 43Q-31 79 -6 148Q40 274 130 338H146Q171 338 171 309Q171 300 164 271Q159
257 141 235Q138 227 116 220Q121 248 133 262Q134 266 138 279Q140 282 140 285Q140 289 138 293Q143 298 143 301Q137 302 121 283Q118 281 111 273Q3 147 1 45Q5 15 19 11Q49 19 81 67Q125 107 144 162Q147 171 177 297Q181 307 200 313Q210 303 210 290Q210
283 206 270Q201 254 200 249Q158 132 158 93Q158 43 178 25Q195 30 206 28Q207 24 207 20Q207 9 197 2ZM141 407Q153 450 189 475Q191 474 196 472T199 463Q198 460 195 458L194 457Q190 454 190 451Q172 426 168 417Q158 396 156 378Q153 375 147 375Q138 375
135 384Q137 393 141 407Z" />
<glyph unicode="&#xe2;" glyph-name="acircumflex" horiz-adv-x="228" d="M197 2Q191 0 179 -7Q165 -8 135 10Q134 19 127 39T119 71Q111 61 108 54Q69 5 62 -1Q32 -28 -3 -23Q-31 0 -31 43Q-31 79 -6 148Q40 274 130 338H146Q171 338 171 309Q171 300 164 271Q159
257 141 235Q138 227 116 220Q121 248 133 262Q134 266 138 279Q140 282 140 285Q140 289 138 293Q143 298 143 301Q137 302 121 283Q118 281 111 273Q3 147 1 45Q5 15 19 11Q49 19 81 67Q125 107 144 162Q147 171 177 297Q181 307 200 313Q210 303 210 290Q210
283 206 270Q201 254 200 249Q158 132 158 93Q158 43 178 25Q195 30 206 28Q207 24 207 20Q207 9 197 2ZM185 369Q176 357 174 371T171 399Q169 434 157 457Q140 445 131 421Q131 417 125 411V409Q123 404 118 399Q117 397 113 394Q116 392 111 392L113 394Q109
397 109 399Q109 405 116 419Q127 439 135 452Q140 459 151 469Q156 471 164 468Q168 452 179 426V423Q179 421 181 420L180 415Q183 391 185 377V369Z" />
<glyph unicode="&#xe3;" glyph-name="atilde" horiz-adv-x="255" d="M181 394Q186 396 187 396Q199 405 213 431Q221 445 226 445Q232 445 234 429Q229 421 220 408T188 373Q174 374 166 387Q159 404 152 421Q142 446 132 447Q119 442 110 424Q106 417 99 393Q97
387 91 386Q85 384 85 399Q85 424 107 453Q108 453 110 454T113 458Q126 468 137 467Q152 462 162 440Q165 428 176 412V408Q176 407 175 406L176 404Q177 400 179 401L180 395L181 396V394ZM237 2Q231 0 219 -7Q205 -8 175 10Q174 19 167 39T159 71Q151 61 148
54Q109 5 102 -1Q72 -28 37 -23Q9 0 9 43Q9 79 34 148Q80 274 170 338H186Q211 338 211 309Q211 300 204 271Q199 257 181 235Q178 227 156 220Q161 248 173 262Q174 266 178 279Q180 282 180 285Q180 289 178 293Q183 298 183 301Q177 302 161 283Q158 281 151
273Q43 147 41 45Q45 15 59 11Q89 19 121 67Q165 107 184 162Q187 171 217 297Q221 307 240 313Q250 303 250 290Q250 283 246 270Q241 254 240 249Q198 132 198 93Q198 43 218 25Q235 30 246 28Q247 24 247 20Q247 9 237 2Z" />
<glyph unicode="&#xe4;" glyph-name="adieresis" horiz-adv-x="218" d="M197 2Q191 0 179 -7Q165 -8 135 10Q134 19 127 39T119 71Q111 61 108 54Q69 5 62 -1Q32 -28 -3 -23Q-31 0 -31 43Q-31 79 -6 148Q40 274 130 338H146Q171 338 171 309Q171 300 164 271Q159
257 141 235Q138 227 116 220Q121 248 133 262Q134 266 138 279Q140 282 140 285Q140 289 138 293Q143 298 143 301Q137 302 121 283Q118 281 111 273Q3 147 1 45Q5 15 19 11Q49 19 81 67Q125 107 144 162Q147 171 177 297Q181 307 200 313Q210 303 210 290Q210
283 206 270Q201 254 200 249Q158 132 158 93Q158 43 178 25Q195 30 206 28Q207 24 207 20Q207 9 197 2ZM214 382Q193 382 188 393Q186 398 188 407L190 410Q191 414 180 433Q199 424 203 424Q212 426 220 429Q229 430 235 420Q237 413 229 391Q228 389 230 378Q219
382 214 382ZM78 428Q86 438 123 438Q119 418 119 417Q115 404 108 400Q93 388 79 398Q63 409 78 428Z" />
<glyph unicode="&#xe5;" glyph-name="aring" horiz-adv-x="234" d="M245 400Q196 410 180 453H175Q161 443 123 402Q112 390 99 379Q93 389 93 396Q93 404 105 415Q109 418 110 421Q147 493 218 513Q239 516 268 496Q284 480 284 453Q284 440 281 426Q274 410
245 400ZM244 469Q243 473 230 473H227Q226 468 226 463Q226 458 228 454T239 445Q244 443 246 445Q248 460 244 469ZM128 95V60Q128 44 132 33Q152 35 173 56Q179 62 190 73T207 91Q211 92 215 101T231 114Q237 108 237 103Q237 107 230 86Q193 46 191 44Q168
21 146 9Q120 9 110 14Q95 22 94 45Q94 50 92 56Q76 30 36 -17Q32 -33 13 -29Q-27 -29 -27 12Q-27 21 -17 71Q-10 71 -9 77Q-7 89 -6 90Q3 107 21 141T49 193Q81 251 122 283Q131 290 145 290Q174 290 183 267Q179 256 186 236Q194 215 179 204Q176 192 160 168T143
126Q133 120 134 109V100L128 95ZM76 173Q58 143 40 112Q17 71 15 49Q2 16 11 2Q12 -1 17 1Q32 20 61 58Q83 88 97 121Q97 119 107 149Q111 158 99 161Q97 176 107 179L109 180H110Q119 192 136 223Q135 229 146 246Q125 237 107 214Q97 200 76 173Z" />
<glyph unicode="&#xe6;" glyph-name="ae" horiz-adv-x="297" d="M313 252Q313 219 302 210Q299 197 287 176T271 143Q238 101 158 29Q171 -10 212 -10Q234 -10 261 -19Q218 -30 194 -30Q162 -30 146 -14Q144 -13 127 7Q121 14 113 5Q95 -7 69 -7Q13 -7 13 41Q13
51 17 77Q21 80 21 83L22 87Q25 100 30 103Q56 158 99 195Q115 224 172 248Q196 248 204 237L188 219Q171 200 160 198Q148 192 133 177Q111 155 108 152Q47 80 53 29Q58 23 65 19Q88 19 116 43Q128 176 253 281Q263 289 278 289Q309 289 314 264Q312 256 313 252ZM165
79Q267 167 276 248Q270 241 254 230Q182 159 165 79Z" />
<glyph unicode="&#xe7;" glyph-name="ccedilla" horiz-adv-x="228" d="M196 63Q200 65 203 65Q209 65 215 61Q212 46 197 37T168 19Q131 1 97 2Q97 -11 81 -26Q115 -32 125 -58Q126 -62 126 -67Q126 -83 109 -102Q64 -135 44 -135Q38 -135 31 -131T24 -122Q24
-118 34 -118T48 -115Q56 -113 72 -105Q81 -104 92 -94L107 -77Q109 -71 109 -66Q109 -61 107 -58Q103 -49 79 -42Q70 -40 52 -35V-36Q47 -34 45 -31Q50 -25 59 -25H71L73 -23Q84 -9 87 3Q86 3 75 5Q50 10 28 26Q5 48 5 90Q5 108 9 129Q73 280 168 310Q200 296
203 267Q204 260 199 255T187 252Q184 253 179 258T167 262L138 244Q122 234 114 222Q101 211 79 177Q61 159 53 133Q53 129 43 83Q46 53 64 45L70 43Q72 42 77 41Q100 36 166 54Q181 58 195 62L196 63Z" />
<glyph unicode="&#xe8;" glyph-name="egrave" horiz-adv-x="275" d="M223 364Q218 361 213 363Q204 365 202 365Q199 371 179 392Q172 397 160 409Q154 410 153 416L152 418L153 417L147 424Q145 426 144 428T143 435Q143 441 149 447Q185 413 227 391Q240 374
223 364ZM127 3Q73 18 62 110Q59 111 34 111Q17 111 7 127Q7 151 19 155Q32 155 45 154Q62 155 69 162Q84 266 147 324Q178 353 209 353Q232 353 239 341T249 327Q251 316 251 305Q251 251 175 176Q148 150 106 128Q103 120 103 110Q103 95 116 59Q137 36 160 36Q166
36 171 38Q202 44 276 97H295V79Q211 -1 156 -1Q142 -1 127 3ZM215 317Q182 307 136 247Q126 226 112 181Q162 211 204 269Q221 293 218 314L215 317Z" />
<glyph unicode="&#xe9;" glyph-name="eacute" horiz-adv-x="215" d="M190 425T183 418L182 416Q180 410 175 409Q158 397 133 365Q131 365 122 363Q117 361 112 364Q95 374 108 391Q150 413 186 447Q192 441 192 435Q192 431 191 428ZM72 3Q18 18 7 110Q4 111
-21 111Q-38 111 -48 127Q-48 151 -36 155Q-23 155 -10 154Q7 155 14 162Q29 266 92 324Q123 353 154 353Q177 353 184 341T194 327Q196 316 196 305Q196 251 120 176Q93 150 51 128Q48 120 48 110Q48 95 61 59Q82 36 105 36Q111 36 116 38Q147 44 221 97H240V79Q156
-1 101 -1Q87 -1 72 3ZM160 317Q127 307 81 247Q71 226 57 181Q107 211 149 269Q166 293 163 314L160 317Z" />
<glyph unicode="&#xea;" glyph-name="ecircumflex" horiz-adv-x="250" d="M217 18L214 16Q209 13 209 5Q125 -53 77 -53Q50 -53 25 -39Q-19 -8 -19 65Q24 236 158 328Q162 329 181 331Q198 333 207 323T216 295Q213 281 211 268Q190 208 86 134Q80 130 52 126Q36
124 36 108Q22 86 22 55Q22 35 28 11Q44 -16 82 -18L86 -16Q102 -17 130 -7Q159 9 222 37Q225 26 217 18ZM175 277Q172 280 168 283Q113 252 69 173Q74 173 80 176Q106 199 133 222Q164 252 175 277ZM223 396Q218 391 213 391Q201 391 200 406T195 443Q191 489
178 518Q156 501 144 470Q143 466 137 459Q137 455 133 449T127 441T121 435Q121 434 118 433L121 435Q112 443 112 447Q111 452 118 464Q134 492 147 509Q154 517 171 531Q179 535 191 531Q198 522 203 503Q209 480 213 473Q213 471 213 470Q213 466 216 465L215
459Q220 425 222 408Q222 405 223 396Z" />
<glyph unicode="&#xeb;" glyph-name="edieresis" horiz-adv-x="250" d="M217 18L214 16Q209 13 209 5Q125 -53 77 -53Q50 -53 25 -39Q-19 -8 -19 65Q24 236 158 328Q162 329 181 331Q198 333 207 323T216 295Q213 281 211 268Q190 208 86 134Q80 130 52 126Q36
124 36 108Q22 86 22 55Q22 35 28 11Q44 -16 82 -18L86 -16Q102 -17 130 -7Q159 9 222 37Q225 26 217 18ZM175 277Q172 280 168 283Q113 252 69 173Q74 173 80 176Q106 199 133 222Q164 252 175 277ZM107 420Q104 391 76 388Q61 397 61 403Q59 414 59 422Q59 450
82 450Q90 448 97 446T107 434V420ZM193 418Q191 396 169 394Q158 401 158 405Q156 414 156 420Q156 441 174 441Q180 440 186 438T193 429V418Z" />
<glyph unicode="&#xec;" glyph-name="igrave" horiz-adv-x="152" d="M113 41Q104 26 83 -2Q44 -26 26 -25Q8 -24 -14 5Q-16 23 -16 41Q-16 123 25 258Q30 274 52 324Q58 331 68 331Q78 331 87 324T96 308Q96 303 93 299Q68 258 49 203L37 139Q22 57 24 26Q26 20
34 10Q38 9 46 16T57 25Q69 33 90 56T127 86L150 113Q132 53 113 41ZM83 384Q78 381 73 383Q64 385 62 385Q59 391 39 412Q32 417 20 429Q14 430 13 436L12 438L13 437L7 444Q5 446 4 448T3 455Q3 461 9 467Q45 433 87 411Q100 394 83 384Z" />
<glyph unicode="&#xed;" glyph-name="iacute" horiz-adv-x="152" d="M113 41Q104 26 83 -2Q44 -26 26 -25Q8 -24 -14 5Q-16 23 -16 41Q-16 123 25 258Q30 274 52 324Q58 331 68 331Q78 331 87 324T96 308Q96 303 93 299Q68 258 49 203L37 139Q22 57 24 26Q26 20
34 10Q38 9 46 16T57 25Q69 33 90 56T127 86L150 113Q132 53 113 41ZM120 445T113 438L112 436Q110 430 105 429Q88 417 63 385Q61 385 52 383Q47 381 42 384Q25 394 38 411Q80 433 116 467Q122 461 122 455Q122 451 121 448Z" />
<glyph unicode="&#xee;" glyph-name="icircumflex" horiz-adv-x="152" d="M113 41Q104 26 83 -2Q44 -26 26 -25Q8 -24 -14 5Q-16 23 -16 41Q-16 123 25 258Q30 274 52 324Q58 331 68 331Q78 331 87 324T96 308Q96 303 93 299Q68 258 49 203L37 139Q22 57 24 26Q26
20 34 10Q38 9 46 16T57 25Q69 33 90 56T127 86L150 113Q132 53 113 41ZM123 396Q118 391 113 391Q101 391 100 406T95 443Q91 489 78 518Q56 501 44 470Q43 466 37 459Q37 455 33 449T27 441T21 435Q21 434 18 433L21 435Q16 438 10 442T4 453Q4 458 8 464Q24
492 37 509Q43 512 49 520T61 531Q73 537 91 531Q98 522 103 503Q109 480 113 473Q113 471 113 470Q113 466 116 465L115 459Q120 425 122 408Q122 405 123 396Z" />
<glyph unicode="&#xef;" glyph-name="idieresis" horiz-adv-x="152" d="M113 41Q104 26 83 -2Q44 -26 26 -25Q8 -24 -14 5Q-16 23 -16 41Q-16 123 25 258Q30 274 52 324Q58 331 68 331Q78 331 87 324T96 308Q96 303 93 299Q68 258 49 203L37 139Q22 57 24 26Q26
20 34 10Q38 9 46 16T57 25Q69 33 90 56T127 86L150 113Q132 53 113 41ZM57 420Q54 391 26 388Q11 397 11 403Q9 414 9 422Q9 450 32 450Q40 448 47 446T57 434V420ZM143 418Q141 396 119 394Q108 401 108 405Q106 414 106 420Q106 441 124 441Q130 440 136 438T143
429V418Z" />
<glyph unicode="&#xf1;" glyph-name="ntilde" horiz-adv-x="293" d="M260 190Q253 157 247 125Q239 84 239 60Q239 16 262 -17Q252 -20 244 -20Q230 -20 219 -11Q200 22 200 68Q200 97 209 141L223 211L222 213Q184 184 136 112Q85 36 55 8Q41 2 30 2Q24 2 18
4Q1 17 9 48Q20 91 40 162Q58 228 64 278Q71 287 81 287Q91 287 99 276T106 255L63 78Q67 89 83 106Q134 177 149 195Q189 242 232 269Q265 269 265 234Q265 227 263 212T260 190ZM181 394Q186 396 187 396Q199 405 213 431Q221 445 226 445Q232 445 234 429Q229
421 220 408T188 373Q174 374 166 387Q159 404 152 421Q142 446 132 447Q119 442 110 424Q106 417 99 393Q97 387 91 386Q85 384 85 399Q85 424 107 453Q108 453 110 454T113 458Q126 468 137 467Q152 462 162 440Q165 428 176 412V408Q176 407 175 406L176 404Q177
400 179 401L180 395L181 396V394Z" />
<glyph unicode="&#xf2;" glyph-name="ograve" horiz-adv-x="246" d="M186 89Q178 86 173 75Q164 61 163 59Q150 44 120 22Q89 -14 37 -14Q23 -14 9 -10Q-24 11 -28 63Q-23 89 -6 124Q8 152 23 181Q31 189 44 207T71 231Q85 250 110 253Q119 250 141 268Q145 272
155 278Q182 278 194 272Q222 247 222 199Q222 174 215 148Q207 128 186 89ZM186 220Q184 241 170 250L138 239L146 227Q145 212 144 198Q141 180 132 172Q127 170 123 170Q112 170 110 198Q110 198 110 201Q101 198 86 183T64 164Q33 112 30 103Q14 68 17 36Q23
25 34 23Q138 42 185 175Q185 193 185 204T185 219Q186 223 186 220ZM133 344Q128 341 123 343Q114 345 112 345Q109 351 89 372Q82 377 70 389Q64 390 63 396L62 398L63 397L57 404Q55 406 54 408T53 415Q53 421 59 427Q95 393 137 371Q150 354 133 344Z" />
<glyph unicode="&#xf3;" glyph-name="oacute" horiz-adv-x="246" d="M186 89Q178 86 173 75Q164 61 163 59Q150 44 120 22Q89 -14 37 -14Q23 -14 9 -10Q-24 11 -28 63Q-23 89 -6 124Q8 152 23 181Q31 189 44 207T71 231Q85 250 110 253Q119 250 141 268Q145 272
155 278Q182 278 194 272Q222 247 222 199Q222 174 215 148Q207 128 186 89ZM186 220Q184 241 170 250L138 239L146 227Q145 212 144 198Q141 180 132 172Q127 170 123 170Q112 170 110 198Q110 198 110 201Q101 198 86 183T64 164Q33 112 30 103Q14 68 17 36Q23
25 34 23Q138 42 185 175Q185 193 185 204T185 219Q186 223 186 220ZM180 395T173 388L172 386Q170 380 165 379Q148 367 123 335Q121 335 112 333Q107 331 102 334Q85 344 98 361Q140 383 176 417Q182 411 182 405Q182 401 181 398Z" />
<glyph unicode="&#xf4;" glyph-name="ocircumflex" horiz-adv-x="246" d="M186 89Q178 86 173 75Q164 61 163 59Q150 44 120 22Q89 -14 37 -14Q23 -14 9 -10Q-24 11 -28 63Q-23 89 -6 124Q8 152 23 181Q31 189 44 207T71 231Q85 250 110 253Q119 250 141 268Q145
272 155 278Q182 278 194 272Q222 247 222 199Q222 174 215 148Q207 128 186 89ZM186 220Q184 241 170 250L138 239L146 227Q145 212 144 198Q141 180 132 172Q127 170 123 170Q112 170 110 198Q110 198 110 201Q101 198 86 183T64 164Q33 112 30 103Q14 68 17
36Q23 25 34 23Q138 42 185 175Q185 193 185 204T185 219Q186 223 186 220ZM197 330Q193 324 187 324Q176 324 173 338T166 374Q158 419 142 447Q122 429 113 397Q112 392 107 385Q107 381 103 375T99 367T93 360Q94 359 94 359Q93 358 90 357L93 360Q87 363 81
366T75 377Q75 382 77 388Q91 417 103 434Q108 438 113 447T125 459Q136 466 154 461Q162 453 169 434Q177 412 181 405Q181 403 181 403Q181 399 185 398L184 391Q193 358 196 342Q196 339 197 330Z" />
<glyph unicode="&#xf5;" glyph-name="otilde" horiz-adv-x="246" d="M186 89Q178 86 173 75Q164 61 163 59Q150 44 120 22Q89 -14 37 -14Q23 -14 9 -10Q-24 11 -28 63Q-23 89 -6 124Q8 152 23 181Q31 189 44 207T71 231Q85 250 110 253Q119 250 141 268Q145 272
155 278Q182 278 194 272Q222 247 222 199Q222 174 215 148Q207 128 186 89ZM186 220Q184 241 170 250L138 239L146 227Q145 212 144 198Q141 180 132 172Q127 170 123 170Q112 170 110 198Q110 198 110 201Q101 198 86 183T64 164Q33 112 30 103Q14 68 17 36Q23
25 34 23Q138 42 185 175Q185 193 185 204T185 219Q186 223 186 220ZM151 364Q156 366 157 366Q169 375 183 401Q191 415 196 415Q202 415 204 399Q199 391 190 378T158 343Q144 344 136 357Q129 374 122 391Q112 416 102 417Q89 412 80 394Q76 387 69 363Q67 357
61 356Q55 354 55 369Q55 394 77 423Q78 423 80 424T83 428Q96 438 107 437Q122 432 132 410Q135 398 146 382V378Q146 377 145 376L146 374Q147 370 149 371L150 365L151 366V364Z" />
<glyph unicode="&#xf6;" glyph-name="odieresis" horiz-adv-x="246" d="M186 89Q178 86 173 75Q164 61 163 59Q150 44 120 22Q89 -14 37 -14Q23 -14 9 -10Q-24 11 -28 63Q-23 89 -6 124Q8 152 23 181Q31 189 44 207T71 231Q85 250 110 253Q119 250 141 268Q145
272 155 278Q182 278 194 272Q222 247 222 199Q222 174 215 148Q207 128 186 89ZM186 220Q184 241 170 250L138 239L146 227Q145 212 144 198Q141 180 132 172Q127 170 123 170Q112 170 110 198Q110 198 110 201Q101 198 86 183T64 164Q33 112 30 103Q14 68 17
36Q23 25 34 23Q138 42 185 175Q185 193 185 204T185 219Q186 223 186 220ZM107 380Q104 351 76 348Q61 357 61 363Q59 374 59 382Q59 410 82 410Q90 408 97 406T107 394V380ZM193 378Q191 356 169 354Q158 361 158 365Q156 374 156 380Q156 401 174 401Q180 400
186 398T193 389V378Z" />
<glyph unicode="&#xf7;" glyph-name="divide" horiz-adv-x="365" d="M363 253Q314 254 220 246Q109 237 48 222Q28 225 12 241Q19 260 36 262Q63 265 67 266Q147 287 303 287Q334 287 360 281L370 270Q370 262 363 253ZM188 355Q159 358 156 386Q165 401 171 401Q182
403 190 403Q218 403 218 380Q216 372 214 365T202 355H188ZM186 129Q164 131 162 153Q169 164 173 164Q182 166 188 166Q209 166 209 148Q208 142 206 136T197 129H186Z" />
<glyph unicode="&#xf8;" glyph-name="oslash" horiz-adv-x="219" d="M214 233Q203 232 198 223L194 219Q194 171 193 161Q190 130 176 106Q166 73 142 47Q117 25 92 2Q65 -7 40 -7Q27 -7 15 -5Q9 6 1 8Q-23 -10 -71 -49Q-92 -83 -145 -115Q-116 -64 -80 -24Q-58
1 -23 40Q-27 61 -27 82Q-27 187 71 273Q75 274 86 278T104 282Q109 282 116 279Q136 274 174 254Q182 259 193 274T213 294Q241 331 256 331Q263 331 271 327L285 313Q292 306 294 291Q245 284 214 233ZM57 202Q5 146 12 79Q35 102 80 151T149 223V232Q146 237
141 235L137 233Q127 228 119 230Q105 215 67 193Q59 196 57 202ZM160 159Q164 177 160 179Q129 149 67 87Q51 71 22 36Q34 21 59 24Q128 47 158 147Q158 150 160 159Z" />
<glyph unicode="&#xf9;" glyph-name="ugrave" horiz-adv-x="312" d="M295 50Q282 39 264 21Q238 6 220 6Q193 6 183 41Q181 44 179 54Q175 70 171 70Q170 70 112 7Q75 -26 17 -34Q-11 -2 -11 41Q-11 60 -5 91Q1 127 2 141Q17 216 58 287Q69 289 82 280Q85 272
85 266Q85 258 77 244Q67 226 66 222Q50 175 28 92Q26 67 26 49Q26 20 31 8Q57 12 72 22Q73 23 105 48Q112 62 155 117Q187 158 192 191Q219 256 244 295Q261 306 267 289Q270 280 270 272Q270 257 259 234Q247 208 245 197Q217 161 211 92Q212 87 214 65Q216 48
225 45Q239 48 250 55Q267 67 271 69Q283 81 306 101L318 93Q312 64 295 50ZM183 364Q178 361 173 363Q164 365 162 365Q159 371 139 392Q132 397 120 409Q114 410 113 416L112 418L113 417L107 424Q105 426 104 428T103 435Q103 441 109 447Q145 413 187 391Q200
374 183 364Z" />
<glyph unicode="&#xfa;" glyph-name="uacute" horiz-adv-x="312" d="M295 50Q282 39 264 21Q238 6 220 6Q193 6 183 41Q181 44 179 54Q175 70 171 70Q170 70 112 7Q75 -26 17 -34Q-11 -2 -11 41Q-11 60 -5 91Q1 127 2 141Q17 216 58 287Q69 289 82 280Q85 272
85 266Q85 258 77 244Q67 226 66 222Q50 175 28 92Q26 67 26 49Q26 20 31 8Q57 12 72 22Q73 23 105 48Q112 62 155 117Q187 158 192 191Q219 256 244 295Q261 306 267 289Q270 280 270 272Q270 257 259 234Q247 208 245 197Q217 161 211 92Q212 87 214 65Q216 48
225 45Q239 48 250 55Q267 67 271 69Q283 81 306 101L318 93Q312 64 295 50ZM210 405T203 398L202 396Q200 390 195 389Q178 377 153 345Q151 345 142 343Q137 341 132 344Q115 354 128 371Q170 393 206 427Q212 421 212 415Q212 411 211 408Z" />
<glyph unicode="&#xfb;" glyph-name="ucircumflex" horiz-adv-x="312" d="M295 50Q282 39 264 21Q238 6 220 6Q193 6 183 41Q181 44 179 54Q175 70 171 70Q170 70 112 7Q75 -26 17 -34Q-11 -2 -11 41Q-11 60 -5 91Q1 127 2 141Q17 216 58 287Q69 289 82 280Q85
272 85 266Q85 258 77 244Q67 226 66 222Q50 175 28 92Q26 67 26 49Q26 20 31 8Q57 12 72 22Q73 23 105 48Q112 62 155 117Q187 158 192 191Q219 256 244 295Q261 306 267 289Q270 280 270 272Q270 257 259 234Q247 208 245 197Q217 161 211 92Q212 87 214 65Q216
48 225 45Q239 48 250 55Q267 67 271 69Q283 81 306 101L318 93Q312 64 295 50ZM233 366Q228 361 223 361Q211 361 210 376T205 413Q201 459 188 488Q166 471 154 440Q153 436 147 429Q147 425 143 419T137 411T131 405Q131 404 128 403L131 405Q126 408 120 412T114
423Q114 428 118 434Q134 462 147 479Q153 482 159 490T171 501Q183 507 201 501Q208 492 213 473Q219 450 223 443Q223 441 223 440Q223 436 226 435L225 429Q230 395 232 378Q232 375 233 366Z" />
<glyph unicode="&#xfc;" glyph-name="udieresis" horiz-adv-x="366" d="M215 125L214 124Q196 99 162 72Q110 31 105 26Q86 22 57 5Q49 2 43 2Q36 2 26 10T11 21Q6 39 6 57Q6 96 34 149Q40 161 96 277Q105 297 121 315Q134 293 134 273Q134 250 116 221Q101 198
85 170Q60 115 59 112Q45 79 41 52L51 45Q74 52 108 77L161 115Q233 178 297 297Q306 300 322 281Q323 279 331 277Q248 134 248 76Q248 66 250 56Q256 53 262 53Q272 53 297 68Q309 75 317 76Q339 88 406 141Q416 138 416 128Q416 119 408 111Q401 108 389 92T367
71Q364 70 313 33Q281 10 252 10Q238 10 223 15Q206 38 206 73Q206 99 215 125ZM218 127L217 126H216L215 125Q218 125 218 127ZM227 420Q224 391 196 388Q181 397 181 403Q179 414 179 422Q179 450 202 450Q210 448 217 446T227 434V420ZM313 418Q311 396 289
394Q278 401 278 405Q276 414 276 420Q276 441 294 441Q300 440 306 438T313 429V418Z" />
<glyph unicode="&#xff;" glyph-name="ydieresis" horiz-adv-x="289" d="M222 79Q197 41 199 22Q138 -80 114 -116Q65 -191 18 -248Q-24 -285 -40 -294Q-72 -313 -112 -313Q9 -216 120 -23Q119 -18 96 0Q56 31 44 124Q40 158 30 247Q33 272 46 272Q57 272 66 257T76
229Q77 169 85 108T140 20Q202 126 242 222Q264 231 266 231Q273 231 277 224L287 214Q280 188 256 146Q230 100 222 79ZM137 370Q134 341 106 338Q91 347 91 353Q89 364 89 372Q89 400 112 400Q120 398 127 396T137 384V370ZM263 368Q261 346 239 344Q228 351
228 355Q226 364 226 370Q226 391 244 391Q250 390 256 388T263 379V368Z" />
<glyph unicode="&#x131;" glyph-name="dotlessi" horiz-adv-x="1342" d="M859 530Q860 530 860 531L859 530ZM859 533L857 528Q857 528 858 528L859 530V533ZM1174 307H1176L1179 306Q1181 305 1183 305T1210 296Q1259 281 1292 266Q1306 255 1304 244Q1264 228
1230 213Q1206 202 1188 196L1190 195Q1194 191 1195 189Q1213 171 1248 135Q1252 134 1252 132L1256 127Q1261 122 1264 122Q1273 115 1273 107Q1271 102 1261 96Q1235 97 1199 93Q1185 94 1155 91L1158 74Q1163 44 1173 14Q1176 9 1180 -2T1187 -17T1189 -24Q1189
-33 1175 -33Q1165 -24 1119 -1L1097 10Q1096 4 1092 -8Q1087 -54 1066 -142Q1062 -145 1059 -145Q1055 -145 1051 -141T1046 -137Q1034 -118 1006 -82Q982 -121 974 -159L973 -157Q968 -171 964 -196Q959 -201 954 -201Q950 -201 946 -197Q922 -161 904 -129Q902
-126 902 -124L899 -120L898 -118Q882 -143 818 -235Q807 -236 798 -219Q791 -193 770 -145Q752 -170 711 -216Q709 -221 706 -221Q700 -229 688 -246Q684 -249 680 -249Q673 -249 667 -240Q658 -208 632 -147L631 -148Q627 -152 623 -155Q595 -182 537 -234Q533
-234 530 -237L528 -240Q523 -245 516 -245Q512 -245 507 -243Q500 -230 498 -172Q497 -169 497 -163T496 -154Q497 -147 493 -137T489 -121Q460 -136 399 -162Q396 -165 384 -170Q382 -170 376 -175Q367 -164 367 -156Q367 -154 374 -132Q379 -122 393 -79H390Q327
-107 271 -130Q267 -126 261 -109Q265 -91 275 -67L292 -26Q290 -23 292 -21Q272 -29 203 -49Q199 -51 186 -54Q167 -58 154 -53Q152 -30 166 -12Q188 17 189 20L194 31H196Q203 40 215 59L171 57Q103 54 71 62Q56 66 56 78Q56 81 57 85Q62 95 75 101T91 110Q108
118 140 137Q87 151 77 154Q38 165 18 177Q14 178 11 181L10 182Q6 191 6 198Q6 202 8 205Q14 211 21 210H23Q25 208 27 212Q37 216 55 222Q86 232 127 250Q104 268 52 315Q49 323 40 333Q39 336 37 340L41 339L43 345Q47 347 49 347Q51 347 55 345L56 344Q67 345
112 349Q124 350 153 347Q155 348 162 348Q162 352 160 361T158 376Q148 403 130 455L132 461H131V462Q131 468 137 472Q141 470 157 461Q165 456 187 433Q206 413 220 410Q222 416 228 426Q233 445 241 481V485L239 483Q245 504 253 570Q258 573 261 573Q265 573
266 570L269 568L274 567Q274 568 283 538Q285 531 291 520Q298 501 315 463Q319 470 327 501L336 534Q336 534 340 565Q343 580 348 610Q349 617 360 616Q367 612 372 603T380 590Q392 560 421 503Q430 549 456 637Q471 637 477 628Q484 614 487 613Q504 584 535
525Q544 538 563 561L565 569L567 568Q575 580 588 605Q588 605 594 614Q597 620 602 620Q606 620 612 616Q615 610 621 595Q633 565 639 522Q646 538 680 576L684 586L685 585Q691 592 699 605Q700 609 704 613L705 615Q707 615 707 617L712 623Q712 624 713 624V625Q715
627 718 627Q727 627 743 585Q750 557 751 533L753 537Q754 538 756 540L758 541L762 546Q767 552 772 553Q773 556 777 558L779 559Q780 559 780 562Q796 574 823 601L829 607L831 611Q836 616 840 616Q844 616 847 613L851 611Q857 591 860 560Q858 558 859 555Q861
552 860 550Q859 548 859 539V533L863 545Q862 540 860 531L861 532Q869 543 869 550Q873 551 875 553V556Q877 560 880 563Q886 571 894 584L901 592Q908 600 924 619Q931 617 940 609Q938 588 940 551Q941 536 939 512Q938 499 939 471Q964 489 1013 524Q1020
527 1030 539Q1036 544 1048 552Q1051 557 1057 559H1063Q1071 551 1071 538Q1071 529 1066 517Q1067 513 1062 503L1040 431V426L1039 424Q1081 449 1168 488Q1179 492 1186 492Q1191 492 1194 490Q1197 485 1197 480Q1197 474 1192 466Q1184 455 1183 454Q1158
426 1114 366Q1120 368 1125 368Q1149 376 1262 385L1266 384L1267 385Q1274 385 1277 383Q1282 377 1282 372Q1282 367 1276 362Q1265 360 1249 351Q1230 340 1222 337L1174 307ZM185 -28L184 -30L185 -29Q190 -28 189 -28H185ZM1263 255Q1248 261 1226 268Q1217
273 1180 281Q1151 287 1138 304Q1138 316 1148 317Q1154 321 1169 331Q1171 333 1177 337L1180 338Q1183 339 1187 344Q1195 349 1212 356L1213 357Q1203 356 1190 353Q1193 352 1172 352Q1168 350 1164 351Q1135 347 1090 332Q1077 338 1076 350Q1083 361 1098
382Q1098 386 1102 388L1104 389L1106 395Q1109 398 1114 404Q1128 423 1158 459L1160 461Q1138 454 1095 427T1025 394Q1014 399 1015 409Q1016 422 1015 424Q1018 437 1026 462Q1026 466 1028 473T1031 485Q1035 489 1036 498T1040 512Q1042 513 1042 515V517Q1022
499 975 465Q971 464 968 461L964 459Q962 457 961 457Q952 447 928 436Q916 438 916 457Q918 465 916 478Q917 483 917 532Q916 539 918 553Q915 560 917 570V574Q902 555 876 507Q865 486 852 470Q849 468 846 468Q832 468 832 492Q832 498 834 512T836 534Q838
542 836 556Q834 571 834 578Q814 561 777 525Q769 511 750 484Q747 482 744 482Q741 482 738 485L737 486Q728 504 728 524Q728 531 729 539Q729 547 724 562Q722 568 720 582Q720 584 718 589Q694 557 647 489V487Q643 477 635 478Q629 478 623 489Q619 507 613
543Q606 557 603 578Q600 572 596 568L539 486Q528 485 519 502Q508 537 468 597Q461 577 458 564Q450 530 441 479L440 476V472Q440 464 434 460Q428 459 421 462Q414 473 378 541Q376 545 370 558Q367 560 365 566L364 563Q361 535 360 539Q356 518 345 475Q344
470 340 458Q339 451 333 437Q332 431 331 425T322 417Q314 415 311 422Q308 425 306 431Q287 466 270 513L258 447Q251 409 238 384Q232 379 227 379Q231 379 207 387Q200 390 166 423Q183 387 190 338Q191 329 186 326T171 322Q107 325 89 322Q87 321 82 321H80L88
313Q104 303 131 278Q156 267 160 244Q161 239 157 235L155 233Q129 222 76 201Q54 195 43 190Q45 189 94 174Q119 171 171 152Q173 146 175 141Q176 134 170 130Q155 117 133 104Q100 84 93 81H98Q103 80 115 78Q120 79 125 79Q132 79 140 77L141 78Q146 81 152
80H180Q184 82 192 82T205 84H222Q245 84 242 68V58Q233 44 216 17Q205 3 186 -26Q199 -25 215 -22Q226 -18 231 -18Q242 -13 271 -2Q276 0 287 4L302 10Q313 11 316 -2Q315 -17 294 -79L293 -81Q292 -85 288 -98Q301 -94 333 -78Q337 -76 369 -61H366Q393 -53
404 -43Q407 -44 408 -45H411Q416 -45 421 -51Q421 -53 416 -84Q407 -106 410 -116L405 -117L398 -137Q405 -134 444 -117Q459 -113 484 -96V-95Q486 -87 490 -86L494 -85Q504 -85 506 -89L508 -91Q512 -94 512 -98Q512 -101 510 -104Q510 -108 513 -116T517 -129Q520
-157 523 -211Q536 -203 542 -195Q549 -191 551 -188H552Q554 -183 560 -177L562 -175L564 -174L569 -170Q571 -167 574 -166Q588 -150 598 -141T635 -112Q643 -120 653 -137Q662 -163 681 -214Q689 -206 704 -190Q709 -185 717 -171L720 -168Q723 -165 725 -164Q747
-130 760 -114Q764 -107 769 -107Q773 -107 779 -113Q793 -138 815 -196Q822 -186 837 -168Q837 -166 840 -161Q842 -160 845 -156L848 -152Q850 -152 851 -148T868 -121Q876 -111 886 -88Q889 -83 901 -83Q911 -101 939 -143Q942 -147 948 -158L949 -155Q950 -153
951 -143Q955 -128 968 -100V-99L969 -98L968 -96Q969 -94 971 -92Q978 -81 991 -54Q996 -44 1010 -49Q1023 -70 1053 -107Q1053 -104 1054 -99V-91Q1056 -87 1057 -79T1061 -67Q1063 -56 1065 -39Q1066 -47 1068 -16Q1070 -5 1070 11Q1072 12 1073 21T1079 36Q1094
38 1097 35Q1115 27 1152 12Q1146 28 1142 38Q1139 54 1132 85Q1127 107 1128 109Q1131 117 1142 115Q1171 116 1230 123Q1212 143 1200 150L1198 153L1197 154Q1197 155 1194 156Q1179 174 1164 189L1162 191Q1155 200 1158 209Q1168 214 1188 221Q1214 232 1254
250Q1255 251 1256 252H1257L1260 254Q1261 254 1262 255H1263Z" />
<glyph unicode="&#x152;" glyph-name="OE" horiz-adv-x="561" d="M395 86Q393 89 390 91L393 88Q394 87 395 86ZM199 407L205 410Q211 413 210 413Q234 421 263 421Q295 421 376 396Q431 379 463 337Q480 314 494 288Q500 272 499 261Q502 250 502 216Q500 210
500 208L499 204Q500 201 498 194Q497 193 497 189T495 183Q490 172 485 164Q485 161 482 158L481 157Q478 153 474 147L468 140Q459 127 417 95Q411 90 401 85L399 83L398 84Q382 73 362 66Q360 64 347 59Q339 57 334 56Q323 51 309 49L308 47L282 46L281 45Q276
46 265 44Q259 43 248 45H236Q219 47 217 47L200 50Q170 60 155 68H153Q115 84 85 116Q78 121 66 136Q41 162 34 213Q38 251 44 272T69 328Q73 337 95 357L94 356Q137 392 180 396Q181 396 181 397H182L183 398L185 399Q193 407 198 407L199 408V407ZM372 260L375
261Q384 263 391 263Q412 263 417 229Q419 214 427 193Q430 188 430 184Q430 179 427 176L425 174Q423 173 417 163Q414 158 413 157L408 152Q398 136 390 128Q389 126 386 121L383 118Q383 114 380 112L379 111H378Q375 109 370 109Q367 109 364 109T351 112T336
115Q327 117 308 121V118Q311 107 318 86Q314 75 306 75L304 76V75Q278 90 238 130L239 127Q239 125 240 120V112Q236 107 232 106Q230 105 225 106Q219 107 217 107Q208 110 187 110T154 116Q147 124 131 139L107 162Q99 169 96 180Q99 188 104 188Q110 202 121
229L119 228Q101 225 103 225Q94 238 96 250L108 251L117 260Q131 274 147 285Q138 287 138 296Q137 298 137 300V304Q140 307 147 310Q148 310 148 311Q151 319 156 324Q162 333 174 349V352Q178 358 185 361Q186 362 189 364T195 366Q197 374 195 374Q190 377
181 375Q168 372 166 372Q132 362 98 331Q81 312 72 289Q72 284 69 281L67 278V277Q65 270 61 258Q61 253 58 242T56 224V221Q55 219 55 218V215Q55 215 64 172Q93 120 145 93T258 65Q311 65 341 81Q382 89 425 127T479 205Q481 223 481 239Q481 280 467 302T418
356Q402 363 362 380Q360 381 353 383Q341 385 334 389Q272 401 259 400Q251 401 221 397L220 396L218 395H215Q215 395 206 391Q213 386 215 378Q215 369 206 367L200 365Q201 365 202 364Q208 365 219 368T236 372Q237 372 240 373T245 374Q271 378 321 383Q325
383 331 384Q337 385 340 384Q348 380 350 373L352 361Q356 349 358 344Q359 343 359 342Q369 346 392 352H396Q402 354 406 348T409 335Q408 334 403 326Q392 308 372 260ZM301 284Q311 282 331 276Q338 273 352 268Q361 287 378 324L351 315Q338 332 333 354Q331
356 329 362Q330 363 329 363Q307 362 267 356Q279 348 301 330Q304 328 317 320Q327 323 331 312Q331 297 320 297L301 284ZM349 231Q351 221 354 200Q373 202 384 203T399 206T400 207V211Q398 222 391 242Q377 239 349 231ZM256 338L253 340Q242 342 238 350Q230
349 199 340Q198 338 194 334V333Q191 331 183 323Q183 318 178 318L176 314Q174 312 171 306Q188 305 219 301Q234 318 254 337L256 338ZM292 265L301 263Q301 263 300 264Q292 266 287 266Q289 266 292 265ZM287 266Q282 267 277 268T268 277Q272 291 295 307Q288
315 280 319Q277 324 273 325L270 322L263 317Q259 314 252 305L249 303Q243 296 233 279Q229 276 224 276Q220 276 215 279Q209 279 195 281Q202 264 218 231Q219 229 223 223T228 210Q230 199 219 199Q215 199 212 202H211Q203 208 197 210Q195 198 192 190Q208
194 221 195L223 191L226 190Q227 190 230 189Q235 184 237 177Q238 178 263 222Q266 225 269 225Q272 225 276 223Q278 224 281 224Q290 224 296 205L299 196V192Q308 193 334 197Q332 209 331 216L330 218Q327 220 325 223Q315 221 310 237Q313 242 315 243L316
244Q325 248 336 251Q307 262 292 265L287 266ZM287 266L292 265Q289 266 287 266ZM304 143T316 141T335 138Q346 136 366 132L368 134Q387 156 397 176Q398 178 400 181L402 184Q388 184 361 179Q359 179 354 176T344 173L342 175Q340 175 301 169Q299 169 296
167H285Q279 167 277 175Q275 182 279 187L276 199L275 197L273 195Q273 193 258 170Q254 164 248 150Q261 136 288 109Q284 127 283 137Q287 145 292 145Q295 145 299 144ZM193 236Q188 250 173 275L140 253V252Q148 252 154 249L158 244Q162 237 161 233Q158
226 151 226Q148 226 144 227Q143 223 134 204Q136 206 138 210T143 217Q141 213 139 210Q133 199 123 175L157 141Q160 147 160 151T162 162L160 164L158 165Q155 168 156 173Q156 181 169 185Q176 207 177 228Q184 240 193 236ZM178 133Q180 133 182 132Q194
132 218 130Q218 157 216 171Q205 169 184 165Q178 139 178 133Z" />
<glyph unicode="&#x153;" glyph-name="oe" horiz-adv-x="297" d="M313 252Q313 219 302 210Q299 197 287 176T271 143Q238 101 158 29Q171 -10 212 -10Q234 -10 261 -19Q218 -30 194 -30Q162 -30 146 -14Q144 -13 127 7Q121 14 113 5Q95 -7 69 -7Q13 -7 13 41Q13
51 17 77Q21 80 21 83L22 87Q25 100 30 103Q56 158 99 195Q115 224 172 248Q196 248 204 237L188 219Q171 200 160 198Q148 192 133 177Q111 155 108 152Q47 80 53 29Q58 23 65 19Q88 19 116 43Q128 176 253 281Q263 289 278 289Q309 289 314 264Q312 256 313 252ZM165
79Q267 167 276 248Q270 241 254 230Q182 159 165 79Z" />
<glyph unicode="&#x178;" glyph-name="Ydieresis" horiz-adv-x="398" d="M-5 -38V-41H-19Q-15 -22 3 -12Q17 -4 18 6Q54 34 86 70Q106 94 146 141Q158 154 175 184Q184 193 196 212Q181 236 183 247Q173 259 153 316L164 320Q147 368 138 440Q131 502 125 563Q128
573 142 591Q146 592 150 592Q163 592 171 577L173 574Q174 572 176 569Q175 550 180 451Q186 323 224 256Q269 308 320 413Q328 430 364 492Q373 514 386 559Q402 567 410 567Q426 567 426 544Q426 536 408 499Q402 488 402 477Q393 473 393 466Q391 456 386 451H385Q375
429 316 320Q302 299 273 258Q272 255 250 226Q238 210 250 198L247 186Q232 178 205 157Q177 128 124 64Q109 54 65 7Q31 -29 -5 -38ZM247 700Q244 671 216 668Q201 677 201 683Q199 694 199 702Q199 730 222 730Q230 728 237 726T247 714V700ZM373 698Q371 676
349 674Q338 681 338 685Q336 694 336 700Q336 721 354 721Q360 720 366 718T373 709V698Z" />
<glyph unicode="&#x192;" glyph-name="florin" horiz-adv-x="741" d="M454 -5Q423 -12 389 -12Q343 -13 305 -5L324 -13Q341 -17 360 -17Q379 -17 395 -13Q409 -13 438 -9Q447 -7 454 -5ZM401 -34L399 -36Q334 -40 309 -29T239 0Q213 14 163 43Q122 67 98 101Q77
124 52 167Q37 201 30 233Q26 250 26 274V277Q26 289 25 314T24 351Q26 368 31 387Q34 398 41 411Q65 469 108 498Q139 522 205 564Q247 586 275 595Q278 595 286 598T298 601Q316 607 366 608Q410 609 427 600Q433 595 437 586Q444 587 483 574Q487 572 495 567Q518
557 553 540Q582 524 603 503Q655 451 694 366Q705 332 705 294Q705 251 691 211Q689 203 683 189L681 187V183Q679 179 672 172V170Q670 165 670 160H667L666 158L669 155Q663 152 660 149L659 147Q659 147 655 139L660 142Q654 135 643 121Q641 117 631 106Q630
104 627 101L625 100L612 84H611Q591 64 574 52Q569 48 555 38V37Q560 39 574 52Q585 63 594 63Q596 65 599 65Q603 65 607 63Q607 51 597 45L595 43Q592 40 585 34T563 16Q561 13 551 11Q550 12 550 9Q534 3 529 0T494 -16Q455 -34 412 -32Q410 -35 401 -35V-34ZM506
540L502 541Q498 543 496 545Q491 547 486 550Q481 550 471 556T456 563Q449 564 440 564Q418 564 402 550Q404 549 409 542Q407 539 412 537T419 532Q428 526 435 514L439 507Q446 494 457 493Q481 496 523 512Q528 521 539 525Q530 529 528 529Q523 530 519 534L515
536H514L508 539Q504 537 502 535Q503 540 506 540ZM418 581Q412 584 409 583Q403 586 382 586Q375 586 372 587Q363 585 356 585Q350 585 345 586Q291 580 232 550Q238 552 261 557Q330 573 385 559Q401 573 414 579Q416 580 418 581ZM419 580L418 579Q419 579
419 580ZM568 66L574 76Q580 80 595 95Q599 99 626 129Q680 211 686 260Q688 275 686 308Q685 346 679 352V353Q676 356 676 360L675 362Q675 363 661 391Q660 393 658 400Q657 402 647 405Q644 403 642 403Q632 401 627 405L625 406Q625 407 623 407Q610 404 590
391V387Q589 384 589 383L587 378Q587 377 588 377V373Q589 367 597 356L601 352Q607 347 614 329L609 283Q608 277 591 257L584 255H586Q579 253 576 255Q578 255 571 256L569 257Q581 239 580 230V228Q584 228 602 226Q624 216 624 183Q623 181 623 180L621 178Q621
171 613 167Q601 152 587 152Q585 153 583 153L580 154Q567 157 565 168Q563 175 562 182Q554 178 539 167Q560 156 568 132Q568 126 571 116T574 99L571 77Q568 73 568 66ZM653 407L654 406L655 404Q655 407 653 407ZM536 286Q537 284 538 283L539 282Q538 284
536 286ZM313 544Q278 542 253 536Q241 532 211 524Q188 518 156 500Q123 468 95 420Q106 410 126 390L134 382Q135 382 137 380Q149 361 149 338Q149 314 125 286Q115 277 119 251Q120 245 120 236Q124 223 134 199V194H135Q137 192 137 189Q143 181 149 161Q150
146 147 114Q150 110 148 104Q225 31 315 14Q322 14 335 11Q387 9 407 9Q412 10 421 11T436 14Q430 16 429 20Q421 28 416 31Q416 31 405 42Q401 44 394 47Q381 50 375 58Q351 62 346 79Q346 100 343 140Q339 145 339 150Q339 154 342 161T345 172H342Q332 165
313 159T286 149T275 144Q267 145 263 153Q261 168 250 171Q246 171 244 172Q221 171 210 176Q194 183 198 204V209Q196 214 200 218Q200 226 196 242T192 267Q192 280 205 297Q226 314 252 314Q260 314 267 312Q277 315 291 305T312 298Q321 303 340 310Q345 310
351 316Q361 323 362 324Q369 328 373 332Q377 341 377 352Q377 366 371 382H363Q367 368 365 363L368 366Q357 350 351 348Q339 346 315 343Q317 336 309 327Q295 311 271 319Q265 321 259 325T253 342Q253 352 258 366T278 411Q289 436 289 440Q285 446 264 449T239
461Q239 463 236 468Q238 481 251 493Q256 501 271 512L285 526Q294 533 313 544ZM636 431L637 432V435L636 434L635 435Q634 436 632 440Q625 443 625 449L622 455V454L620 455Q613 459 607 473H604Q604 476 598 482Q593 485 590 490Q580 499 564 508H559Q556
505 546 502Q544 500 538 494T518 484Q500 479 496 477H489L484 475Q474 473 451 472Q437 475 423 495T402 518H394Q389 518 386 524Q384 526 375 529Q372 530 362 537Q361 539 361 542Q349 544 334 544Q336 541 337 537Q318 526 290 499Q289 498 286 497L284 496Q275
488 261 471Q263 470 267 470L274 469Q278 469 280 467Q286 467 302 458Q312 450 310 426Q297 399 274 343Q273 342 274 340L286 337L289 339Q291 340 294 342H293L292 344Q288 351 293 357Q304 366 331 368Q341 367 342 369Q345 375 318 411Q338 391 341 387Q341
396 346 401Q356 406 365 406Q372 406 378 403Q400 388 400 350Q400 323 381 308Q374 300 348 289Q327 277 318 276H310Q299 274 291 281Q271 291 266 290Q246 297 219 278Q215 272 215 264Q215 257 220 239T223 211Q220 195 220 196Q220 192 233 192H255Q273 184
278 174Q279 171 281 171L289 175Q297 179 303 177Q317 184 345 195Q372 191 367 168Q364 160 362 151Q362 148 366 140Q367 127 366 93Q366 85 367 83Q379 81 401 64Q409 62 418 56Q429 47 433 45Q436 40 459 22Q459 19 458 19Q483 23 522 43Q541 47 548 69L554
107Q551 112 551 115L550 119V120L549 116Q546 141 530 149Q524 149 517 154L513 157Q511 160 511 167Q512 169 512 172Q517 181 530 189T547 201Q555 204 561 204Q566 204 570 202Q578 199 585 174Q586 174 586 175H587L589 176Q602 180 602 195Q603 205 589 205Q571
206 563 215T558 237Q553 244 545 258Q541 259 533 261T514 277Q513 286 492 294Q489 296 480 301Q479 304 483 318Q499 320 506 317Q510 312 524 307T543 298T551 288L552 286Q554 284 557 285Q564 283 578 278Q585 283 587 287Q587 307 592 332Q585 339 572 353Q564
369 564 375Q568 398 568 400Q572 414 605 428Q608 428 614 432Q619 432 629 427Q632 426 636 431ZM126 128Q126 150 127 160Q123 166 121 178Q114 188 96 236Q94 244 94 255Q94 270 97 291Q102 297 116 310Q134 327 127 357Q125 364 117 372L113 376Q106 380 91
395L84 402Q82 396 77 381Q60 339 55 317Q54 311 53 299Q53 291 50 280Q57 235 94 173Q111 143 126 128ZM639 332Q628 328 616 336Q614 341 614 347Q614 353 617 360L615 363Q617 373 632 379Q648 381 661 355V339Q655 337 639 332ZM639 354L638 355V353L639 354ZM640
354Q641 355 640 355V354ZM220 96H218L217 95Q211 91 209 91L204 89Q196 86 191 86Q185 85 177 91Q173 96 175 110Q178 116 187 124Q193 128 203 136Q211 135 216 130L219 127Q229 117 230 105Q227 98 220 96ZM206 112L205 113Q204 112 203 111L206 112Z" />
<glyph unicode="&#x2c6;" glyph-name="circumflex" horiz-adv-x="483" d="M437 420L436 419L438 420H437ZM439 420Q432 424 431 424L437 420H438H439ZM131 329Q132 329 132 330V327Q133 326 131 322T126 309Q125 307 123 305Q121 298 103 277Q100 288 102 296L103
300Q106 307 108 316T116 341Q106 342 88 346T71 350Q68 352 65 352L59 353Q52 354 47 359Q44 360 31 375V381Q31 385 32 388Q33 400 49 408Q77 429 127 432Q129 431 131 431H135Q145 431 166 425Q167 438 176 460Q175 462 174 464H173Q172 463 171 463Q137 458
127 464Q107 476 93 499L92 502Q90 504 88 510L90 507Q89 511 89 515Q89 527 98 544Q103 550 117 560Q118 561 120 561H121Q119 576 119 589Q126 607 134 612L136 614Q140 621 149 623Q159 630 182 634Q184 634 188 635T194 637Q208 643 224 640Q226 640 230 641Q233
641 234 640H244V638Q271 634 280 607Q283 609 287 613Q308 629 329 636Q332 639 335 639L337 640Q339 640 341 640Q344 643 351 643H352Q356 644 361 646H365Q366 646 368 647L370 646Q374 648 377 647H379Q382 648 386 647H393Q394 646 397 647L407 645Q410 647
412 645H414Q422 644 437 637Q439 637 442 635Q460 622 465 598Q469 592 469 577Q470 569 476 568Q517 542 517 503V480L515 478H516V477L512 465L509 461L507 456L498 447Q496 446 494 444L493 443Q489 440 479 432H489Q472 428 446 423Q446 423 439 420H438L447
413Q461 403 459 385Q459 382 447 361Q426 343 409 339L405 338Q402 338 383 331Q379 333 375 331Q370 329 367 329L364 327H350Q347 327 344 326Q348 324 348 318Q346 310 346 306Q344 298 342 294Q341 279 329 259Q329 256 326 253Q324 246 307 239Q310 253 321
284Q328 304 329 318Q330 320 330 322V324Q324 323 320 323H313Q312 322 309 322Q304 321 300 322Q286 322 259 324Q256 326 244 322Q241 325 229 327H219Q217 328 213 328H209Q209 328 195 330Q186 331 182 330L178 332L179 331H177Q176 331 173 332H169Q163 332
150 334Q151 334 132 338L133 334L131 329ZM182 408V403Q180 401 176 401Q181 401 154 409Q149 410 138 413H120Q113 413 99 409Q97 409 93 408T85 406Q75 403 58 392L56 391Q56 390 49 383Q49 382 50 379Q57 371 96 362Q140 352 181 348Q281 338 315 339Q319 341
320 341Q343 345 390 351Q442 365 442 390Q437 403 428 404Q423 410 415 411Q399 417 366 417Q360 420 358 431Q363 439 370 439Q386 437 382 437Q390 435 402 435Q420 435 448 440Q450 440 452 441T464 445Q465 446 468 447Q495 461 499 476Q502 482 502 491Q502
498 500 508Q500 512 497 518Q494 529 482 541L480 543Q477 545 469 550V543L460 548Q457 566 447 598Q446 612 430 621L415 627Q401 629 388 629Q370 629 352 626Q350 625 349 624L344 622Q341 621 336 621Q329 617 315 611Q312 610 306 604Q304 604 302 602L300
600Q295 597 286 588L282 584Q281 583 279 582Q278 576 274 576Q272 576 268 579Q270 581 271 580L263 587Q266 596 260 611Q258 617 248 620Q239 620 237 622H236Q234 623 219 622Q196 621 176 615Q173 612 169 612L165 611Q163 610 147 601L145 598V597Q140 593
135 579V574Q137 574 138 570L141 565Q142 561 149 556Q148 551 149 542Q149 530 145 526L136 530Q138 529 138 525H137Q131 528 131 538V543H130Q126 541 123 541Q107 529 107 517Q107 506 127 486Q135 478 150 478Q166 478 173 485L175 486Q177 490 184 490Q190
488 191 481Q200 489 206 492Q236 506 260 506Q274 506 282 500Q287 507 295 521Q310 534 327 538Q346 542 367 532L369 530H368L372 527Q372 526 377 521T382 509L380 506H381Q381 502 377 498Q371 498 368 501L367 502Q360 518 343 520Q330 520 324 517H323Q322
516 321 516Q313 512 306 505Q299 491 293 472Q286 471 276 481Q273 484 252 487Q240 484 217 478Q182 457 184 424Q183 423 183 420L184 417Q185 414 185 412Q185 409 183 407L182 408ZM420 316V315Q421 311 408 291Q403 283 398 283L394 293Q394 292 393 291V292Q394
291 406 329Q409 331 413 331Q417 331 421 330Q422 321 420 316ZM405 182Q409 187 423 205Q412 189 400 172L399 168Q396 162 383 154Q384 172 396 209Q407 211 410 207Q412 198 411 195Q410 192 408 188L405 183V182ZM344 168Q342 164 325 148Q326 166 333 187Q338
203 342 219Q345 225 352 224Q360 218 359 211Q359 208 348 180Q347 176 346 172T344 168ZM226 282Q223 274 213 266Q209 272 209 280Q209 284 210 288Q210 289 211 290Q214 300 220 322Q225 326 233 324Q237 320 237 311Q235 303 226 282ZM251 162H252V161Q250
158 241 156Q239 162 262 242Q264 248 272 246Q278 245 278 239V233Q271 210 254 163L251 162ZM136 250V249Q139 256 142 261Q139 255 134 244L122 220L115 217H118Q117 216 115 216Q112 216 107 219Q112 232 124 266Q128 276 137 303Q142 305 146 304H147L150
303Q153 300 153 296V297L154 292Q152 288 149 278T136 250ZM187 176V175L186 173H185Q183 165 170 163Q172 168 176 204L180 215Q186 221 192 217Q196 214 196 208V204Q195 197 189 183V180L187 176ZM64 239Q63 238 62 235T59 231Q57 225 46 223Q44 233 46 237L47
240V243Q49 253 55 272Q59 275 64 275L70 270Q73 265 71 260Q69 255 64 239ZM89 163V164Q93 161 93 157Q89 139 81 121L78 112L76 109Q76 107 74 102L61 100Q62 112 67 136Q70 145 75 164Q78 167 82 167Q85 167 88 166L89 163Z" />
<glyph unicode="&#x2c7;" glyph-name="caron" horiz-adv-x="886" d="M811 382Q811 382 811 382ZM751 297L752 291Q756 292 757 292L751 297ZM656 292Q661 253 660 242L661 247L660 219Q661 217 661 214V213Q663 210 661 207Q661 176 662 184Q663 183 663 181V180Q663
176 666 167V162Q668 160 668 156V155Q669 155 671 153H672L673 154V157Q670 172 670 217V257L671 252V253L683 252Q685 248 685 244V234Q687 231 685 227Q685 215 688 192T692 158V156H694Q695 157 733 163Q737 163 740 164L743 165V179Q743 177 737 255L734 286L709
282L734 288Q734 296 733 298L736 302Q736 303 738 305T743 308Q747 308 751 304Q752 309 757 310Q793 306 810 343Q815 353 807 365L805 364Q801 362 799 362H798L795 360L791 358Q770 351 774 351Q767 351 764 356L763 360Q762 366 772 371L776 374L785 377Q794
385 794 396Q794 418 766 437Q744 453 717 459H715L698 462Q693 463 681 461Q676 461 649 456Q639 453 632 448Q628 447 620 441Q615 439 596 423Q587 412 575 398Q571 386 571 391Q561 372 559 351Q556 317 584 299Q593 296 609 290Q607 292 602 296Q593 302 591
326Q605 323 610 315L612 312Q615 308 618 308L626 310Q628 311 636 316Q644 309 650 312Q657 312 671 307Q677 307 686 300H692L689 291Q686 283 679 285Q666 291 656 292ZM649 165V161Q649 161 650 160L651 159L649 165ZM627 292Q628 287 628 283Q631 272 634
249Q636 246 636 233V231Q637 226 640 217L641 223Q641 207 644 183L645 179Q644 187 645 189Q644 195 644 213Q644 217 644 229Q645 241 645 250V262Q645 264 644 288Q644 290 645 292Q642 292 640 291Q638 293 635 294Q632 293 627 292ZM611 289H610H611ZM621
84H624Q635 82 638 67Q617 64 612 66L603 65Q603 73 601 77Q599 84 602 90Q608 107 622 111Q626 112 630 109Q630 115 631 124Q624 122 622 128L621 129L620 131Q618 133 614 139Q613 142 579 162Q608 148 609 145L607 152L609 161Q625 150 634 141H635L633 145Q630
154 629 156Q628 158 629 164L622 213Q619 232 614 270H613H610L608 271Q597 277 579 284Q550 296 542 332Q537 354 546 381V383Q564 426 604 452T690 479Q713 479 736 471Q727 477 712 486L747 467Q785 446 795 433Q813 413 813 388Q813 387 811 383L813 382Q819
380 825 371L831 353Q831 327 796 300L784 294Q778 290 767 291H764Q762 291 752 289Q753 272 755 253Q755 251 758 227Q760 224 758 221Q759 217 759 215L760 212Q760 208 761 204V196L764 170Q766 173 770 177L773 180L775 183L789 197Q793 201 800 207T811 218Q821
213 821 207Q821 203 815 199Q814 199 813 198L811 196Q808 194 785 166Q778 149 778 147Q776 141 771 141L774 140L770 141H767Q766 136 759 136Q753 136 749 143V144Q738 144 708 139Q691 137 655 128Q655 126 654 121L653 120Q652 118 651 117Q649 108 651 105V101Q652
104 669 106Q666 104 661 101L668 96Q667 97 668 99L670 97L667 89Q668 90 669 90V89L668 87Q667 85 666 84V81H658L656 83Q654 83 652 84V81L647 80L648 79L647 78Q645 76 642 76Q640 76 638 77T635 81L633 83L632 85Q632 86 631 87Q627 86 621 84ZM807 134Q808
132 806 121Q791 124 788 133H787Q783 133 778 137Q777 143 780 149T783 157Q795 175 815 173L819 164L817 162Q821 163 825 163Q829 163 833 162Q846 145 846 132Q843 116 831 112Q833 105 833 97Q833 84 827 67Q822 56 794 22L800 33Q794 30 783 25Q750 6 695
6Q693 8 692 8H690Q666 8 651 25Q643 39 644 43Q650 48 654 48Q660 48 663 41Q665 39 670 35L673 32L675 31L676 30Q702 25 705 25Q712 26 726 25Q749 29 773 39Q784 45 802 61Q816 81 816 95Q816 102 813 108L810 117Q809 124 816 129Q823 129 826 136Q826 143
825 143H820Q818 142 814 139L811 138V139L808 135L807 134ZM711 102Q716 107 722 106L727 100Q729 97 729 95Q729 92 726 89L722 83H714L712 84L707 85L706 90V93Q706 97 707 99L711 102ZM746 41Q743 38 743 34Q728 25 721 27L718 32L717 34Q714 39 719 44Q722
46 728 47Q729 48 731 49L738 54Q750 49 746 41ZM692 56Q676 49 666 53Q656 67 658 74Q660 83 670 79L674 75L675 72L676 71L679 72Q682 72 683 73Q689 76 693 74H695Q698 73 703 68Q705 64 701 57Q694 57 692 56ZM482 180Q483 177 482 171Q480 158 480 162Q480
173 481 181L482 180ZM559 97Q558 98 556 100L555 99H554Q550 97 552 95L553 93Q557 97 559 97ZM516 79Q509 76 501 77Q493 80 488 89Q487 102 499 116Q502 118 507 121L514 124Q528 126 533 123L534 121L535 120Q539 116 539 103Q544 112 554 119T571 120Q574
117 574 112L573 110Q572 108 571 107Q573 105 575 99Q575 90 563 81V80Q565 76 566 75Q570 55 549 45Q539 45 532 51T527 66Q528 69 531 74L536 79Q538 81 542 84Q539 90 538 94Q537 92 537 90L536 87L529 73V74Q528 71 527 71Q521 59 517 54Q512 45 506 45Q503
45 501 46Q499 52 502 58L504 60Q506 62 508 66L510 69L511 70Q511 72 512 74T516 79ZM517 98L518 101L519 102Q519 104 521 104Q520 106 521 107Q521 108 522 110H519L516 108Q514 108 510 104L508 103L506 100L502 92H503Q506 92 516 99Q517 99 517 98ZM542 62L544
60Q552 60 552 71Q550 73 549 75V76Q549 74 542 62ZM366 219Q363 218 361 217H360L369 227L366 219ZM465 80Q458 75 450 77Q440 80 437 89Q436 102 448 116Q451 118 456 121L463 124Q476 126 481 123L484 120Q488 116 488 99Q487 97 487 93V92Q486 91 485 90L484
87Q482 83 479 75L478 74Q478 73 476 71Q470 59 466 54Q461 45 455 45Q452 45 450 46Q448 52 451 58L452 60Q456 64 457 66L459 69V70Q460 72 461 74T465 80ZM465 97L467 101V102L469 104V107Q470 108 471 110H467L464 108L462 106L458 104L457 103L455 100Q451
96 451 92L465 99V97ZM289 179L288 181Q289 180 289 179ZM289 178V179V178ZM289 178Q290 173 286 161Q287 169 289 179V178ZM432 127H431H432ZM427 56Q428 54 428 49Q426 44 422 44H421Q410 49 413 55V60Q415 72 415 75Q421 104 422 118Q422 121 424 125L432 127H431H432Q434
126 438 123Q434 101 427 56ZM229 190H230V191L229 190ZM211 202H205Q199 192 199 186L200 187Q203 188 209 189Q209 196 211 202ZM211 215Q213 214 214 213Q216 216 217 218T220 220Q217 222 217 227Q217 235 224 235H226Q226 234 228 234Q230 233 230 234Q234
230 234 228Q235 225 232 222Q232 223 233 224L228 220H227Q231 218 231 214Q230 213 226 200L225 197V194L224 192L226 193Q228 192 229 190Q230 205 242 241L243 244Q247 250 251 250Q254 250 258 245Q259 239 256 236V237L255 233Q254 232 254 230L253 226V225Q253
221 249 214V213Q249 213 246 199L244 195V189H255Q250 178 246 174L248 167Q247 169 246 174L242 173Q236 172 234 173Q232 175 230 179L224 173Q222 172 219 172Q214 172 209 177Q205 172 199 172Q193 171 187 175Q185 180 185 186Q185 192 187 198Q182 200 182
204Q182 216 193 216H195Q200 224 201 233Q204 237 207 237Q211 237 216 230Q215 223 211 215ZM359 75Q358 75 358 74Q358 74 359 75ZM359 71Q358 72 358 71H359ZM351 67Q351 64 351 62Q352 63 354 64L359 59H360L362 60L358 62Q353 64 351 67ZM304 85L305 88Q304
87 303 86L304 85ZM252 58H251Q252 58 252 57V58ZM286 116V115Q286 123 295 123Q297 122 302 119Q301 111 296 100Q294 95 291 88Q292 84 289 81Q282 66 284 58H285Q285 80 304 94L309 95Q311 95 315 92Q315 92 317 92Q320 89 321 86Q324 90 327 90Q332 90 334
82Q336 83 342 87Q351 87 352 78L354 79Q355 80 357 82L358 83L361 85Q362 85 364 87Q372 91 375 92H380Q386 91 386 86Q386 81 381 79H380L379 78L368 73Q370 72 371 71L372 70Q377 67 379 61Q379 59 376 53L373 50Q372 48 367 43Q369 46 370 48Q364 45 359 45Q355
45 352 47Q348 45 345 45Q341 45 339 48T335 59L327 49Q322 47 318 49L317 48H316L313 47Q309 46 307 48L305 50L304 49Q299 44 291 45Q289 47 287 50Q286 48 284 47L283 46H281Q269 52 269 64Q269 70 271 76L264 74Q263 73 260 73H258L257 72Q256 67 252 58H253L252
57Q255 55 253 48Q249 46 240 47Q237 55 243 76Q239 80 240 85Q243 88 247 88Q248 92 250 98L254 115Q255 119 259 119L260 120H264L268 117V108Q268 109 269 109V108L266 99Q266 98 265 95T264 90L263 89Q268 90 276 92Q276 93 277 93V94Q280 103 285 114L286
116ZM133 193L134 197Q134 198 135 198Q139 195 148 192Q139 192 135 192Q134 195 133 193ZM104 193L105 197Q105 198 106 198L115 194V192Q109 192 106 192Q105 195 104 193Z" />
<glyph unicode="&#x2d8;" glyph-name="breve" horiz-adv-x="847" d="M596 239L599 238L596 239ZM589 240Q593 236 595 236Q595 238 596 239Q592 239 589 240ZM594 225L597 228H595L594 225ZM242 55Q243 52 242 48Q236 43 230 45Q224 47 221 47Q214 48 198 50T148
56Q135 55 112 60Q102 62 106 77Q153 122 173 147L169 150Q163 153 154 159L153 160Q150 159 142 165L141 167Q140 168 136 168T130 171L128 173Q132 173 100 189Q99 192 98 192L95 193Q95 195 91 196Q82 203 46 232Q43 235 37 243L36 247Q36 254 37 256Q53 268
94 298Q142 332 190 370Q192 375 195 375L198 376H202Q204 375 206 374V375L215 378L223 374Q247 323 257 231Q270 229 279 231Q273 274 274 301Q273 309 275 322T277 342Q278 344 278 348T279 355Q281 384 281 414Q281 444 279 475Q281 483 282 486T291 490Q294
488 298 479Q298 477 297 475V474L298 471Q299 464 298 450Q300 442 299 438Q298 423 298 391Q298 374 296 368Q297 355 294 343Q295 337 294 317Q292 280 296 245L299 233Q303 233 305 234H310Q311 235 316 235T343 237Q343 242 340 252Q340 261 351 360Q352 364
353 370Q352 372 353 376L354 378Q354 394 356 400V437Q357 439 357 444V450Q356 451 356 454Q356 453 357 453L364 461Q369 459 369 454L370 451Q372 440 372 437V401L371 399Q371 386 369 381Q365 354 363 306Q363 295 361 282V268Q361 265 364 238L409 239Q407
261 422 366Q431 430 426 481Q431 483 441 483Q441 478 444 457Q444 463 447 475Q447 452 444 406Q445 404 444 399V396Q442 374 439 364Q440 361 438 355Q437 338 432 303Q431 301 431 298L430 294V290Q431 287 430 283Q430 273 428 267V251Q428 250 429 250V240H464Q463
259 469 296T489 407Q495 441 495 462Q509 462 509 455V453Q509 452 507 451L508 450Q512 447 510 442Q510 439 509 438V424Q509 417 503 388Q504 384 501 379L498 356L496 352L497 353V352Q497 348 495 344Q493 334 490 318Q490 308 486 286Q487 282 486 277Q484
271 484 269V240H504Q501 267 516 328Q517 329 518 331V335Q518 340 530 383Q532 387 534 397Q534 400 538 402Q538 401 536 398L546 402L551 392Q549 389 549 387L548 383Q546 379 544 376Q544 370 541 359T538 343T533 318Q532 315 531 312L528 293Q527 286 525
270Q526 261 523 243V244Q522 238 522 239Q539 239 547 240Q549 264 574 335V336Q574 337 575 339Q577 346 585 367Q591 348 589 343Q591 339 590 335Q588 331 574 269Q571 260 566 241Q574 243 589 240L587 242H588L596 239V242Q624 275 702 358L705 361Q722 378
743 405Q750 407 759 399Q756 395 757 392Q755 372 735 323Q734 317 727 305Q727 301 724 298V295Q710 271 684 221Q688 206 699 189L701 187Q708 176 717 162Q722 153 728 142Q742 114 778 61Q790 43 800 26L797 18Q798 20 800 20Q798 13 791 12Q783 16 768 27T748
43T730 56Q726 61 713 71Q706 79 686 100T635 155Q629 162 614 181Q606 193 592 220H582V219Q584 208 586 189Q588 175 587 166Q586 155 586 123Q585 121 585 109Q584 105 584 97Q583 93 568 70Q568 101 571 114Q572 135 571 176Q568 190 562 219H557Q546 219 525
218Q529 206 529 197T531 163T533 126Q532 113 533 82Q531 75 524 52Q519 74 518 92Q516 132 508 207L505 219Q494 217 485 220H481Q478 219 477 219Q478 214 480 179Q483 132 483 121L481 120Q481 114 480 91T478 50V44Q476 40 467 19Q466 32 463 47V56Q463 78
463 91T463 110Q464 115 464 112Q464 114 465 128Q467 158 457 219Q454 218 426 218H413Q417 206 421 185Q428 152 429 132L430 128V96Q429 95 429 94V91Q429 86 428 84Q431 56 429 21Q430 18 430 8L420 -3Q418 2 413 24Q413 29 414 34Q412 36 414 38V75Q414 86
412 107L413 110H412V115Q412 144 398 206Q397 212 397 218Q367 217 357 216Q366 176 366 106V87Q367 82 367 46Q367 42 359 29Q352 33 352 35L351 33V70Q351 86 349 96Q349 121 345 152L347 149L338 214L337 215Q332 215 285 210Q289 208 294 204Q298 171 296
159Q296 132 296 132Q295 97 295 106Q295 81 299 53Q299 49 301 40Q301 30 291 15Q283 39 282 50Q282 46 280 74Q279 106 275 189Q274 191 274 195Q274 201 276 210Q267 209 261 209H258V197Q258 144 257 119Q256 112 258 97L256 77Q254 60 242 55ZM135 77Q140
77 142 76Q173 73 236 64L239 61Q239 74 240 92Q242 116 242 125V206Q242 211 239 219V255Q239 257 237 271Q232 304 223 327Q221 333 214 349Q210 356 208 362Q207 360 206 359Q203 350 184 337L181 335Q175 330 164 323Q157 317 141 307Q136 302 111 285Q110
284 83 263Q71 257 60 246Q64 243 71 235Q92 215 130 194L194 159L196 151Q196 152 197 152Q197 143 196 141Q184 128 159 101Q165 105 177 111Q146 89 139 82L135 77ZM612 222Q618 212 628 193Q645 170 667 146Q699 110 718 92T757 58Q750 70 740 86L739 87L736
93L673 195Q663 217 663 226Q666 234 678 253Q710 307 727 355Q722 349 717 344L716 343Q714 341 712 340L711 339V340L710 336L702 328Q699 324 692 318Q691 313 685 309L684 308Q682 305 678 300L667 289V288L649 270L647 269V268L646 267Q643 263 639 260Q631
251 615 232Q617 226 612 222ZM188 294H190Q200 297 223 302Q228 297 228 293Q228 291 226 289Q221 287 212 282Q204 281 192 274Q192 272 193 268L197 252Q200 239 199 232L197 229Q193 223 182 227V242Q180 250 175 267Q158 261 144 263Q140 267 140 278Q145
283 150 283H152Q149 284 170 287L168 294Q166 302 168 309Q172 315 179 313Q186 311 186 302V301L185 302L187 299L188 294Z" />
<glyph unicode="&#x2d9;" glyph-name="dotaccent" horiz-adv-x="265" d="M158 625Q120 625 115 626Q91 631 85 652Q79 663 79 674Q79 693 107 735Q139 743 154 743Q183 743 198 724L188 669Q179 638 158 625Z" />
<glyph unicode="&#x2da;" glyph-name="ring" horiz-adv-x="1028" d="M989 229Q991 228 1000 219L996 210Q942 203 768 167Q756 167 731 165Q736 159 745 145Q752 137 772 121Q777 117 787 104Q791 103 793 98L796 97Q839 54 879 6Q884 -1 890 -5L891 -12Q892 -12
892 -11L893 -13Q895 -16 893 -23Q886 -30 879 -30Q873 -30 863 -24T848 -17Q788 20 664 70Q670 45 684 9Q682 1 685 -14Q690 -33 690 -38Q690 -53 697 -89Q696 -94 700 -104T705 -119Q705 -129 691 -136Q673 -125 651 -96Q646 -87 613 -37Q614 -34 610 -30T605
-24Q589 2 569 27Q566 19 556 4Q554 -4 550 -5Q523 -57 467 -162L461 -163Q457 -171 450 -171Q448 -171 445 -170Q441 -154 430 -127Q425 -109 427 -78Q427 -66 426 -52Q427 -29 425 16L423 15Q394 4 335 -17Q285 -32 258 -49Q256 -48 255 -49Q251 -53 248 -53Q197
-79 162 -108Q160 -112 156 -113H155L152 -114Q137 -114 134 -101Q134 -95 138 -89T144 -82Q177 -43 242 42Q245 43 246 44L248 48Q251 51 251 53Q268 70 293 107Q254 122 195 137Q145 148 96 160Q65 168 33 166Q25 173 25 179Q25 184 32 189Q77 207 118 211Q150
219 210 242Q217 240 230 245T248 252T284 263Q257 294 194 355Q151 384 124 408Q114 414 105 421T93 437Q94 453 117 449Q121 449 125 450Q133 450 149 446Q170 443 242 424Q269 417 360 402Q341 439 306 515Q302 524 293 546Q288 556 281 582Q270 609 248 664Q254
674 263 674Q268 674 275 671Q288 667 310 649Q315 647 349 623Q361 611 413 565L418 561Q426 554 471 509Q488 541 536 619Q544 633 562 670Q567 673 572 673Q581 673 588 664L591 661Q592 659 596 655Q617 607 647 500Q648 479 652 437Q660 438 676 442T702 447Q732
456 790 477Q801 481 819 494Q823 495 824 495L828 497Q831 498 842 497V492L843 493L846 485L847 484V483Q847 461 822 436Q814 428 800 408Q778 382 719 314Q725 312 727 309Q761 297 836 275L835 271Q870 262 939 242Q942 242 965 238Q969 237 975 237Q983 237
994 239L989 229ZM824 29Q802 53 755 97T686 166Q681 170 681 176Q681 185 690 191Q700 197 710 189Q743 186 820 202Q846 207 913 221Q862 235 826 249Q795 260 695 289Q681 293 679 311Q714 351 782 425Q786 434 798 450Q768 440 707 421Q704 415 696 414Q685
411 683 410Q675 410 661 406T638 401Q633 401 627 402L620 417Q625 438 625 461Q625 496 611 550L578 634Q574 630 573 625T565 612T557 600Q554 595 549 591Q537 569 514 522Q508 515 500 493Q493 475 477 467L386 556Q332 608 286 635Q293 621 303 592Q303 588
307 579T312 565Q316 552 328 529Q336 503 353 474Q359 463 365 442Q392 402 388 369Q323 378 222 402Q218 407 215 405H212Q206 405 201 408Q183 412 146 417Q154 410 178 394Q193 383 218 358Q242 339 283 299Q294 288 317 270Q316 265 317 263L318 261Q320 257
320 253Q320 247 316 242Q299 238 255 225Q203 209 104 181Q119 176 150 169Q157 169 170 163Q176 163 190 160T211 156Q238 149 289 131Q303 130 312 143Q314 139 318 133L321 132Q326 131 335 121Q332 106 318 85Q296 59 216 -40Q235 -32 271 -14Q276 -14 286
-8T305 -2Q318 4 344 11Q372 22 420 52Q424 59 433 59Q437 59 444 57Q448 57 453 58Q456 46 456 33Q455 12 456 8Q451 -1 454 -15Q456 -31 454 -38Q454 -62 458 -110Q460 -112 460 -115L461 -117Q479 -89 511 -30Q523 3 553 65L562 66L561 67Q566 67 568 66L573
71Q582 66 584 56Q608 21 654 -53Q660 -61 668 -67Q667 -63 667 -49Q666 -41 663 -28T660 -10Q655 4 649 31Q639 51 622 92Q623 98 634 106Q643 113 652 104L824 29Z" />
<glyph unicode="&#x2db;" glyph-name="ogonek" horiz-adv-x="841" d="M646 474H645H646ZM49 -58H48Q47 -59 46 -59L45 -60Q46 -59 47 -59T48 -58H49ZM317 -103L314 -104L317 -103ZM158 -83L155 -84Q154 -84 152 -86Q154 -86 149 -87H164Q162 -86 158 -83ZM615
478H611V476L615 478ZM644 474H645H644ZM659 476Q661 476 663 475L664 476L663 478L662 476H659ZM646 476H645L646 474L647 475L646 476ZM651 475H649H647L648 474H650L651 475ZM659 473H658V472L659 473ZM698 482L686 484L691 482H690H692H691H698ZM740 363Q760
365 791 373Q830 383 842 385Q844 389 847 399Q850 416 842 439Q843 447 854 449Q868 431 866 399Q864 391 865 380Q867 377 867 374Q867 368 858 364Q842 364 798 355Q775 350 732 343Q715 281 715 252Q715 232 719 213V201Q725 177 727 160Q729 156 729 154L730
151Q733 146 742 125L735 133Q741 111 744 85Q746 78 750 66Q751 59 754 46Q757 19 757 -2V-41L756 -43Q756 -75 745 -108Q738 -120 723 -143Q712 -156 700 -160Q695 -163 669 -170T590 -186Q588 -187 582 -187H580V-186Q578 -188 573 -186Q572 -185 571 -185Q569
-183 569 -181L571 -185Q591 -171 603 -168Q628 -162 654 -157Q684 -148 701 -136Q731 -101 737 -50Q740 -22 734 46Q725 81 719 116Q718 117 718 119L717 123Q717 127 715 129Q706 164 696 235Q693 297 707 331Q707 331 708 335L709 339H707Q700 339 696 340L695
339Q684 337 679 343Q679 355 688 355H687L715 359Q730 393 768 434Q779 445 803 458Q789 461 789 461Q774 461 766 464Q759 464 743 466H735L731 467H719Q717 468 706 467V473H705Q703 472 701 473Q698 472 696 472Q694 472 692 472H691L692 471H688Q682 469 679
471H656L658 472Q655 473 650 474L644 468Q644 471 644 474L636 471V474H605L609 476H608H574Q569 476 567 477L560 479V478Q556 477 551 478Q541 480 520 480L516 482H515Q514 481 513 481Q508 481 499 482H485Q485 475 478 474Q470 474 468 482Q458 481 440 476T406
465Q397 460 379 447Q358 432 341 410Q310 370 305 338Q305 333 303 323Q303 309 308 251Q312 199 313 193T314 165Q314 144 312 108Q309 91 304 73Q286 9 216 -47Q211 -51 198 -58T164 -80Q166 -81 240 -88Q260 -90 323 -96Q328 -96 338 -97Q344 -98 349 -98T362
-100Q374 -100 374 -100Q387 -101 419 -106H426Q428 -106 433 -107L447 -110Q471 -112 518 -121Q550 -123 561 -124Q585 -127 602 -134L608 -145Q597 -150 590 -148L586 -146Q585 -146 583 -145Q545 -143 472 -133Q470 -132 469 -132H466Q447 -132 426 -125V-123Q416
-123 401 -123Q397 -123 389 -122T377 -120H372Q374 -120 366 -119L361 -116V-117L362 -118L360 -117Q358 -119 356 -119Q354 -119 352 -116Q349 -116 341 -116H332Q329 -115 327 -115Q323 -116 315 -115Q305 -113 302 -113Q286 -113 253 -108H229Q225 -107 216
-106Q203 -106 176 -101Q166 -101 163 -99Q157 -99 144 -97T125 -95Q112 -98 84 -93Q42 -86 26 -33Q37 -41 52 -58Q53 -59 54 -61L55 -62Q61 -59 66 -61Q74 -66 96 -70T126 -73Q179 -59 245 7Q257 23 275 57Q276 60 282 76Q294 107 294 154Q294 180 290 221L284
284Q282 315 285 348Q287 357 298 379Q300 385 306 395L311 402Q315 406 315 408Q350 464 398 482Q408 489 422 491Q423 492 425 492L426 493Q424 496 424 498Q424 503 433 504Q444 501 466 502T498 501Q545 497 629 492Q646 491 767 482Q774 482 785 480H787Q788
479 794 479V478L805 477L820 474Q825 473 828 471Q837 470 850 460V454Q849 445 840 445Q836 447 818 442Q810 438 806 437Q801 432 793 428Q755 392 743 368Q741 364 740 363ZM404 416V411L407 419Q406 419 405 417L404 416ZM485 423V422L487 425L486 424L485
423ZM631 414Q644 423 675 435Q682 432 685 423T690 414Q701 417 710 416Q714 399 702 398Q695 396 687 394Q668 392 668 413Q656 406 631 393Q611 393 611 408Q600 399 574 386Q570 387 562 393Q561 396 561 400Q561 404 562 409Q560 408 538 391Q531 390 528
391L526 392Q524 393 521 394Q518 402 520 412L503 395Q494 388 488 391L486 392Q478 403 481 419Q470 407 448 394Q435 397 437 409L438 414L439 416L437 415Q431 409 413 397Q399 401 400 411Q394 405 386 397L378 398Q379 398 379 397H378Q370 399 371 406Q373
419 388 449Q395 452 400 450L404 443Q403 441 401 437Q407 442 414 447Q424 441 424 429L422 426Q426 429 432 435L450 448Q459 451 465 438Q463 432 460 424Q475 437 485 447Q495 451 499 451Q505 448 507 435Q506 430 500 420V417L501 419Q504 422 506 422Q514
430 530 444H533Q536 449 545 448Q550 441 550 435Q550 433 543 418Q545 419 550 423L570 437Q581 441 584 431Q587 423 582 412V410Q586 413 593 417Q606 429 619 433Q626 435 632 425V415L631 414ZM357 362H356H357ZM500 338Q518 349 526 349Q542 349 546 334Q543
323 534 326Q531 327 524 329Q516 324 496 316Q490 316 482 324Q481 326 481 330Q478 328 477 328Q462 320 454 320Q451 320 449 321Q444 325 444 339L445 342Q432 331 419 323Q416 321 402 323Q397 332 399 339L396 337Q393 334 391 333Q387 328 373 321L369 324V323H362Q361
334 362 340Q360 338 355 334L352 333H353Q346 326 340 328L339 330V329Q336 330 331 337Q331 347 346 366Q349 367 352 367Q357 367 358 362Q362 366 368 370Q370 371 373 371Q380 371 384 360Q385 356 384 351L386 353Q402 366 409 365Q416 364 418 357L420 354V346Q429
353 448 365Q458 368 466 354Q467 349 465 343V342L467 344Q472 346 480 350Q485 353 488 353Q500 353 500 339V338ZM393 268V266L394 269L393 268ZM338 247L337 249L335 251V247H338ZM340 245Q340 247 338 247L340 245ZM381 268L384 265Q384 267 381 268ZM584
258Q590 260 607 270Q609 270 611 271L613 272Q614 273 616 273Q625 278 635 277Q639 276 642 271V269L643 268Q666 270 673 266Q672 254 654 250Q638 246 630 254Q629 256 627 258Q613 249 580 239L578 240H577Q565 238 565 252Q559 249 546 244Q539 238 532 238Q526
238 519 243T513 262L511 261Q475 243 468 243Q454 243 453 257Q437 247 433 247Q427 247 420 252Q419 261 420 265L416 262Q411 258 410 258Q404 253 392 244Q390 244 390 243L388 242Q386 240 381 240L376 243V242L375 243Q367 246 369 253Q371 258 373 265Q371
264 357 255T340 245L335 233V247H332Q330 255 335 272Q339 277 345 277Q350 274 351 271L352 273Q377 288 385 287Q394 280 393 269Q409 286 431 286Q439 278 439 270Q450 278 463 282Q474 277 472 262Q484 271 523 283Q532 277 532 266V262Q531 259 531 257H532Q533
258 535 258Q544 263 563 271Q566 274 573 274H576Q585 271 585 260L584 258ZM403 176Q403 173 404 177L403 176ZM571 177Q584 183 609 196H622Q624 194 627 187H629L633 188Q643 188 648 183Q649 180 652 166Q644 169 630 166Q619 165 614 172Q612 174 612 176Q609
175 588 164Q574 157 562 158Q557 159 555 164L554 166Q553 167 553 170H552Q545 165 526 158Q520 159 512 168V172Q503 166 482 158Q476 160 467 169Q466 170 466 173L463 170Q449 163 439 163Q432 170 432 180Q425 171 405 157Q390 155 386 165Q384 170 384 191Q377
186 367 173Q364 169 355 165L350 168V167H349Q342 167 342 177Q342 183 348 206L352 208Q354 209 358 209Q364 205 364 198Q383 215 395 214Q399 210 403 187Q402 184 402 181L403 178L404 179Q409 180 408 180Q417 190 437 207Q447 210 450 201L451 200V198Q452
194 452 185Q458 191 471 201Q486 201 486 181V179Q496 187 522 198Q525 195 529 190V189Q531 184 531 181V180Q539 185 554 192H559Q568 190 571 177ZM525 56Q536 63 544 63Q549 63 552 61T558 56T561 50Q561 44 553 42Q543 43 540 42Q522 30 513 32Q505 39 505
48Q493 38 486 35H478L471 38Q470 45 467 53L466 52Q459 46 441 33Q438 37 431 37Q433 49 436 69L438 73Q441 76 444 76Q446 76 449 74T454 65L458 69Q469 78 482 76Q486 71 489 60Q493 63 501 68L511 75Q526 82 526 58L525 56ZM666 -125L664 -128Q657 -132 653
-127Q642 -113 657 -106Q661 -107 666 -108T673 -117Q673 -124 667 -125L666 -126V-125ZM449 119Q458 121 468 116Q470 105 464 103L453 98Q448 97 438 100L435 104V105Q429 103 415 93Q408 91 406 95H405L402 96Q396 100 398 107H397Q393 106 382 97T364 88Q360
88 354 90Q349 98 351 107Q349 104 339 95Q338 97 332 102L328 106Q328 116 327 118Q324 129 338 132Q340 130 343 126Q352 135 361 134Q374 128 370 112Q395 130 404 130Q411 130 414 122Q416 122 416 118V116L419 118Q424 123 431 124Q435 126 439 126Q443 126
446 123L449 119ZM583 -93Q594 -93 608 -74L614 -66Q622 -55 627 -55Q630 -55 635 -56Q638 -63 642 -76Q652 -78 670 -87L669 -101Q659 -98 645 -98Q627 -96 623 -85L619 -90Q607 -105 588 -112Q576 -112 571 -109Q563 -103 559 -87Q546 -97 539 -97Q525 -97 521
-79V-77Q509 -90 492 -95Q478 -94 472 -78V-77H471L460 -90Q457 -92 454 -92Q450 -92 447 -89V-88Q448 -88 449 -89L444 -84Q443 -70 457 -54Q463 -53 465 -55L466 -54Q468 -52 473 -46Q476 -45 479 -45Q483 -45 486 -49L487 -51Q487 -51 486 -51L489 -56Q489 -63
492 -74Q497 -72 515 -57Q517 -55 528 -48Q539 -55 541 -74V-76Q542 -75 564 -59Q574 -59 576 -69T581 -89V-91L583 -93ZM567 -14H569Q569 -13 570 -13Q583 -8 614 -1L618 -5Q622 -9 623 -14L618 -25Q612 -22 605 -22Q600 -22 596 -23T581 -29T564 -34Q557 -34
550 -30Q547 -27 547 -17Q519 -28 516 -28Q496 -28 496 -11Q496 -6 498 0Q483 -9 452 -25Q443 -26 431 -23Q425 -16 427 -9L405 -25Q390 -34 383 -31Q371 -28 372 -17V-16Q361 -23 347 -31Q345 -32 338 -32L330 -30Q328 -24 328 -19Q328 -12 331 -7L332 -4Q318
-9 307 -16H299L295 -11V-12H294Q288 -9 291 0Q294 6 297 11T309 17Q313 13 314 9Q324 14 343 21Q351 23 356 15Q357 12 357 8Q357 2 354 -5Q360 -2 373 5Q381 6 389 3T394 -8Q397 -7 401 -3Q412 5 437 15Q442 15 445 11Q449 2 448 -6Q463 4 494 20Q508 22 513
20Q518 12 517 5L515 -9Q517 -8 529 -4Q551 4 557 4Q567 -8 567 -14ZM362 63Q369 69 382 69Q387 69 403 67L406 64Q409 63 409 60Q414 49 401 49H379Q377 49 370 45T357 41Q349 41 344 50Q344 51 343 52L338 49Q333 45 329 43L323 46Q323 46 323 45H322Q319 46
316 51Q319 67 328 73Q332 71 334 69L336 71Q337 71 338 72H339Q342 76 350 76Q359 74 362 63ZM329 97H334V85H326Q321 85 321 91Q321 100 329 97ZM262 -62Q262 -62 263 -62V-60L262 -62ZM395 -72H396Q404 -72 408 -75Q412 -87 400 -90Q392 -93 386 -92L382 -87V-89L381
-88Q376 -86 375 -78Q370 -83 362 -88Q357 -88 354 -87Q355 -87 355 -86L349 -85Q342 -77 343 -66Q333 -73 317 -81Q314 -79 305 -71Q305 -69 307 -63Q294 -73 272 -89H266L261 -86Q262 -87 262 -88L261 -87Q255 -85 255 -78Q251 -82 246 -86L243 -81Q241 -65 258
-38Q260 -34 264 -34L266 -35L269 -37Q273 -35 276 -35Q290 -35 288 -53L290 -51Q293 -50 298 -47Q299 -45 303 -43L305 -41H307Q307 -40 308 -40L312 -39Q315 -37 318 -37Q323 -37 326 -43Q332 -45 330 -51V-52Q333 -50 335 -48Q352 -35 360 -35L366 -41Q365 -41
365 -40H366Q369 -42 369 -46Q369 -52 364 -62Q371 -56 385 -42Q394 -42 397 -50H396L399 -53Q399 -51 395 -72Z" />
</font>
</defs>
</svg>
